STARTFONT 2.1
FONT -FontForge-Bungee Shade-Book-R-Normal--24-240-72-72-P-205-ISO10646-1
SIZE 24 72 72
FONTBOUNDINGBOX 62 61 -15 -22
COMMENT "Generated by fontforge, http://fontforge.sourceforge.net"
COMMENT "Copyright 2008 The Bungee Project Authors (david@djr.com)"
STARTPROPERTIES 39
FOUNDRY "FontForge"
FAMILY_NAME "Bungee Shade"
WEIGHT_NAME "Book"
SLANT "R"
SETWIDTH_NAME "Normal"
ADD_STYLE_NAME ""
PIXEL_SIZE 24
POINT_SIZE 240
RESOLUTION_X 72
RESOLUTION_Y 72
SPACING "P"
AVERAGE_WIDTH 205
CHARSET_REGISTRY "ISO10646"
CHARSET_ENCODING "1"
FONTNAME_REGISTRY ""
CHARSET_COLLECTIONS "ISO8859-2 ISO8859-9 ISO8859-4 ISO10646-1"
FONT_NAME "BungeeShade-Regular"
FACE_NAME "Bungee Shade"
COPYRIGHT "Copyright 2008 The Bungee Project Authors (david@djr.com)"
FONT_VERSION "1.000;PS 1.0;hotconv 1.0.72;makeotf.lib2.5.5900"
FONT_ASCENT 21
FONT_DESCENT 3
UNDERLINE_POSITION 0
UNDERLINE_THICKNESS 0
X_HEIGHT 17
CAP_HEIGHT 17
RAW_ASCENT 860
RAW_DESCENT 140
NORM_SPACE 8
RELATIVE_WEIGHT 40
RELATIVE_SETWIDTH 50
SUPERSCRIPT_X 0
SUPERSCRIPT_Y 8
SUPERSCRIPT_SIZE 14
SUBSCRIPT_X 0
SUBSCRIPT_Y 1
SUBSCRIPT_SIZE 14
AVG_LOWERCASE_WIDTH 195
AVG_UPPERCASE_WIDTH 199
ENDPROPERTIES
CHARS 1065
STARTCHAR space
ENCODING 32
SWIDTH 325 0
DWIDTH 8 0
BBX 1 1 0 0
BITMAP
00
ENDCHAR
STARTCHAR exclam
ENCODING 33
SWIDTH 524 0
DWIDTH 13 0
BBX 10 21 1 -3
BITMAP
1FC0
1040
7040
7240
F240
F240
7240
7240
7240
7240
7040
7040
7F80
7FC0
7040
7240
F040
F040
FFC0
FF00
7E00
ENDCHAR
STARTCHAR quotedbl
ENCODING 34
SWIDTH 746 0
DWIDTH 18 0
BBX 16 12 1 6
BITMAP
3FBF
6041
E445
E445
E445
E445
E445
E061
E0E1
FFFF
FFFC
FDF8
ENDCHAR
STARTCHAR numbersign
ENCODING 35
SWIDTH 850 0
DWIDTH 20 0
BBX 20 21 0 -3
BITMAP
01F3E0
021420
061C20
0E5CA0
108110
308110
71FFD0
708110
7C9970
7CB940
7CB960
110210
73FF90
F10210
F10210
F932E0
F87080
787080
3FFF00
3F7E00
3C7800
ENDCHAR
STARTCHAR dollar
ENCODING 36
SWIDTH 750 0
DWIDTH 18 0
BBX 17 25 1 -5
BITMAP
01F000
020800
0C4700
104100
104100
23F900
640100
E4FE00
E47C00
E40200
E20100
F1F080
F80C80
FF8480
FFE480
200480
200480
E7F880
E04100
E04200
FE0C00
FE0800
FFF000
0FE000
0F8000
ENDCHAR
STARTCHAR percent
ENCODING 37
SWIDTH 1131 0
DWIDTH 27 0
BBX 27 21 0 -3
BITMAP
07E1F000
18121000
13CE1000
742CA000
75ACA000
F5ACA000
F5AD2000
F5AD4F80
F4297060
F2C94220
F81A48A0
7FFA52A0
7FB252A0
1F72D2A0
0074D2A0
0074C8A0
0060C220
00E1E040
00FFFF80
00FDFF00
00F0FC00
ENDCHAR
STARTCHAR ampersand
ENCODING 38
SWIDTH 866 0
DWIDTH 21 0
BBX 21 21 0 -3
BITMAP
01FF00
020100
040100
187D00
188100
391E00
391C00
3D0800
3E8BF0
31C408
320448
720C88
727C88
F27C90
F20090
F1FF10
F00020
F80040
7FFF80
3FFF00
1FFC00
ENDCHAR
STARTCHAR quotesingle
ENCODING 39
SWIDTH 456 0
DWIDTH 11 0
BBX 9 12 1 6
BITMAP
1F80
2080
E280
E280
E280
E280
E280
E080
E080
FF00
FE00
FC00
ENDCHAR
STARTCHAR parenleft
ENCODING 40
SWIDTH 529 0
DWIDTH 13 0
BBX 11 25 1 -5
BITMAP
02C0
0C20
1020
21A0
6220
E420
E4C0
E480
E480
E480
E480
E480
E480
E480
E480
E480
E480
E460
E220
E1A0
F020
F820
FFE0
7F80
3F00
ENDCHAR
STARTCHAR parenright
ENCODING 41
SWIDTH 529 0
DWIDTH 13 0
BBX 12 25 0 -5
BITMAP
0E80
1060
3010
7310
F090
F050
FC50
FC50
7C50
1C50
1C50
1C50
1C50
1C50
1C50
1C50
1C50
1C50
1090
3310
7020
F040
FF80
FF00
7C00
ENDCHAR
STARTCHAR asterisk
ENCODING 42
SWIDTH 818 0
DWIDTH 20 0
BBX 18 17 1 1
BITMAP
00F800
010800
072800
0BAB80
10AC40
302040
63AE40
607040
FF5780
FE8B00
7CA900
082080
187100
3E7200
7FFC00
3EF000
0C6000
ENDCHAR
STARTCHAR plus
ENCODING 43
SWIDTH 834 0
DWIDTH 20 0
BBX 18 18 1 -1
BITMAP
00F000
010400
030400
072400
072400
1F2780
202040
63FF40
E02040
E02040
FF2780
FF2700
FF2600
070400
070800
07F000
07E000
07C000
ENDCHAR
STARTCHAR comma
ENCODING 44
SWIDTH 484 0
DWIDTH 12 0
BBX 10 13 1 -5
BITMAP
1F80
2040
6040
E740
E140
E140
FF40
F140
E640
6080
FF00
FC00
F800
ENDCHAR
STARTCHAR hyphen
ENCODING 45
SWIDTH 520 0
DWIDTH 12 0
BBX 12 8 0 3
BITMAP
0FE0
1010
73D0
F010
F010
FFF0
FFC0
FF80
ENDCHAR
STARTCHAR period
ENCODING 46
SWIDTH 484 0
DWIDTH 12 0
BBX 10 10 1 -3
BITMAP
1F80
2040
6040
E240
E240
E040
E040
FF80
FF00
FE00
ENDCHAR
STARTCHAR slash
ENCODING 47
SWIDTH 487 0
DWIDTH 12 0
BBX 12 25 0 -4
BITMAP
03E0
0410
0C10
1C90
1C90
1C90
1CA0
38A0
3920
3920
3920
3920
3920
3940
7140
7240
7240
7240
7240
7280
7080
E080
FF00
FE00
FC00
ENDCHAR
STARTCHAR zero
ENCODING 48
SWIDTH 827 0
DWIDTH 20 0
BBX 18 21 1 -3
BITMAP
07FF00
080080
11FC40
220240
620240
E47140
E47140
E47140
E47140
E47140
E47140
E47140
E47140
E27240
E20240
F1FC40
F00080
FC0100
7FFE00
3FFC00
0FF000
ENDCHAR
STARTCHAR one
ENCODING 49
SWIDTH 701 0
DWIDTH 17 0
BBX 15 21 1 -3
BITMAP
1FF8
2008
6008
E388
E048
F048
FC48
FC48
1C48
1C48
1C48
1C48
1C48
1C4E
2042
67FA
E002
E002
FFFE
FFFC
FFF0
ENDCHAR
STARTCHAR two
ENCODING 50
SWIDTH 739 0
DWIDTH 18 0
BBX 17 21 0 -3
BITMAP
0FFF00
180080
380080
79F080
780480
7FE280
7FE280
7F0280
040C80
087080
118300
320C00
727800
727F00
F20080
F3FE80
F00080
F00080
FFFF00
FFFE00
7FFC00
ENDCHAR
STARTCHAR three
ENCODING 51
SWIDTH 737 0
DWIDTH 18 0
BBX 16 21 1 -3
BITMAP
3FF8
2004
E002
E7E2
E012
FF92
FF92
F814
1812
39E9
3805
3805
3FE5
3FE5
2005
67F9
E001
E002
FFFC
FFF0
FFE0
ENDCHAR
STARTCHAR four
ENCODING 52
SWIDTH 809 0
DWIDTH 19 0
BBX 17 21 1 -3
BITMAP
1F9F80
209080
60B080
E27280
E27280
E27280
E27280
E27280
E27280
E20280
E20280
E1FE80
F00280
F80280
FFF280
7FF280
3FF080
00F080
00FF80
00FE00
00FC00
ENDCHAR
STARTCHAR five
ENCODING 53
SWIDTH 747 0
DWIDTH 18 0
BBX 17 21 1 -3
BITMAP
1FFF00
200100
600100
E3F900
E20100
E27E00
E27C00
E20200
E20100
E3F880
E00480
E00480
FFE480
FFE480
600480
67F880
E00100
E00200
FFFC00
FFF000
FFE000
ENDCHAR
STARTCHAR six
ENCODING 54
SWIDTH 793 0
DWIDTH 19 0
BBX 18 21 1 -3
BITMAP
07FF00
080100
11F900
220100
640100
E47E00
E47E00
E40100
E57C80
E20240
E40240
E47240
E47240
E27240
E20640
F17880
F00080
FC0300
7FFC00
3FF800
1FE000
ENDCHAR
STARTCHAR seven
ENCODING 55
SWIDTH 727 0
DWIDTH 17 0
BBX 17 21 0 -3
BITMAP
1FFF80
300080
700080
F3FC80
F00480
FFE480
FFE480
FFC480
010480
020C80
043100
0CC300
188400
389800
389000
389000
381000
3C1000
3FE000
3F8000
3F0000
ENDCHAR
STARTCHAR eight
ENCODING 56
SWIDTH 811 0
DWIDTH 19 0
BBX 18 21 1 -3
BITMAP
03FE00
0C0100
11F880
320480
727280
727280
727280
7A0500
71F880
620640
640240
E4F140
E4F140
E4F140
E40240
E20240
F17C80
FC0100
FFFE00
7FFC00
1FF000
ENDCHAR
STARTCHAR nine
ENCODING 57
SWIDTH 793 0
DWIDTH 19 0
BBX 17 21 1 -3
BITMAP
07FE00
080100
11F880
220480
640280
E4F280
E4F280
E4E280
E40480
E2FA80
F00280
F80280
FFF280
7FE280
180480
39F880
780080
780300
7FFC00
7FF800
3FE000
ENDCHAR
STARTCHAR colon
ENCODING 58
SWIDTH 484 0
DWIDTH 12 0
BBX 10 19 1 -3
BITMAP
1F80
2040
6040
E240
E240
E040
E040
F040
FF80
FF80
6040
6040
E240
E240
E040
E040
FF80
FF00
FE00
ENDCHAR
STARTCHAR semicolon
ENCODING 59
SWIDTH 484 0
DWIDTH 12 0
BBX 10 21 1 -5
BITMAP
1F80
2040
6040
E240
E240
E040
E040
FF80
FF80
E040
6040
E740
E140
E140
FF40
F140
E640
6080
FF00
FC00
F800
ENDCHAR
STARTCHAR less
ENCODING 60
SWIDTH 814 0
DWIDTH 20 0
BBX 17 17 1 -1
BITMAP
000F80
007080
038280
0C1C80
11E080
320300
723E00
727C00
F20C00
F30300
F0F080
FC0E80
7F8080
7FF080
1FFF80
03FF00
007E00
ENDCHAR
STARTCHAR equal
ENCODING 61
SWIDTH 834 0
DWIDTH 20 0
BBX 18 15 1 0
BITMAP
1FFF80
200040
63FF40
E00040
F00040
FFFF80
FFFF00
FFFF80
200040
63FF40
E00040
E00040
FFFF80
FFFF00
FFFE00
ENDCHAR
STARTCHAR greater
ENCODING 62
SWIDTH 814 0
DWIDTH 20 0
BBX 16 18 2 -2
BITMAP
3E00
61C0
E03C
E702
E0F1
F809
FF85
FFE5
3F05
180D
2071
6782
E01C
E0F8
EFE0
FF00
F000
8000
ENDCHAR
STARTCHAR question
ENCODING 63
SWIDTH 756 0
DWIDTH 18 0
BBX 18 21 0 -3
BITMAP
1FFF00
300080
700040
73FC40
F00240
FFF240
FFF240
7C0240
0C0640
1CF840
3C0080
1C0F00
1FFC00
1C0800
1C1000
1C9000
3C1000
3C1000
3FE000
3FC000
1F8000
ENDCHAR
STARTCHAR at
ENCODING 64
SWIDTH 967 0
DWIDTH 23 0
BBX 21 25 1 -4
BITMAP
011800
06D9E0
0B0070
14FF18
2BFFD8
6BFFF8
EC8078
ED3E78
EA4178
EA9978
EA9978
EA9978
EA9978
EA9978
EA8158
EA4118
EA3FE8
EB0010
FBFFE0
F5FFC0
FB1F80
7E9F40
7FFF80
3FFF00
07FE00
ENDCHAR
STARTCHAR A
ENCODING 65
SWIDTH 830 0
DWIDTH 20 0
BBX 18 21 1 -3
BITMAP
03FE00
040100
0C0100
18F900
190480
312480
317440
327240
627240
640140
E40140
E3FE40
E40140
E40140
E4F940
E4F940
E0F840
E0F840
FF7F80
FE7F00
F87E00
ENDCHAR
STARTCHAR B
ENCODING 66
SWIDTH 825 0
DWIDTH 20 0
BBX 18 21 1 -3
BITMAP
1FFE00
200100
600080
E3F880
E20480
E27480
E27480
E26480
E20580
E3FE40
E20140
E27940
E27940
E27940
E20140
E3FE40
E00040
F00080
FFFF00
FFFE00
FFF800
ENDCHAR
STARTCHAR C
ENCODING 67
SWIDTH 728 0
DWIDTH 17 0
BBX 16 21 1 -3
BITMAP
07FF
0801
1001
21FD
6201
E47E
E47C
E478
E480
E480
E480
E480
E480
E43F
E201
F1FD
F001
FC01
7FFE
7FFC
1FF8
ENDCHAR
STARTCHAR D
ENCODING 68
SWIDTH 846 0
DWIDTH 20 0
BBX 19 21 1 -3
BITMAP
1FFF00
2000C0
600040
E3FC20
E20220
E20120
E27920
E27920
E27920
E2B920
E2B920
E2B920
E2B920
E27120
E20320
E3FC40
E00040
F00180
FFFE00
FFFC00
FFF800
ENDCHAR
STARTCHAR E
ENCODING 69
SWIDTH 754 0
DWIDTH 18 0
BBX 17 21 1 -3
BITMAP
1FFF80
200080
600080
E3FC80
E20080
E27F00
E27E00
E20200
E20200
E3F200
E20200
E20400
E27800
E27F00
E20080
E3FC80
E00080
F00080
FFFF00
FFFE00
FFF800
ENDCHAR
STARTCHAR F
ENCODING 70
SWIDTH 718 0
DWIDTH 17 0
BBX 16 21 1 -3
BITMAP
1FFF
2001
6001
E3FD
E201
E27F
E27C
E278
E204
E202
E3F2
E202
E27C
E270
E260
E280
E080
F080
FF00
FE00
FC00
ENDCHAR
STARTCHAR G
ENCODING 71
SWIDTH 808 0
DWIDTH 19 0
BBX 18 21 1 -3
BITMAP
07FF00
080080
100080
21FC80
620100
E47E00
E47C00
E47800
E48F80
E49040
E4B040
E47240
E47240
E40240
E20240
F1FE40
F00040
FC0040
7FFF80
7FFF00
1FFE00
ENDCHAR
STARTCHAR H
ENCODING 72
SWIDTH 859 0
DWIDTH 21 0
BBX 19 21 1 -3
BITMAP
1F8FE0
208820
60B820
E2B920
E2B920
E2B920
E27920
E20120
E20120
E3FF20
E20120
E20120
E27920
E27920
E27920
E2B920
E0B820
F0B820
FF3FC0
FE3F80
FC3E00
ENDCHAR
STARTCHAR I
ENCODING 73
SWIDTH 705 0
DWIDTH 17 0
BBX 15 21 1 -3
BITMAP
1FFE
2002
6002
E7FA
E042
F042
FC4C
FC48
1C50
1C50
1C50
1C50
1C50
1C4E
2042
67FA
E002
E002
FFFE
FFF8
FFF0
ENDCHAR
STARTCHAR J
ENCODING 74
SWIDTH 788 0
DWIDTH 19 0
BBX 18 21 0 -3
BITMAP
000FC0
001040
003040
007240
007240
007240
007240
007240
0FF240
107240
307240
727240
F27240
F20240
F10240
F0BC40
F80080
7C0100
7FFE00
3FF800
0FF000
ENDCHAR
STARTCHAR K
ENCODING 75
SWIDTH 846 0
DWIDTH 20 0
BBX 18 21 1 -3
BITMAP
1F8FC0
209040
60B040
E26280
E26480
E26480
E24900
E20880
E21040
E3FE40
E20140
E20140
E27940
E27940
E27940
E27940
E07840
F07840
FFFFC0
FE7F80
FC3E00
ENDCHAR
STARTCHAR L
ENCODING 76
SWIDTH 795 0
DWIDTH 19 0
BBX 18 21 1 -3
BITMAP
1F8000
208000
608000
E28000
E28000
E28000
E28000
E28000
E28F80
E29040
E2B040
E27240
E27240
E20240
E20240
E3FE40
E00040
F00040
FFFF80
FFFF00
FFFC00
ENDCHAR
STARTCHAR M
ENCODING 77
SWIDTH 949 0
DWIDTH 23 0
BBX 21 21 1 -3
BITMAP
1F83F8
204208
602408
E328C8
E29948
E29248
E24248
E22448
E29948
E24248
E24248
E24648
E27E48
E26E48
E24E48
E28E48
E08E08
F08E08
FF0FF0
FE0FE0
FC0FC0
ENDCHAR
STARTCHAR N
ENCODING 78
SWIDTH 853 0
DWIDTH 20 0
BBX 18 21 1 -3
BITMAP
1F0FC0
208840
605840
E23940
E31940
E28940
E24940
E22140
E21140
E28940
E24940
E26540
E26340
E27140
E27940
E27940
E07840
F0B840
FF3FC0
FE3F00
FC3E00
ENDCHAR
STARTCHAR O
ENCODING 79
SWIDTH 837 0
DWIDTH 20 0
BBX 18 21 1 -3
BITMAP
07FF00
080080
11FC40
220240
620140
E47140
E47940
E47940
E47940
E47940
E47940
E47940
E47940
E27140
E20240
F1FC40
F00040
FC0180
7FFE00
3FFC00
0FF000
ENDCHAR
STARTCHAR P
ENCODING 80
SWIDTH 782 0
DWIDTH 19 0
BBX 18 21 1 -3
BITMAP
1FFF00
200080
600080
E3F440
E20240
E26240
E27240
E27240
E27240
E20240
E20240
E3F480
E20100
E27E00
E27800
E27000
E08000
F08000
FF0000
FE0000
FC0000
ENDCHAR
STARTCHAR Q
ENCODING 81
SWIDTH 837 0
DWIDTH 20 0
BBX 18 23 1 -5
BITMAP
07FF00
080080
10FC40
230240
620140
E47140
E47940
E47940
E47940
E47940
E47940
E47940
E47940
E47140
E20140
F20240
F1FC40
F82180
7F0600
3F0400
1FF800
07F000
07C000
ENDCHAR
STARTCHAR R
ENCODING 82
SWIDTH 843 0
DWIDTH 20 0
BBX 19 21 1 -3
BITMAP
1FFF00
200080
600080
E3F840
E20440
E27240
E27240
E27280
E20280
E20440
E3FE20
E20120
E27920
E27920
E27920
E2B920
E0B820
F0B820
FF3FC0
FE3F80
FC3F00
ENDCHAR
STARTCHAR S
ENCODING 83
SWIDTH 750 0
DWIDTH 18 0
BBX 17 21 1 -3
BITMAP
07FF00
180100
200100
63F900
E40100
E4FE00
E47C00
E40200
E20100
F1F080
F80C80
FF8480
FFE480
200480
200480
E7F880
E00100
E00200
FFFC00
FFF000
FFE000
ENDCHAR
STARTCHAR T
ENCODING 84
SWIDTH 756 0
DWIDTH 18 0
BBX 18 21 0 -3
BITMAP
1FFFC0
200040
600040
E3FF40
E02040
FF2780
FF2700
FF2600
0F2400
0F2400
0F2400
0F2400
0F2400
0F2400
0F2400
0F2400
0F0400
0F0400
0FF800
0FF000
07E000
ENDCHAR
STARTCHAR U
ENCODING 85
SWIDTH 846 0
DWIDTH 20 0
BBX 18 21 1 -3
BITMAP
1F8FC0
209840
62B940
E27940
E27940
E27940
E27940
E27940
E27940
E27940
E27940
E27940
E27940
E20140
E30240
F0BC40
F00040
FC0180
7FFE00
3FFC00
0FF000
ENDCHAR
STARTCHAR V
ENCODING 86
SWIDTH 830 0
DWIDTH 20 0
BBX 18 21 1 -3
BITMAP
1F8FC0
209040
64B140
E47140
E47140
E47140
E47140
E47140
E47140
E27240
F27240
F22240
F12480
F90480
788880
787100
7C0100
3C0200
3FFC00
1FF800
1FF000
ENDCHAR
STARTCHAR W
ENCODING 87
SWIDTH 931 0
DWIDTH 22 0
BBX 21 21 1 -3
BITMAP
1F83F8
208208
608608
E48E48
E48E48
E48E48
E4BE48
E44248
E44248
E49A48
E42448
E44448
E24248
F29248
F29990
F11890
F83810
783820
7FFFC0
7F3F80
3E3F00
ENDCHAR
STARTCHAR X
ENCODING 88
SWIDTH 837 0
DWIDTH 20 0
BBX 18 21 1 -3
BITMAP
1F8FC0
209840
60B840
E47940
E47140
F23240
F10240
F90480
F88900
7C7100
388880
390480
322240
627140
647940
E47940
E07840
E0F840
FF7FC0
FE7F00
FC7E00
ENDCHAR
STARTCHAR Y
ENCODING 89
SWIDTH 805 0
DWIDTH 19 0
BBX 19 21 0 -3
BITMAP
1FC7E0
304820
725920
727920
F27920
F27920
F23920
F13120
F10220
788440
7C4480
7E3880
3E1100
1F1200
1F1200
0F1200
070200
078200
07FC00
07F000
07E000
ENDCHAR
STARTCHAR Z
ENCODING 90
SWIDTH 760 0
DWIDTH 18 0
BBX 17 21 1 -3
BITMAP
1FFF80
200080
600080
E7F880
E00480
FF8880
FF1100
FE1200
062200
0C4400
088800
111000
212000
623F00
E40080
E3FC80
E00080
E00080
FFFF00
FFFE00
FFFC00
ENDCHAR
STARTCHAR bracketleft
ENCODING 91
SWIDTH 529 0
DWIDTH 13 0
BBX 11 25 1 -5
BITMAP
1FC0
2020
6020
E3A0
E420
E420
E4C0
E480
E480
E480
E480
E480
E480
E480
E480
E480
E480
E4E0
E420
E3A0
E020
E020
FFE0
FF80
FF00
ENDCHAR
STARTCHAR backslash
ENCODING 92
SWIDTH 487 0
DWIDTH 12 0
BBX 12 25 0 -4
BITMAP
1F00
2080
7080
F280
F240
F240
F240
7240
7140
7940
7920
7920
7920
7920
3920
38A0
3CA0
3C90
3C90
3C90
3C10
1C10
1FE0
1FC0
1F80
ENDCHAR
STARTCHAR bracketright
ENCODING 93
SWIDTH 529 0
DWIDTH 13 0
BBX 12 25 0 -5
BITMAP
0FE0
1010
3010
7390
F050
F050
FC50
FC50
7C50
1C50
1C50
1C50
1C50
1C50
1C50
1C50
1C50
1C50
1050
3390
7010
F010
FFE0
FFC0
7F80
ENDCHAR
STARTCHAR asciicircum
ENCODING 94
SWIDTH 814 0
DWIDTH 20 0
BBX 18 16 0 2
BITMAP
01FC00
020200
063100
0C8500
0C8480
1CA480
193280
193280
393240
3A7A40
327940
707840
70F840
7F3FC0
7E3F80
FC3E00
ENDCHAR
STARTCHAR underscore
ENCODING 95
SWIDTH 834 0
DWIDTH 20 0
BBX 18 8 1 -5
BITMAP
1FFF80
200040
63FF40
E00040
E00040
FFFF80
FFFF00
FFFE00
ENDCHAR
STARTCHAR grave
ENCODING 96
SWIDTH 600 0
DWIDTH 14 0
BBX 14 8 0 15
BITMAP
1FF8
3004
73F4
F004
FFE4
FFF8
7FF0
00E0
ENDCHAR
STARTCHAR a
ENCODING 97
SWIDTH 830 0
DWIDTH 20 0
BBX 18 21 1 -3
BITMAP
03FE00
040100
0C0100
18F900
190480
312480
317440
327240
627240
640140
E40140
E3FE40
E40140
E40140
E4F940
E4F940
E0F840
E0F840
FF7F80
FE7F00
F87E00
ENDCHAR
STARTCHAR b
ENCODING 98
SWIDTH 825 0
DWIDTH 20 0
BBX 18 21 1 -3
BITMAP
1FFE00
200100
600080
E3F880
E20480
E27480
E27480
E26480
E20580
E3FE40
E20140
E27940
E27940
E27940
E20140
E3FE40
E00040
F00080
FFFF00
FFFE00
FFF800
ENDCHAR
STARTCHAR c
ENCODING 99
SWIDTH 728 0
DWIDTH 17 0
BBX 16 21 1 -3
BITMAP
07FF
0801
1001
21FD
6201
E47E
E47C
E478
E480
E480
E480
E480
E480
E43F
E201
F1FD
F001
FC01
7FFE
7FFC
1FF8
ENDCHAR
STARTCHAR d
ENCODING 100
SWIDTH 846 0
DWIDTH 20 0
BBX 19 21 1 -3
BITMAP
1FFF00
2000C0
600040
E3FC20
E20220
E20120
E27920
E27920
E27920
E2B920
E2B920
E2B920
E2B920
E27120
E20320
E3FC40
E00040
F00180
FFFE00
FFFC00
FFF800
ENDCHAR
STARTCHAR e
ENCODING 101
SWIDTH 754 0
DWIDTH 18 0
BBX 17 21 1 -3
BITMAP
1FFF80
200080
600080
E3FC80
E20080
E27F00
E27E00
E20200
E20200
E3F200
E20200
E20400
E27800
E27F00
E20080
E3FC80
E00080
F00080
FFFF00
FFFE00
FFF800
ENDCHAR
STARTCHAR f
ENCODING 102
SWIDTH 718 0
DWIDTH 17 0
BBX 16 21 1 -3
BITMAP
1FFF
2001
6001
E3FD
E201
E27F
E27C
E278
E204
E202
E3F2
E202
E27C
E270
E260
E280
E080
F080
FF00
FE00
FC00
ENDCHAR
STARTCHAR g
ENCODING 103
SWIDTH 808 0
DWIDTH 19 0
BBX 18 21 1 -3
BITMAP
07FF00
080080
100080
21FC80
620100
E47E00
E47C00
E47800
E48F80
E49040
E4B040
E47240
E47240
E40240
E20240
F1FE40
F00040
FC0040
7FFF80
7FFF00
1FFE00
ENDCHAR
STARTCHAR h
ENCODING 104
SWIDTH 859 0
DWIDTH 21 0
BBX 19 21 1 -3
BITMAP
1F8FE0
208820
60B820
E2B920
E2B920
E2B920
E27920
E20120
E20120
E3FF20
E20120
E20120
E27920
E27920
E27920
E2B920
E0B820
F0B820
FF3FC0
FE3F80
FC3E00
ENDCHAR
STARTCHAR i
ENCODING 105
SWIDTH 705 0
DWIDTH 17 0
BBX 15 21 1 -3
BITMAP
1FFE
2002
6002
E7FA
E042
F042
FC4C
FC48
1C50
1C50
1C50
1C50
1C50
1C4E
2042
67FA
E002
E002
FFFE
FFF8
FFF0
ENDCHAR
STARTCHAR j
ENCODING 106
SWIDTH 788 0
DWIDTH 19 0
BBX 18 21 0 -3
BITMAP
000FC0
001040
003040
007240
007240
007240
007240
007240
0FF240
107240
307240
727240
F27240
F20240
F10240
F0BC40
F80080
7C0100
7FFE00
3FF800
0FF000
ENDCHAR
STARTCHAR k
ENCODING 107
SWIDTH 846 0
DWIDTH 20 0
BBX 18 21 1 -3
BITMAP
1F8FC0
209040
60B040
E26280
E26480
E26480
E24900
E20880
E21040
E3FE40
E20140
E20140
E27940
E27940
E27940
E27940
E07840
F07840
FFFFC0
FE7F80
FC3E00
ENDCHAR
STARTCHAR l
ENCODING 108
SWIDTH 795 0
DWIDTH 19 0
BBX 18 21 1 -3
BITMAP
1F8000
208000
608000
E28000
E28000
E28000
E28000
E28000
E28F80
E29040
E2B040
E27240
E27240
E20240
E20240
E3FE40
E00040
F00040
FFFF80
FFFF00
FFFC00
ENDCHAR
STARTCHAR m
ENCODING 109
SWIDTH 949 0
DWIDTH 23 0
BBX 21 21 1 -3
BITMAP
1F83F8
204208
602408
E328C8
E29948
E29248
E24248
E22448
E29948
E24248
E24248
E24648
E27E48
E26E48
E24E48
E28E48
E08E08
F08E08
FF0FF0
FE0FE0
FC0FC0
ENDCHAR
STARTCHAR n
ENCODING 110
SWIDTH 853 0
DWIDTH 20 0
BBX 18 21 1 -3
BITMAP
1F0FC0
208840
605840
E23940
E31940
E28940
E24940
E22140
E21140
E28940
E24940
E26540
E26340
E27140
E27940
E27940
E07840
F0B840
FF3FC0
FE3F00
FC3E00
ENDCHAR
STARTCHAR o
ENCODING 111
SWIDTH 837 0
DWIDTH 20 0
BBX 18 21 1 -3
BITMAP
07FF00
080080
11FC40
220240
620140
E47140
E47940
E47940
E47940
E47940
E47940
E47940
E47940
E27140
E20240
F1FC40
F00040
FC0180
7FFE00
3FFC00
0FF000
ENDCHAR
STARTCHAR p
ENCODING 112
SWIDTH 782 0
DWIDTH 19 0
BBX 18 21 1 -3
BITMAP
1FFF00
200080
600080
E3F440
E20240
E26240
E27240
E27240
E27240
E20240
E20240
E3F480
E20100
E27E00
E27800
E27000
E08000
F08000
FF0000
FE0000
FC0000
ENDCHAR
STARTCHAR q
ENCODING 113
SWIDTH 837 0
DWIDTH 20 0
BBX 18 23 1 -5
BITMAP
07FF00
080080
10FC40
230240
620140
E47140
E47940
E47940
E47940
E47940
E47940
E47940
E47940
E47140
E20140
F20240
F1FC40
F82180
7F0600
3F0400
1FF800
07F000
07C000
ENDCHAR
STARTCHAR r
ENCODING 114
SWIDTH 843 0
DWIDTH 20 0
BBX 19 21 1 -3
BITMAP
1FFF00
200080
600080
E3F840
E20440
E27240
E27240
E27280
E20280
E20440
E3FE20
E20120
E27920
E27920
E27920
E2B920
E0B820
F0B820
FF3FC0
FE3F80
FC3F00
ENDCHAR
STARTCHAR s
ENCODING 115
SWIDTH 750 0
DWIDTH 18 0
BBX 17 21 1 -3
BITMAP
07FF00
180100
200100
63F900
E40100
E4FE00
E47C00
E40200
E20100
F1F080
F80C80
FF8480
FFE480
200480
200480
E7F880
E00100
E00200
FFFC00
FFF000
FFE000
ENDCHAR
STARTCHAR t
ENCODING 116
SWIDTH 756 0
DWIDTH 18 0
BBX 18 21 0 -3
BITMAP
1FFFC0
200040
600040
E3FF40
E02040
FF2780
FF2700
FF2600
0F2400
0F2400
0F2400
0F2400
0F2400
0F2400
0F2400
0F2400
0F0400
0F0400
0FF800
0FF000
07E000
ENDCHAR
STARTCHAR u
ENCODING 117
SWIDTH 846 0
DWIDTH 20 0
BBX 18 21 1 -3
BITMAP
1F8FC0
209840
62B940
E27940
E27940
E27940
E27940
E27940
E27940
E27940
E27940
E27940
E27940
E20140
E30240
F0BC40
F00040
FC0180
7FFE00
3FFC00
0FF000
ENDCHAR
STARTCHAR v
ENCODING 118
SWIDTH 830 0
DWIDTH 20 0
BBX 18 21 1 -3
BITMAP
1F8FC0
209040
64B140
E47140
E47140
E47140
E47140
E47140
E47140
E27240
F27240
F22240
F12480
F90480
788880
787100
7C0100
3C0200
3FFC00
1FF800
1FF000
ENDCHAR
STARTCHAR w
ENCODING 119
SWIDTH 931 0
DWIDTH 22 0
BBX 21 21 1 -3
BITMAP
1F83F8
208208
608608
E48E48
E48E48
E48E48
E4BE48
E44248
E44248
E49A48
E42448
E44448
E24248
F29248
F29990
F11890
F83810
783820
7FFFC0
7F3F80
3E3F00
ENDCHAR
STARTCHAR x
ENCODING 120
SWIDTH 837 0
DWIDTH 20 0
BBX 18 21 1 -3
BITMAP
1F8FC0
209840
60B840
E47940
E47140
F23240
F10240
F90480
F88900
7C7100
388880
390480
322240
627140
647940
E47940
E07840
E0F840
FF7FC0
FE7F00
FC7E00
ENDCHAR
STARTCHAR y
ENCODING 121
SWIDTH 805 0
DWIDTH 19 0
BBX 19 21 0 -3
BITMAP
1FC7E0
304820
725920
727920
F27920
F27920
F23920
F13120
F10220
788440
7C4480
7E3880
3E1100
1F1200
1F1200
0F1200
070200
078200
07FC00
07F000
07E000
ENDCHAR
STARTCHAR z
ENCODING 122
SWIDTH 760 0
DWIDTH 18 0
BBX 17 21 1 -3
BITMAP
1FFF80
200080
600080
E7F880
E00480
FF8880
FF1100
FE1200
062200
0C4400
088800
111000
212000
623F00
E40080
E3FC80
E00080
E00080
FFFF00
FFFE00
FFFC00
ENDCHAR
STARTCHAR braceleft
ENCODING 123
SWIDTH 555 0
DWIDTH 13 0
BBX 13 25 0 -5
BITMAP
01B0
0208
0408
08C8
1908
3908
3930
7920
7920
7120
6220
64C0
E240
F120
F920
F920
7920
7910
7908
78C8
7C08
3E08
3FF0
1FE0
0FC0
ENDCHAR
STARTCHAR bar
ENCODING 124
SWIDTH 447 0
DWIDTH 11 0
BBX 9 25 1 -4
BITMAP
1F00
2080
6080
E480
E480
E480
E480
E480
E480
E480
E480
E480
E480
E480
E480
E480
E480
E480
E480
E480
E080
E080
FF00
FE00
FC00
ENDCHAR
STARTCHAR braceright
ENCODING 125
SWIDTH 555 0
DWIDTH 13 0
BBX 13 25 0 -5
BITMAP
0F80
1040
3020
7310
F090
F090
FC90
FC90
7C90
1C90
1C48
1E28
1F28
1C48
0C88
1C90
1C90
1C90
1090
3310
7020
F040
FF80
FF00
7C00
ENDCHAR
STARTCHAR asciitilde
ENCODING 126
SWIDTH 834 0
DWIDTH 20 0
BBX 18 8 1 4
BITMAP
0FF1C0
100E40
23F040
600F40
E00040
FFFF80
FFFE00
E7FC00
ENDCHAR
STARTCHAR uni00A0
ENCODING 160
SWIDTH 325 0
DWIDTH 8 0
BBX 1 1 0 0
BITMAP
00
ENDCHAR
STARTCHAR exclamdown
ENCODING 161
SWIDTH 523 0
DWIDTH 13 0
BBX 10 21 1 -3
BITMAP
1FC0
3040
7040
7240
F040
F040
FF80
F040
7040
7240
7240
7240
7240
7240
7240
7240
7040
F040
FFC0
FF00
7E00
ENDCHAR
STARTCHAR cent
ENCODING 162
SWIDTH 728 0
DWIDTH 17 0
BBX 16 23 1 -4
BITMAP
00F8
0104
0707
0821
11FD
3201
6401
E47E
E47C
E478
E480
E480
E480
E43F
E201
F1FD
F021
FC21
7F06
3F04
1FF8
07E0
07C0
ENDCHAR
STARTCHAR sterling
ENCODING 163
SWIDTH 795 0
DWIDTH 19 0
BBX 19 21 0 -3
BITMAP
03FF00
040100
080100
18FD00
310100
313E00
713C00
610800
611000
67D000
E117C0
E10820
F13820
F13920
F10120
71FF20
700020
700020
7FFFC0
7FFF80
7FFE00
ENDCHAR
STARTCHAR currency
ENCODING 164
SWIDTH 921 0
DWIDTH 22 0
BBX 21 21 1 -3
BITMAP
040040
0A00A0
11FF10
240048
725C90
F98320
F90120
793920
393D20
393D20
393D20
393D20
391920
398320
325C90
240048
70FF10
F9FFA0
FFFFC0
780780
300300
ENDCHAR
STARTCHAR yen
ENCODING 165
SWIDTH 803 0
DWIDTH 19 0
BBX 19 21 0 -3
BITMAP
1FC7E0
304820
705820
F27920
F27920
F27920
F23920
791240
7C8280
7C4480
3E3980
181040
19FE40
381040
381040
3F9380
3F8200
3F8200
07FC00
07F000
07E000
ENDCHAR
STARTCHAR brokenbar
ENCODING 166
SWIDTH 447 0
DWIDTH 11 0
BBX 9 25 1 -4
BITMAP
1F00
2080
6080
E480
E480
E480
E480
E480
E480
E080
F080
FF00
FF00
6080
6080
E480
E480
E480
E480
E480
E480
E080
FF00
FE00
FC00
ENDCHAR
STARTCHAR section
ENCODING 167
SWIDTH 750 0
DWIDTH 18 0
BBX 17 21 1 -3
BITMAP
07FF00
080100
11F900
220100
64FE00
E40400
E40300
E7F900
E4C480
E4E480
F20280
F1FC80
FC0280
FFE280
600480
200480
67F900
E00200
FFFC00
FFF000
FFE000
ENDCHAR
STARTCHAR dieresis
ENCODING 168
SWIDTH 600 0
DWIDTH 14 0
BBX 15 8 0 15
BITMAP
1F7C
2082
6492
E082
E082
FFFC
FFF0
FBE0
ENDCHAR
STARTCHAR copyright
ENCODING 169
SWIDTH 967 0
DWIDTH 23 0
BBX 21 25 1 -4
BITMAP
011800
06D9E0
0B0070
14FF18
2BFFD8
6B80F8
ED3E78
EB4078
EA4FF8
EA5FF8
EA5DF8
EA51F8
EA51F8
EA51F8
EA4FF8
EB3E78
EB0078
EBFFF8
FBFFD8
F4FF18
FB0070
7ED9E0
7FFF80
3FFF00
07FC00
ENDCHAR
STARTCHAR ordfeminine
ENCODING 170
SWIDTH 620 0
DWIDTH 15 0
BBX 15 21 0 -3
BITMAP
07F8
0808
19C4
3A24
3294
32D2
74CA
740A
77F2
F40A
F4CA
F0C2
F1C2
FFFC
FFFC
F002
37FA
7002
FFFC
FFF8
FFF0
ENDCHAR
STARTCHAR guillemotleft
ENCODING 171
SWIDTH 912 0
DWIDTH 22 0
BBX 20 15 1 0
BITMAP
006030
0793D0
081410
1198D0
261310
643230
E4F2C0
E43220
E41210
E391D0
F01810
FE1F10
FFFFF0
7FFFE0
0F8780
ENDCHAR
STARTCHAR logicalnot
ENCODING 172
SWIDTH 834 0
DWIDTH 20 0
BBX 18 14 1 -1
BITMAP
1FFF80
200040
600040
E3FF40
E00140
FFF940
FFF940
FFF940
003940
003840
003840
003F80
003F00
003E00
ENDCHAR
STARTCHAR uni00AD
ENCODING 173
SWIDTH 520 0
DWIDTH 12 0
BBX 12 8 0 3
BITMAP
0FE0
1010
73D0
F010
F010
FFF0
FFC0
FF80
ENDCHAR
STARTCHAR registered
ENCODING 174
SWIDTH 660 0
DWIDTH 16 0
BBX 14 15 1 3
BITMAP
07F0
1FFC
3434
7794
F6D4
F674
F7CC
F6AC
F6AC
F7F4
EBFC
FFC8
FFF0
FFE0
3F80
ENDCHAR
STARTCHAR macron
ENCODING 175
SWIDTH 600 0
DWIDTH 14 0
BBX 14 8 0 15
BITMAP
0FFC
1004
3004
73F4
F004
FFF8
FFF0
7FE0
ENDCHAR
STARTCHAR degree
ENCODING 176
SWIDTH 583 0
DWIDTH 14 0
BBX 14 13 0 5
BITMAP
07F0
0AA8
1414
7414
75D4
F5D4
F5D4
F414
F2A4
F808
7FF0
7FC0
3F80
ENDCHAR
STARTCHAR plusminus
ENCODING 177
SWIDTH 834 0
DWIDTH 20 0
BBX 18 21 1 -3
BITMAP
00F800
010400
030400
072400
072400
1F2780
202040
63FF40
E02040
E02040
FF2780
FF2700
FF2600
1F0780
200040
63FF40
E00040
E00040
FFFF80
FFFF00
FFFE00
ENDCHAR
STARTCHAR twosuperior
ENCODING 178
SWIDTH 585 0
DWIDTH 14 0
BBX 13 16 0 2
BITMAP
0FF0
13E8
3018
7F98
7F18
7C28
09C8
1210
3460
74F8
F408
F3F8
F008
FFF8
FFE0
FFC0
ENDCHAR
STARTCHAR threesuperior
ENCODING 179
SWIDTH 584 0
DWIDTH 14 0
BBX 13 16 1 2
BITMAP
3FE0
6F90
E050
E050
FE50
F060
33D0
7028
7FA8
7F28
6028
6FC8
E010
FFE0
FF80
FF00
ENDCHAR
STARTCHAR acute
ENCODING 180
SWIDTH 600 0
DWIDTH 14 0
BBX 14 9 0 15
BITMAP
0038
0FC4
1014
33E4
7004
F1F8
FFF0
FFC0
6000
ENDCHAR
STARTCHAR mu
ENCODING 181
SWIDTH 813 0
DWIDTH 20 0
BBX 18 20 1 -5
BITMAP
1F0F80
209040
60B040
E47240
E47240
E47240
E47240
E47240
E47240
E47240
E20240
E60640
E5E840
E40080
E40300
E07C00
E07800
FFE000
FE0000
FC0000
ENDCHAR
STARTCHAR paragraph
ENCODING 182
SWIDTH 782 0
DWIDTH 19 0
BBX 18 21 0 -3
BITMAP
07FFC0
080040
100040
31FE40
720140
740140
F40140
F40140
F40140
F20140
F1FE40
F84140
FC4140
7E4940
7E4940
1E4940
0E0840
0E0840
0FFF80
0FFF00
0FBE00
ENDCHAR
STARTCHAR periodcentered
ENCODING 183
SWIDTH 464 0
DWIDTH 11 0
BBX 10 10 1 2
BITMAP
1F80
2040
6040
E240
E240
E040
E040
FF80
FF00
FE00
ENDCHAR
STARTCHAR cedilla
ENCODING 184
SWIDTH 600 0
DWIDTH 14 0
BBX 10 10 2 -6
BITMAP
0780
0840
1940
3240
3240
7080
6080
7F00
FC00
F800
ENDCHAR
STARTCHAR onesuperior
ENCODING 185
SWIDTH 557 0
DWIDTH 13 0
BBX 12 16 1 2
BITMAP
1FC0
2740
6140
E140
F940
F940
F940
3940
3940
3930
2110
6FD0
E010
FFE0
FFC0
FF80
ENDCHAR
STARTCHAR ordmasculine
ENCODING 186
SWIDTH 625 0
DWIDTH 15 0
BBX 15 21 0 -3
BITMAP
07F8
0804
11F2
320A
74CA
F4CA
F4CA
F4CA
F4CA
F4CA
F20A
F1D2
F804
FFF8
7FFC
3002
37FA
7002
FFFC
FFF8
FFF0
ENDCHAR
STARTCHAR guillemotright
ENCODING 187
SWIDTH 912 0
DWIDTH 22 0
BBX 20 15 1 0
BITMAP
1C0E00
23B1C0
607020
E71390
E09050
F09850
FE9E50
F89C50
219090
661310
E03020
E1F0C0
FFFF00
FCFE00
E06000
ENDCHAR
STARTCHAR onequarter
ENCODING 188
SWIDTH 1303 0
DWIDTH 31 0
BBX 30 21 1 -3
BITMAP
1FC3F000
20421000
67461000
E14C9000
F95CA000
F95CBE38
F95CA1C4
395D25D4
395D25D4
393925D4
210925D4
6FC96414
E0096414
FFFA71F4
FFF27014
FFF27FD4
00707FC4
0070FFC4
007F03F8
007E03F0
007C03E0
ENDCHAR
STARTCHAR onehalf
ENCODING 189
SWIDTH 1260 0
DWIDTH 30 0
BBX 29 21 1 -3
BITMAP
1FC3F000
20421000
67461000
E14C9000
F95CA000
F95CAFE0
F95CB010
395D37C8
395D3028
39393F28
21093C28
6FC970C8
E0096730
FFFA68C0
FFF269F0
FFF26808
007067E8
0070E008
007FFFF0
007EFFE0
007CFFC0
ENDCHAR
STARTCHAR threequarters
ENCODING 190
SWIDTH 1313 0
DWIDTH 32 0
BBX 30 21 1 -3
BITMAP
3FE1F000
60121000
EF961000
E05E9000
FE5C9000
F07CAE38
33CC9144
702CB4D4
7F2CB4D4
7FAD34D4
602934D4
6FC934D4
E0193414
FFF973F4
FFFA7814
FF3A7FD4
00707FC4
0070BFC4
007F03F8
007E03F0
007C03E0
ENDCHAR
STARTCHAR questiondown
ENCODING 191
SWIDTH 756 0
DWIDTH 18 0
BBX 18 21 0 -3
BITMAP
007F00
008100
018100
038900
038100
038100
03FE00
030100
0C0100
10F900
330100
720300
727C00
723F80
F20040
F1FE40
F80040
7C0040
7FFF80
7FFF00
1FFE00
ENDCHAR
STARTCHAR Agrave
ENCODING 192
SWIDTH 830 0
DWIDTH 20 0
BBX 18 27 1 -3
BITMAP
038000
047E00
188100
387900
3C0100
3FE100
3FFE00
3C0100
040100
18F900
190480
392480
317440
327240
627240
640140
E40140
E3FE40
E40140
E40140
E4F940
E4F940
E0F840
E0F840
FF7F80
FE7F00
F87E00
ENDCHAR
STARTCHAR Aacute
ENCODING 193
SWIDTH 830 0
DWIDTH 20 0
BBX 18 27 1 -3
BITMAP
001F00
03E100
0C3D00
18C100
380100
3CFE00
3F0200
3C0100
3C0100
08F900
190480
312480
317440
327240
627240
640140
E40140
E3FE40
E40140
E40140
E4F940
E4F940
E0F840
E0F840
FF7F80
FE7F00
F87E00
ENDCHAR
STARTCHAR Acircumflex
ENCODING 194
SWIDTH 830 0
DWIDTH 20 0
BBX 18 27 1 -3
BITMAP
007000
038E00
047100
098D00
180100
38F900
3FFE00
3C0200
3C0100
08F900
190480
392480
317480
327240
727240
640140
E40140
E3FE40
E40140
E40140
E4F940
E4F940
E0F840
E0F840
FF7FC0
FE7F00
F87E00
ENDCHAR
STARTCHAR Atilde
ENCODING 195
SWIDTH 830 0
DWIDTH 20 0
BBX 18 26 1 -3
BITMAP
03FE00
040100
08F100
180900
3C8100
3FFE00
3C0100
3C0100
18F900
190480
392480
317480
327240
627240
640140
E40140
E3FE40
E40140
E40140
E4F940
E4F940
E0F840
E0F840
FF7F80
FE7F00
F87E00
ENDCHAR
STARTCHAR Adieresis
ENCODING 196
SWIDTH 830 0
DWIDTH 20 0
BBX 18 26 1 -3
BITMAP
079F00
082080
192480
382080
382080
3FFF00
3C0200
3C0100
08F900
190480
392480
317480
327240
727240
640140
E40140
E3FE40
E40140
E40140
E4F940
E4F940
E0F840
E0F840
FF7FC0
FE7F00
F87E00
ENDCHAR
STARTCHAR Aring
ENCODING 197
SWIDTH 830 0
DWIDTH 20 0
BBX 18 27 1 -3
BITMAP
01FC00
020200
04F900
090500
197500
397500
397500
3D0500
3CF900
38F900
190480
392480
317480
727240
727240
640140
E40140
E3FE40
E40140
E40140
E4F940
E4F940
E0F840
E0F840
FF7FC0
FE7F00
F87E00
ENDCHAR
STARTCHAR AE
ENCODING 198
SWIDTH 1105 0
DWIDTH 27 0
BBX 25 21 1 -3
BITMAP
03FFFF80
04000080
08000080
18FFFE80
39010080
31313F00
32713E00
72710200
62710200
6401FA00
E4010200
E3FE3E00
E4013C00
E4013F00
E4F10080
E4F1FE80
E0F00080
E0F00080
FF7FFF00
FE7FFE00
F87FFC00
ENDCHAR
STARTCHAR Ccedilla
ENCODING 199
SWIDTH 728 0
DWIDTH 17 0
BBX 16 24 1 -6
BITMAP
07FF
0801
11FD
2201
6401
E47E
E47C
E478
E480
E480
E480
E480
E43F
E401
E201
F1FD
F011
FC21
7F26
3F0C
1E08
0FF0
0FC0
0F80
ENDCHAR
STARTCHAR Egrave
ENCODING 200
SWIDTH 754 0
DWIDTH 18 0
BBX 17 27 1 -3
BITMAP
0F8000
187C00
3BC200
783200
780200
7FFA00
700580
200080
600080
E3FC80
E20080
E27F00
E27E00
E20200
E20200
E3F200
E20200
E20400
E27800
E27F00
E20080
E3FC80
E00080
F00080
FFFF00
FFFE00
FFF800
ENDCHAR
STARTCHAR Eacute
ENCODING 201
SWIDTH 754 0
DWIDTH 18 0
BBX 17 27 1 -3
BITMAP
001E00
07E100
083900
19C100
380300
38FC00
370380
200080
600080
E3FC80
E20080
E27F00
E27E00
E20200
E20200
E3F200
E20200
E20400
E27800
E27F00
E20080
E3FC80
E00080
F00080
FFFF00
FFFE00
FFF800
ENDCHAR
STARTCHAR Ecircumflex
ENCODING 202
SWIDTH 754 0
DWIDTH 18 0
BBX 17 27 1 -3
BITMAP
00F000
070C00
08F200
190A00
384200
7FFE00
700180
600080
600080
E3FC80
E20080
E27F00
E27E00
E20200
E20200
E3F200
E20200
E20400
E27800
E27F00
E20080
E3FC80
E00080
F00080
FFFF00
FFFE00
FFF800
ENDCHAR
STARTCHAR Edieresis
ENCODING 203
SWIDTH 754 0
DWIDTH 18 0
BBX 17 26 1 -3
BITMAP
0F9E00
106100
326500
706100
786100
7FFF00
600080
600080
63FC80
E20080
E27F00
E27E00
E20200
E20200
E3F200
E20200
E20400
E27800
E27F00
E20080
E3FC80
E00080
E00080
FFFF00
FFFE00
FFF800
ENDCHAR
STARTCHAR Igrave
ENCODING 204
SWIDTH 705 0
DWIDTH 17 0
BBX 15 27 1 -3
BITMAP
0F00
10FC
33C2
7032
7002
7FF4
600A
6002
6002
E7FA
E042
F042
FC4C
FC48
1C50
1C50
1C50
1C50
1C50
1C4E
2042
67FA
E002
E002
FFFE
FFF8
FFF0
ENDCHAR
STARTCHAR Iacute
ENCODING 205
SWIDTH 705 0
DWIDTH 17 0
BBX 15 27 1 -3
BITMAP
003C
0FC2
10F2
3302
7004
73F8
6C06
6002
6002
E7FA
E042
F042
FC4C
FC48
1C50
1C50
1C50
1C50
1C50
1C4E
2042
67FA
E002
E002
FFFE
FFF8
FFF0
ENDCHAR
STARTCHAR Icircumflex
ENCODING 206
SWIDTH 705 0
DWIDTH 17 0
BBX 15 27 1 -3
BITMAP
01E0
0E1C
11E2
1212
7082
7FFC
6002
6002
6002
E7FA
E042
F042
FC4C
FC48
1C50
1C50
1C50
1C50
1C50
1C4E
2042
67FA
E002
E002
FFFE
FFF8
FFF0
ENDCHAR
STARTCHAR Idieresis
ENCODING 207
SWIDTH 705 0
DWIDTH 17 0
BBX 15 26 1 -3
BITMAP
1F3C
20C2
64CA
E0C2
E0C2
FFFE
E002
E002
E7FA
E042
F042
FC4C
FC48
1C50
1C50
1C50
1C50
1C50
1C4E
2042
67FA
E002
E002
FFFE
FFF8
FFF0
ENDCHAR
STARTCHAR Eth
ENCODING 208
SWIDTH 856 0
DWIDTH 21 0
BBX 20 21 0 -3
BITMAP
0FFFC0
180020
380010
79FD10
790090
793C90
793C90
610C90
610C90
67CC90
E10C90
E10C90
F93C90
F93C90
F90090
79FD10
780020
780040
7FFF80
7FFE00
7FFC00
ENDCHAR
STARTCHAR Ntilde
ENCODING 209
SWIDTH 853 0
DWIDTH 20 0
BBX 18 26 1 -3
BITMAP
03FF00
040100
0CFD00
1C0100
3C8100
33FEC0
207840
607840
E23940
E31940
E28940
E24940
E22140
E21140
E28940
E24940
E26540
E26340
E27140
E27940
E27940
E07840
F0B840
FF3FC0
FE3F00
FC3E00
ENDCHAR
STARTCHAR Ograve
ENCODING 210
SWIDTH 837 0
DWIDTH 20 0
BBX 18 27 1 -3
BITMAP
038000
0C7E00
1CC100
3C3D00
3C0100
3FFD00
3C0300
100080
11FC40
220240
620140
E47140
E47940
E47940
E47940
E47940
E47940
E47940
E47940
E27140
E20240
F1FC40
F00040
FC0180
7FFE00
3FFC00
0FF000
ENDCHAR
STARTCHAR Oacute
ENCODING 211
SWIDTH 837 0
DWIDTH 20 0
BBX 18 27 1 -3
BITMAP
000F00
03F100
041900
1DE100
3C0100
3CFE00
3F0300
300080
11FC40
220240
620140
E47140
E47940
E47940
E47940
E47940
E47940
E47940
E47940
E27140
E20240
F1FC40
F00040
FC0180
7FFE00
3FFC00
0FF000
ENDCHAR
STARTCHAR Ocircumflex
ENCODING 212
SWIDTH 837 0
DWIDTH 20 0
BBX 18 27 1 -3
BITMAP
007800
038600
04F900
0C0100
1C2100
3FFF00
3C0100
300080
31FC40
220240
620140
E47140
E47940
E47940
E47940
E47940
E47940
E47940
E47940
E27140
E20240
F1FC40
F00040
FC0180
7FFE00
3FFC00
0FF000
ENDCHAR
STARTCHAR Otilde
ENCODING 213
SWIDTH 837 0
DWIDTH 20 0
BBX 18 27 1 -3
BITMAP
03F300
040D00
0C0100
1CF900
3C0100
3C8100
3FFF00
380080
11FC40
220240
620140
E47140
E47940
E47940
E47940
E47940
E47940
E47940
E47940
E27140
E20240
F1FC40
F00040
FC0180
7FFE00
3FFC00
0FF000
ENDCHAR
STARTCHAR Odieresis
ENCODING 214
SWIDTH 837 0
DWIDTH 20 0
BBX 18 27 1 -3
BITMAP
079F00
086080
182080
392480
382080
382080
3FFF00
380180
11FC40
220240
620140
E47140
E47940
E47940
E47940
E47940
E47940
E47940
E47940
E27140
E20240
F1FC40
F00040
FC0180
7FFE00
3FFC00
0FF000
ENDCHAR
STARTCHAR multiply
ENCODING 215
SWIDTH 834 0
DWIDTH 20 0
BBX 18 17 1 -1
BITMAP
030300
048C80
185040
102040
390480
FC8900
7E5200
3E2200
1C5100
088880
112440
307040
78F880
FDFD00
7E7E00
383C00
101000
ENDCHAR
STARTCHAR Oslash
ENCODING 216
SWIDTH 837 0
DWIDTH 20 0
BBX 18 24 1 -4
BITMAP
000780
000840
07F080
080480
11F440
220A40
640940
E4E940
E4D140
E4D540
E4A940
E4A940
E4C940
E45940
E45940
E4B940
E28240
F17440
F900C0
F80100
707E00
7FFC00
7FF000
7C0000
ENDCHAR
STARTCHAR Ugrave
ENCODING 217
SWIDTH 846 0
DWIDTH 20 0
BBX 18 27 1 -3
BITMAP
07C000
083E00
19E100
381900
3C0100
3FE100
207EC0
207840
62B940
E27940
E27940
E27940
E27940
E27940
E27940
E27940
E27940
E27940
E27940
E20140
E30240
F0BC40
F00040
FC0180
7FFE00
3FFC00
0FF000
ENDCHAR
STARTCHAR Uacute
ENCODING 218
SWIDTH 846 0
DWIDTH 20 0
BBX 18 27 1 -3
BITMAP
000F00
03F080
043C80
0CC080
1C0100
1C3E00
13F9C0
205840
62B940
E27940
E27940
E27940
E27940
E27940
E27940
E27940
E27940
E27940
E27940
E20140
E30240
F0BC40
F00040
FC0180
7FFE00
3FFC00
0FF000
ENDCHAR
STARTCHAR Ucircumflex
ENCODING 219
SWIDTH 846 0
DWIDTH 20 0
BBX 18 27 1 -3
BITMAP
007800
038600
04F900
0C0500
1C7900
3FFF00
2078C0
207840
62B940
E27940
E27940
E27940
E27940
E27940
E27940
E27940
E27940
E27940
E27940
E20140
E30240
F0BC40
F00040
FC0180
7FFE00
3FFC00
0FF000
ENDCHAR
STARTCHAR Udieresis
ENCODING 220
SWIDTH 846 0
DWIDTH 20 0
BBX 18 27 1 -3
BITMAP
07DF00
082080
182080
392480
382080
382080
3FFFC0
207840
607840
E2B940
E27940
E27940
E27940
E27940
E27940
E27940
E27940
E27940
E27940
E20140
E30240
F0F440
F00040
FC0180
7FFE00
3FFC00
0FF000
ENDCHAR
STARTCHAR Yacute
ENCODING 221
SWIDTH 805 0
DWIDTH 19 0
BBX 19 27 0 -3
BITMAP
000F00
03F080
041E80
0C6080
1C0080
1C1F00
11F9E0
306820
725920
727920
F27920
F27920
F23920
F13120
F10220
788440
7C4480
7E3880
3E1100
1F1200
1F1200
0F1200
070200
078200
07FC00
07F000
07E000
ENDCHAR
STARTCHAR Thorn
ENCODING 222
SWIDTH 792 0
DWIDTH 19 0
BBX 18 21 1 -3
BITMAP
1F8000
208000
608000
E27F00
E20080
E3F480
E20240
E20240
E27240
E27240
E27240
E26240
E20240
E3F480
E20080
E20300
E07C00
F07800
FFE000
FE0000
FC0000
ENDCHAR
STARTCHAR germandbls
ENCODING 223
SWIDTH 859 0
DWIDTH 21 0
BBX 19 21 1 -3
BITMAP
1FFF00
200080
600080
E3F880
E20480
E20480
E26480
E26480
E26460
E26720
E240A0
E27CA0
E27CA0
E260A0
E240A0
E24F20
E04020
F04040
FFFF80
FFFE00
FDFC00
ENDCHAR
STARTCHAR agrave
ENCODING 224
SWIDTH 830 0
DWIDTH 20 0
BBX 18 27 1 -3
BITMAP
038000
047E00
188100
387900
3C0100
3FE100
3FFE00
3C0100
040100
18F900
190480
392480
317440
327240
627240
640140
E40140
E3FE40
E40140
E40140
E4F940
E4F940
E0F840
E0F840
FF7F80
FE7F00
F87E00
ENDCHAR
STARTCHAR aacute
ENCODING 225
SWIDTH 830 0
DWIDTH 20 0
BBX 18 27 1 -3
BITMAP
001F00
03E100
0C3D00
18C100
380100
3CFE00
3F0200
3C0100
3C0100
08F900
190480
312480
317440
327240
627240
640140
E40140
E3FE40
E40140
E40140
E4F940
E4F940
E0F840
E0F840
FF7F80
FE7F00
F87E00
ENDCHAR
STARTCHAR acircumflex
ENCODING 226
SWIDTH 830 0
DWIDTH 20 0
BBX 18 27 1 -3
BITMAP
007000
038E00
047100
098D00
180100
38F900
3FFE00
3C0200
3C0100
08F900
190480
392480
317480
327240
727240
640140
E40140
E3FE40
E40140
E40140
E4F940
E4F940
E0F840
E0F840
FF7FC0
FE7F00
F87E00
ENDCHAR
STARTCHAR atilde
ENCODING 227
SWIDTH 830 0
DWIDTH 20 0
BBX 18 26 1 -3
BITMAP
03FE00
040100
08F100
180900
3C8100
3FFE00
3C0100
3C0100
18F900
190480
392480
317480
327240
627240
640140
E40140
E3FE40
E40140
E40140
E4F940
E4F940
E0F840
E0F840
FF7F80
FE7F00
F87E00
ENDCHAR
STARTCHAR adieresis
ENCODING 228
SWIDTH 830 0
DWIDTH 20 0
BBX 18 26 1 -3
BITMAP
079F00
082080
192480
382080
382080
3FFF00
3C0200
3C0100
08F900
190480
392480
317480
327240
727240
640140
E40140
E3FE40
E40140
E40140
E4F940
E4F940
E0F840
E0F840
FF7FC0
FE7F00
F87E00
ENDCHAR
STARTCHAR aring
ENCODING 229
SWIDTH 830 0
DWIDTH 20 0
BBX 18 27 1 -3
BITMAP
01FC00
020200
04F900
090500
197500
397500
397500
3D0500
3CF900
38F900
190480
392480
317480
727240
727240
640140
E40140
E3FE40
E40140
E40140
E4F940
E4F940
E0F840
E0F840
FF7FC0
FE7F00
F87E00
ENDCHAR
STARTCHAR ae
ENCODING 230
SWIDTH 1105 0
DWIDTH 27 0
BBX 25 21 1 -3
BITMAP
03FFFF80
04000080
08000080
18FFFE80
39010080
31313F00
32713E00
72710200
62710200
6401FA00
E4010200
E3FE3E00
E4013C00
E4013F00
E4F10080
E4F1FE80
E0F00080
E0F00080
FF7FFF00
FE7FFE00
F87FFC00
ENDCHAR
STARTCHAR ccedilla
ENCODING 231
SWIDTH 728 0
DWIDTH 17 0
BBX 16 24 1 -6
BITMAP
07FF
0801
11FD
2201
6401
E47E
E47C
E478
E480
E480
E480
E480
E43F
E401
E201
F1FD
F011
FC21
7F26
3F0C
1E08
0FF0
0FC0
0F80
ENDCHAR
STARTCHAR egrave
ENCODING 232
SWIDTH 754 0
DWIDTH 18 0
BBX 17 27 1 -3
BITMAP
0F8000
187C00
3BC200
783200
780200
7FFA00
700580
200080
600080
E3FC80
E20080
E27F00
E27E00
E20200
E20200
E3F200
E20200
E20400
E27800
E27F00
E20080
E3FC80
E00080
F00080
FFFF00
FFFE00
FFF800
ENDCHAR
STARTCHAR eacute
ENCODING 233
SWIDTH 754 0
DWIDTH 18 0
BBX 17 27 1 -3
BITMAP
001E00
07E100
083900
19C100
380300
38FC00
370380
200080
600080
E3FC80
E20080
E27F00
E27E00
E20200
E20200
E3F200
E20200
E20400
E27800
E27F00
E20080
E3FC80
E00080
F00080
FFFF00
FFFE00
FFF800
ENDCHAR
STARTCHAR ecircumflex
ENCODING 234
SWIDTH 754 0
DWIDTH 18 0
BBX 17 27 1 -3
BITMAP
00F000
070C00
08F200
190A00
384200
7FFE00
700180
600080
600080
E3FC80
E20080
E27F00
E27E00
E20200
E20200
E3F200
E20200
E20400
E27800
E27F00
E20080
E3FC80
E00080
F00080
FFFF00
FFFE00
FFF800
ENDCHAR
STARTCHAR edieresis
ENCODING 235
SWIDTH 754 0
DWIDTH 18 0
BBX 17 26 1 -3
BITMAP
0F9E00
106100
326500
706100
786100
7FFF00
600080
600080
63FC80
E20080
E27F00
E27E00
E20200
E20200
E3F200
E20200
E20400
E27800
E27F00
E20080
E3FC80
E00080
E00080
FFFF00
FFFE00
FFF800
ENDCHAR
STARTCHAR igrave
ENCODING 236
SWIDTH 705 0
DWIDTH 17 0
BBX 15 27 1 -3
BITMAP
0F00
10FC
33C2
7032
7002
7FF4
600A
6002
6002
E7FA
E042
F042
FC4C
FC48
1C50
1C50
1C50
1C50
1C50
1C4E
2042
67FA
E002
E002
FFFE
FFF8
FFF0
ENDCHAR
STARTCHAR iacute
ENCODING 237
SWIDTH 705 0
DWIDTH 17 0
BBX 15 27 1 -3
BITMAP
003C
0FC2
10F2
3302
7004
73F8
6C06
6002
6002
E7FA
E042
F042
FC4C
FC48
1C50
1C50
1C50
1C50
1C50
1C4E
2042
67FA
E002
E002
FFFE
FFF8
FFF0
ENDCHAR
STARTCHAR icircumflex
ENCODING 238
SWIDTH 705 0
DWIDTH 17 0
BBX 15 27 1 -3
BITMAP
01E0
0E1C
11E2
1212
7082
7FFC
6002
6002
6002
E7FA
E042
F042
FC4C
FC48
1C50
1C50
1C50
1C50
1C50
1C4E
2042
67FA
E002
E002
FFFE
FFF8
FFF0
ENDCHAR
STARTCHAR idieresis
ENCODING 239
SWIDTH 705 0
DWIDTH 17 0
BBX 15 26 1 -3
BITMAP
1F3C
20C2
64CA
E0C2
E0C2
FFFE
E002
E002
E7FA
E042
F042
FC4C
FC48
1C50
1C50
1C50
1C50
1C50
1C4E
2042
67FA
E002
E002
FFFE
FFF8
FFF0
ENDCHAR
STARTCHAR eth
ENCODING 240
SWIDTH 856 0
DWIDTH 21 0
BBX 20 21 0 -3
BITMAP
0FFFC0
180020
380010
79FD10
790090
793C90
793C90
610C90
610C90
67CC90
E10C90
E10C90
F93C90
F93C90
F90090
79FD10
780020
780040
7FFF80
7FFE00
7FFC00
ENDCHAR
STARTCHAR ntilde
ENCODING 241
SWIDTH 853 0
DWIDTH 20 0
BBX 18 26 1 -3
BITMAP
03FF00
040100
0CFD00
1C0100
3C8100
33FEC0
207840
607840
E23940
E31940
E28940
E24940
E22140
E21140
E28940
E24940
E26540
E26340
E27140
E27940
E27940
E07840
F0B840
FF3FC0
FE3F00
FC3E00
ENDCHAR
STARTCHAR ograve
ENCODING 242
SWIDTH 837 0
DWIDTH 20 0
BBX 18 27 1 -3
BITMAP
038000
0C7E00
1CC100
3C3D00
3C0100
3FFD00
3C0300
100080
11FC40
220240
620140
E47140
E47940
E47940
E47940
E47940
E47940
E47940
E47940
E27140
E20240
F1FC40
F00040
FC0180
7FFE00
3FFC00
0FF000
ENDCHAR
STARTCHAR oacute
ENCODING 243
SWIDTH 837 0
DWIDTH 20 0
BBX 18 27 1 -3
BITMAP
000F00
03F100
041900
1DE100
3C0100
3CFE00
3F0300
300080
11FC40
220240
620140
E47140
E47940
E47940
E47940
E47940
E47940
E47940
E47940
E27140
E20240
F1FC40
F00040
FC0180
7FFE00
3FFC00
0FF000
ENDCHAR
STARTCHAR ocircumflex
ENCODING 244
SWIDTH 837 0
DWIDTH 20 0
BBX 18 27 1 -3
BITMAP
007800
038600
04F900
0C0100
1C2100
3FFF00
3C0100
300080
31FC40
220240
620140
E47140
E47940
E47940
E47940
E47940
E47940
E47940
E47940
E27140
E20240
F1FC40
F00040
FC0180
7FFE00
3FFC00
0FF000
ENDCHAR
STARTCHAR otilde
ENCODING 245
SWIDTH 837 0
DWIDTH 20 0
BBX 18 27 1 -3
BITMAP
03F300
040D00
0C0100
1CF900
3C0100
3C8100
3FFF00
380080
11FC40
220240
620140
E47140
E47940
E47940
E47940
E47940
E47940
E47940
E47940
E27140
E20240
F1FC40
F00040
FC0180
7FFE00
3FFC00
0FF000
ENDCHAR
STARTCHAR odieresis
ENCODING 246
SWIDTH 837 0
DWIDTH 20 0
BBX 18 27 1 -3
BITMAP
079F00
086080
182080
392480
382080
382080
3FFF00
380180
11FC40
220240
620140
E47140
E47940
E47940
E47940
E47940
E47940
E47940
E47940
E27140
E20240
F1FC40
F00040
FC0180
7FFE00
3FFC00
0FF000
ENDCHAR
STARTCHAR divide
ENCODING 247
SWIDTH 834 0
DWIDTH 20 0
BBX 18 19 1 -2
BITMAP
00F800
010400
030400
072400
0F0400
0F0400
1FFF80
200040
63FF40
E00040
FFFFC0
FF0700
FF0600
072400
0F0400
0F0400
0FF800
0FF000
07C000
ENDCHAR
STARTCHAR oslash
ENCODING 248
SWIDTH 837 0
DWIDTH 20 0
BBX 18 24 1 -4
BITMAP
000780
000840
07F080
080480
11F440
220A40
640940
E4E940
E4D140
E4D540
E4A940
E4A940
E4C940
E45940
E45940
E4B940
E28240
F17440
F900C0
F80100
707E00
7FFC00
7FF000
7C0000
ENDCHAR
STARTCHAR ugrave
ENCODING 249
SWIDTH 846 0
DWIDTH 20 0
BBX 18 27 1 -3
BITMAP
07C000
083E00
19E100
381900
3C0100
3FE100
207EC0
207840
62B940
E27940
E27940
E27940
E27940
E27940
E27940
E27940
E27940
E27940
E27940
E20140
E30240
F0BC40
F00040
FC0180
7FFE00
3FFC00
0FF000
ENDCHAR
STARTCHAR uacute
ENCODING 250
SWIDTH 846 0
DWIDTH 20 0
BBX 18 27 1 -3
BITMAP
000F00
03F080
043C80
0CC080
1C0100
1C3E00
13F9C0
205840
62B940
E27940
E27940
E27940
E27940
E27940
E27940
E27940
E27940
E27940
E27940
E20140
E30240
F0BC40
F00040
FC0180
7FFE00
3FFC00
0FF000
ENDCHAR
STARTCHAR ucircumflex
ENCODING 251
SWIDTH 846 0
DWIDTH 20 0
BBX 18 27 1 -3
BITMAP
007800
038600
04F900
0C0500
1C7900
3FFF00
2078C0
207840
62B940
E27940
E27940
E27940
E27940
E27940
E27940
E27940
E27940
E27940
E27940
E20140
E30240
F0BC40
F00040
FC0180
7FFE00
3FFC00
0FF000
ENDCHAR
STARTCHAR udieresis
ENCODING 252
SWIDTH 846 0
DWIDTH 20 0
BBX 18 27 1 -3
BITMAP
07DF00
082080
182080
392480
382080
382080
3FFFC0
207840
607840
E2B940
E27940
E27940
E27940
E27940
E27940
E27940
E27940
E27940
E27940
E20140
E30240
F0F440
F00040
FC0180
7FFE00
3FFC00
0FF000
ENDCHAR
STARTCHAR yacute
ENCODING 253
SWIDTH 805 0
DWIDTH 19 0
BBX 19 27 0 -3
BITMAP
000F00
03F080
041E80
0C6080
1C0080
1C1F00
11F9E0
306820
725920
727920
F27920
F27920
F23920
F13120
F10220
788440
7C4480
7E3880
3E1100
1F1200
1F1200
0F1200
070200
078200
07FC00
07F000
07E000
ENDCHAR
STARTCHAR thorn
ENCODING 254
SWIDTH 792 0
DWIDTH 19 0
BBX 18 21 1 -3
BITMAP
1F8000
208000
608000
E27F00
E20080
E3F480
E20240
E20240
E27240
E27240
E27240
E26240
E20240
E3F480
E20080
E20300
E07C00
F07800
FFE000
FE0000
FC0000
ENDCHAR
STARTCHAR ydieresis
ENCODING 255
SWIDTH 805 0
DWIDTH 19 0
BBX 19 26 0 -3
BITMAP
03EF80
041080
1C9280
3C1080
3C3080
3FFFE0
307820
307820
727920
F27920
F27920
F27920
F23120
F11220
F88240
7C4480
7C3880
3E1100
1F1200
1F1200
0F1200
070200
078200
07FC00
07F000
07E000
ENDCHAR
STARTCHAR Amacron
ENCODING 256
SWIDTH 830 0
DWIDTH 20 0
BBX 18 26 1 -3
BITMAP
03FE00
040100
08F900
380100
3C0100
3FFE00
3C0200
3C0100
08F900
190480
392480
317480
327240
727240
640140
E40140
E3FE40
E40140
E40140
E4F940
E4F940
E0F840
E0F840
FF7FC0
FE7F00
F87E00
ENDCHAR
STARTCHAR amacron
ENCODING 257
SWIDTH 830 0
DWIDTH 20 0
BBX 18 26 1 -3
BITMAP
03FE00
040100
08F900
380100
3C0100
3FFE00
3C0200
3C0100
08F900
190480
392480
317480
327240
727240
640140
E40140
E3FE40
E40140
E40140
E4F940
E4F940
E0F840
E0F840
FF7FC0
FE7F00
F87E00
ENDCHAR
STARTCHAR Abreve
ENCODING 258
SWIDTH 830 0
DWIDTH 20 0
BBX 18 27 1 -3
BITMAP
078F00
085100
197500
390500
3CF900
3E0600
3FFE00
3C0100
0C0100
08F900
190480
392480
317440
327240
627240
640140
E40140
E3FE40
E40140
E40140
E4F940
E4F940
E0F840
E0F840
FF7F80
FE7F00
F87E00
ENDCHAR
STARTCHAR abreve
ENCODING 259
SWIDTH 830 0
DWIDTH 20 0
BBX 18 27 1 -3
BITMAP
078F00
085100
197500
390500
3CF900
3E0600
3FFE00
3C0100
0C0100
08F900
190480
392480
317440
327240
627240
640140
E40140
E3FE40
E40140
E40140
E4F940
E4F940
E0F840
E0F840
FF7F80
FE7F00
F87E00
ENDCHAR
STARTCHAR Aogonek
ENCODING 260
SWIDTH 830 0
DWIDTH 20 0
BBX 18 26 1 -8
BITMAP
03FE00
040100
0C0100
18F900
190480
312480
317440
327240
627240
640140
E40140
E3FE40
E40140
E40140
E4F940
E4F940
E0FA40
E0F240
FF7280
FE72C0
F87340
007040
007840
007F80
007F00
003E00
ENDCHAR
STARTCHAR aogonek
ENCODING 261
SWIDTH 830 0
DWIDTH 20 0
BBX 18 26 1 -8
BITMAP
03FE00
040100
0C0100
18F900
190480
312480
317440
327240
627240
640140
E40140
E3FE40
E40140
E40140
E4F940
E4F940
E0FA40
E0F240
FF7280
FE72C0
F87340
007040
007840
007F80
007F00
003E00
ENDCHAR
STARTCHAR Cacute
ENCODING 262
SWIDTH 728 0
DWIDTH 17 0
BBX 16 27 1 -3
BITMAP
000F
03F1
043D
1CC1
3C01
3CFE
3F03
3801
3001
11FD
2201
647E
E47C
E478
E480
E480
E480
E480
E480
E43F
E201
F1FD
F001
FC01
7FFE
7FFC
1FF8
ENDCHAR
STARTCHAR cacute
ENCODING 263
SWIDTH 728 0
DWIDTH 17 0
BBX 16 27 1 -3
BITMAP
000F
03F1
043D
1CC1
3C01
3CFE
3F03
3801
3001
11FD
2201
647E
E47C
E478
E480
E480
E480
E480
E480
E43F
E201
F1FD
F001
FC01
7FFE
7FFC
1FF8
ENDCHAR
STARTCHAR Ccircumflex
ENCODING 264
SWIDTH 728 0
DWIDTH 17 0
BBX 16 27 1 -3
BITMAP
00F0
070E
08F1
0909
3861
3BFE
3E01
3801
3001
11FD
2201
647E
E47C
E478
E480
E480
E480
E480
E480
E43F
E201
F1FD
F001
FC01
7FFE
7FFC
1FF8
ENDCHAR
STARTCHAR ccircumflex
ENCODING 265
SWIDTH 728 0
DWIDTH 17 0
BBX 16 27 1 -3
BITMAP
00F0
070E
08F1
0909
3861
3BFE
3E01
3801
3001
11FD
2201
647E
E47C
E478
E480
E480
E480
E480
E480
E43F
E201
F1FD
F001
FC01
7FFE
7FFC
1FF8
ENDCHAR
STARTCHAR Cdotaccent
ENCODING 266
SWIDTH 728 0
DWIDTH 17 0
BBX 16 27 1 -3
BITMAP
00F8
0104
0704
0F24
0F04
0F08
0EF7
0801
1001
21FD
6201
E47E
E47C
E478
E480
E480
E480
E480
E480
E43F
E201
F1FD
F001
FC01
7FFE
7FFC
1FF8
ENDCHAR
STARTCHAR cdotaccent
ENCODING 267
SWIDTH 728 0
DWIDTH 17 0
BBX 16 27 1 -3
BITMAP
00F8
0104
0704
0F24
0F04
0F08
0EF7
0801
1001
21FD
6201
E47E
E47C
E478
E480
E480
E480
E480
E480
E43F
E201
F1FD
F001
FC01
7FFE
7FFC
1FF8
ENDCHAR
STARTCHAR Ccaron
ENCODING 268
SWIDTH 728 0
DWIDTH 17 0
BBX 16 27 1 -3
BITMAP
070E
08F1
1909
38F1
3C02
3F9C
3E67
1801
1001
21FD
6201
E47E
E47C
E478
E480
E480
E480
E480
E480
E43F
E201
F1FD
F001
FC01
7FFE
7FFC
1FF8
ENDCHAR
STARTCHAR ccaron
ENCODING 269
SWIDTH 728 0
DWIDTH 17 0
BBX 16 27 1 -3
BITMAP
070E
08F1
1909
38F1
3C02
3F9C
3E67
1801
1001
21FD
6201
E47E
E47C
E478
E480
E480
E480
E480
E480
E43F
E201
F1FD
F001
FC01
7FFE
7FFC
1FF8
ENDCHAR
STARTCHAR Dcaron
ENCODING 270
SWIDTH 846 0
DWIDTH 20 0
BBX 19 27 1 -3
BITMAP
070700
04F900
1C8500
3C7900
3C0300
3FDC00
302380
200040
600040
E3FC20
E20220
E20120
E27920
E27920
E27920
E2B920
E2B920
E2B920
E2B920
E27120
E20320
E3FC40
E00040
F00180
FFFE00
FFFC00
FFF800
ENDCHAR
STARTCHAR dcaron
ENCODING 271
SWIDTH 846 0
DWIDTH 20 0
BBX 19 27 1 -3
BITMAP
070700
04F900
1C8500
3C7900
3C0300
3FDC00
302380
200040
600040
E3FC20
E20220
E20120
E27920
E27920
E27920
E2B920
E2B920
E2B920
E2B920
E27120
E20320
E3FC40
E00040
F00180
FFFE00
FFFC00
FFF800
ENDCHAR
STARTCHAR Dcroat
ENCODING 272
SWIDTH 856 0
DWIDTH 21 0
BBX 20 21 0 -3
BITMAP
0FFFC0
180020
380010
79FD10
790090
793C90
793C90
610C90
610C90
67CC90
E10C90
E10C90
F93C90
F93C90
F90090
79FD10
780020
780040
7FFF80
7FFE00
7FFC00
ENDCHAR
STARTCHAR dcroat
ENCODING 273
SWIDTH 856 0
DWIDTH 21 0
BBX 20 21 0 -3
BITMAP
0FFFC0
180020
380010
79FD10
790090
793C90
793C90
610C90
610C90
67CC90
E10C90
E10C90
F93C90
F93C90
F90090
79FD10
780020
780040
7FFF80
7FFE00
7FFC00
ENDCHAR
STARTCHAR Emacron
ENCODING 274
SWIDTH 754 0
DWIDTH 18 0
BBX 17 26 1 -3
BITMAP
07FC00
080200
19FA00
380200
780200
77FD80
600080
200080
E3FC80
E20080
E27F00
E27E00
E20200
E20200
E3F200
E20200
E20400
E27800
E27F00
E20080
E3FC80
E00080
F00080
FFFF00
FFFE00
FFF800
ENDCHAR
STARTCHAR emacron
ENCODING 275
SWIDTH 754 0
DWIDTH 18 0
BBX 17 26 1 -3
BITMAP
07FC00
080200
19FA00
380200
780200
77FD80
600080
200080
E3FC80
E20080
E27F00
E27E00
E20200
E20200
E3F200
E20200
E20400
E27800
E27F00
E20080
E3FC80
E00080
F00080
FFFF00
FFFE00
FFF800
ENDCHAR
STARTCHAR Ebreve
ENCODING 276
SWIDTH 754 0
DWIDTH 18 0
BBX 17 27 1 -3
BITMAP
070E00
08B100
1A6500
390500
386A00
3F0400
30FB80
200080
600080
E3FC80
E20080
E27F00
E27E00
E20200
E20200
E3F200
E20200
E20400
E27800
E27F00
E20080
E3FC80
E00080
F00080
FFFF00
FFFE00
FFF800
ENDCHAR
STARTCHAR ebreve
ENCODING 277
SWIDTH 754 0
DWIDTH 18 0
BBX 17 27 1 -3
BITMAP
070E00
08B100
1A6500
390500
386A00
3F0400
30FB80
200080
600080
E3FC80
E20080
E27F00
E27E00
E20200
E20200
E3F200
E20200
E20400
E27800
E27F00
E20080
E3FC80
E00080
F00080
FFFF00
FFFE00
FFF800
ENDCHAR
STARTCHAR Edotaccent
ENCODING 278
SWIDTH 754 0
DWIDTH 18 0
BBX 17 27 1 -3
BITMAP
01F000
020800
060800
0E4800
1E0800
1E0800
11F780
200080
600080
E3FC80
E20080
E27F00
E27E00
E20200
E20200
E3F200
E20200
E20400
E27800
E27F00
E20080
E3FC80
E00080
F00080
FFFF00
FFFE00
FFF800
ENDCHAR
STARTCHAR edotaccent
ENCODING 279
SWIDTH 754 0
DWIDTH 18 0
BBX 17 27 1 -3
BITMAP
01F000
020800
060800
0E4800
1E0800
1E0800
11F780
200080
600080
E3FC80
E20080
E27F00
E27E00
E20200
E20200
E3F200
E20200
E20400
E27800
E27F00
E20080
E3FC80
E00080
F00080
FFFF00
FFFE00
FFF800
ENDCHAR
STARTCHAR Eogonek
ENCODING 280
SWIDTH 754 0
DWIDTH 18 0
BBX 17 26 1 -8
BITMAP
1FFF80
200080
600080
E3FC80
E20080
E27F00
E27E00
E20200
E20200
E3F200
E20200
E20600
E27800
E27F00
E20080
E3FC80
E00880
F00880
FFE900
FFCB00
FFCC80
01C080
01E080
01FF00
01FE00
00F800
ENDCHAR
STARTCHAR eogonek
ENCODING 281
SWIDTH 754 0
DWIDTH 18 0
BBX 17 26 1 -8
BITMAP
1FFF80
200080
600080
E3FC80
E20080
E27F00
E27E00
E20200
E20200
E3F200
E20200
E20600
E27800
E27F00
E20080
E3FC80
E00880
F00880
FFE900
FFCB00
FFCC80
01C080
01E080
01FF00
01FE00
00F800
ENDCHAR
STARTCHAR Ecaron
ENCODING 282
SWIDTH 754 0
DWIDTH 18 0
BBX 17 27 1 -3
BITMAP
070E00
08F100
190900
38F100
3C0200
3F9C00
306780
200080
600080
E3FC80
E20080
E27F00
E27E00
E20200
E20200
E3F200
E20200
E20400
E27800
E27F00
E20080
E3FC80
E00080
F00080
FFFF00
FFFE00
FFF800
ENDCHAR
STARTCHAR ecaron
ENCODING 283
SWIDTH 754 0
DWIDTH 18 0
BBX 17 27 1 -3
BITMAP
070E00
08F100
190900
38F100
3C0200
3F9C00
306780
200080
600080
E3FC80
E20080
E27F00
E27E00
E20200
E20200
E3F200
E20200
E20400
E27800
E27F00
E20080
E3FC80
E00080
F00080
FFFF00
FFFE00
FFF800
ENDCHAR
STARTCHAR Gcircumflex
ENCODING 284
SWIDTH 808 0
DWIDTH 19 0
BBX 18 27 1 -3
BITMAP
007800
018600
067900
0C8480
1C0080
1C7880
1FFF00
1C0080
100080
11FC80
220080
647F00
E47C00
E47800
E48F80
E49040
E4B040
E47240
E47240
E40240
E20240
F1FE40
F00040
FC0040
7FFF80
7FFF00
1FFE00
ENDCHAR
STARTCHAR gcircumflex
ENCODING 285
SWIDTH 808 0
DWIDTH 19 0
BBX 18 27 1 -3
BITMAP
007800
018600
067900
0C8480
1C0080
1C7880
1FFF00
1C0080
100080
11FC80
220080
647F00
E47C00
E47800
E48F80
E49040
E4B040
E47240
E47240
E40240
E20240
F1FE40
F00040
FC0040
7FFF80
7FFF00
1FFE00
ENDCHAR
STARTCHAR Gbreve
ENCODING 286
SWIDTH 808 0
DWIDTH 19 0
BBX 18 27 1 -3
BITMAP
038F00
045080
1D3280
3D0500
3CF900
3F0200
3EFD00
180080
100080
21FC80
620100
E47E00
E47C00
E47800
E48F80
E49040
E4B040
E47240
E47240
E40240
E20240
F1FE40
F00040
FC0040
7FFF80
7FFF00
1FFE00
ENDCHAR
STARTCHAR gbreve
ENCODING 287
SWIDTH 808 0
DWIDTH 19 0
BBX 18 27 1 -3
BITMAP
038F00
045080
1D3280
3D0500
3CF900
3F0200
3EFD00
180080
100080
21FC80
620100
E47E00
E47C00
E47800
E48F80
E49040
E4B040
E47240
E47240
E40240
E20240
F1FE40
F00040
FC0040
7FFF80
7FFF00
1FFE00
ENDCHAR
STARTCHAR Gdotaccent
ENCODING 288
SWIDTH 808 0
DWIDTH 19 0
BBX 18 27 1 -3
BITMAP
00F800
010400
030400
072400
070400
070400
06FB00
080080
100080
21FC80
620100
E47E00
E47C00
E47800
E48F80
E49040
E4B040
E47240
E47240
E40240
E20240
F1FE40
F00040
FC0040
7FFF80
7FFF00
1FFE00
ENDCHAR
STARTCHAR gdotaccent
ENCODING 289
SWIDTH 808 0
DWIDTH 19 0
BBX 18 27 1 -3
BITMAP
00F800
010400
030400
072400
070400
070400
06FB00
080080
100080
21FC80
620100
E47E00
E47C00
E47800
E48F80
E49040
E4B040
E47240
E47240
E40240
E20240
F1FE40
F00040
FC0040
7FFF80
7FFF00
1FFE00
ENDCHAR
STARTCHAR Gcommaaccent
ENCODING 290
SWIDTH 808 0
DWIDTH 19 0
BBX 18 30 1 -12
BITMAP
07FF00
080080
100080
21FC80
620100
E47E00
E47C00
E47800
E48F80
E49040
E4B040
E47240
E47240
E40240
E20240
F1FE40
F00040
FC0040
7FFF80
7F0700
1F0200
077400
070C00
070C00
07F400
076400
030800
07F000
07E000
078000
ENDCHAR
STARTCHAR gcommaaccent
ENCODING 291
SWIDTH 808 0
DWIDTH 19 0
BBX 18 30 1 -12
BITMAP
07FF00
080080
100080
21FC80
620100
E47E00
E47C00
E47800
E48F80
E49040
E4B040
E47240
E47240
E40240
E20240
F1FE40
F00040
FC0040
7FFF80
7F0700
1F0200
077400
070C00
070C00
07F400
076400
030800
07F000
07E000
078000
ENDCHAR
STARTCHAR Hcircumflex
ENCODING 292
SWIDTH 859 0
DWIDTH 21 0
BBX 19 27 1 -3
BITMAP
007800
038600
047900
0C8500
1C2100
3FFF00
3078E0
207820
609820
E2B920
E2B920
E2B920
E27920
E20120
E20120
E3FF20
E20120
E20120
E27920
E27920
E27920
E2B920
E0B820
F0B820
FF3FC0
FE3F80
FC3E00
ENDCHAR
STARTCHAR hcircumflex
ENCODING 293
SWIDTH 859 0
DWIDTH 21 0
BBX 19 27 1 -3
BITMAP
007800
038600
047900
0C8500
1C2100
3FFF00
3078E0
207820
609820
E2B920
E2B920
E2B920
E27920
E20120
E20120
E3FF20
E20120
E20120
E27920
E27920
E27920
E2B920
E0B820
F0B820
FF3FC0
FE3F80
FC3E00
ENDCHAR
STARTCHAR Hbar
ENCODING 294
SWIDTH 879 0
DWIDTH 21 0
BBX 21 21 0 -3
BITMAP
0FC3F0
182410
382C10
793C90
710088
63FFE8
E10088
F10088
F93C90
F93C90
F90090
790090
79FF90
790090
790090
793C90
783C10
783C10
7FDFE0
7F9FC0
7E1F80
ENDCHAR
STARTCHAR hbar
ENCODING 295
SWIDTH 879 0
DWIDTH 21 0
BBX 21 21 0 -3
BITMAP
0FC3F0
182410
382C10
793C90
710088
63FFE8
E10088
F10088
F93C90
F93C90
F90090
790090
79FF90
790090
790090
793C90
783C10
783C10
7FDFE0
7F9FC0
7E1F80
ENDCHAR
STARTCHAR Itilde
ENCODING 296
SWIDTH 705 0
DWIDTH 17 0
BBX 15 26 1 -3
BITMAP
0FFC
1002
33E2
7012
7784
687A
6002
6002
E7FA
E042
F042
FC4C
FC48
1C50
1C50
1C50
1C50
1C50
1C4E
2042
67FA
E002
E002
FFFE
FFF8
FFF0
ENDCHAR
STARTCHAR itilde
ENCODING 297
SWIDTH 705 0
DWIDTH 17 0
BBX 15 26 1 -3
BITMAP
0FFC
1002
33E2
7012
7784
687A
6002
6002
E7FA
E042
F042
FC4C
FC48
1C50
1C50
1C50
1C50
1C50
1C4E
2042
67FA
E002
E002
FFFE
FFF8
FFF0
ENDCHAR
STARTCHAR Imacron
ENCODING 298
SWIDTH 705 0
DWIDTH 17 0
BBX 15 26 1 -3
BITMAP
0FFC
1002
33F2
7002
7004
7FFE
6002
6002
E7FA
E042
F042
FC4C
FC48
1C50
1C50
1C50
1C50
1C50
1C4E
2042
67FA
E002
E002
FFFE
FFF8
FFF0
ENDCHAR
STARTCHAR imacron
ENCODING 299
SWIDTH 705 0
DWIDTH 17 0
BBX 15 26 1 -3
BITMAP
0FFC
1002
33F2
7002
7004
7FFE
6002
6002
E7FA
E042
F042
FC4C
FC48
1C50
1C50
1C50
1C50
1C50
1C4E
2042
67FA
E002
E002
FFFE
FFF8
FFF0
ENDCHAR
STARTCHAR Ibreve
ENCODING 300
SWIDTH 705 0
DWIDTH 17 0
BBX 15 27 1 -3
BITMAP
0E3C
1142
34CA
740A
F2D4
FC08
63F6
6002
6002
E7FA
E042
F042
FC4C
FC48
1C50
1C50
1C50
1C50
1C50
1C4E
2042
67FA
E002
E002
FFFE
FFF8
FFF0
ENDCHAR
STARTCHAR ibreve
ENCODING 301
SWIDTH 705 0
DWIDTH 17 0
BBX 15 27 1 -3
BITMAP
0E3C
1142
34CA
740A
F2D4
FC08
63F6
6002
6002
E7FA
E042
F042
FC4C
FC48
1C50
1C50
1C50
1C50
1C50
1C4E
2042
67FA
E002
E002
FFFE
FFF8
FFF0
ENDCHAR
STARTCHAR Iogonek
ENCODING 302
SWIDTH 705 0
DWIDTH 17 0
BBX 15 26 1 -8
BITMAP
1FFE
2002
6002
E7FA
E042
F042
FC4C
FC48
1C50
1C50
1C50
1C50
1C50
1C4C
2042
67FA
E012
E012
FF96
FF96
FF9A
0382
03C2
03FC
03F8
01F0
ENDCHAR
STARTCHAR iogonek
ENCODING 303
SWIDTH 705 0
DWIDTH 17 0
BBX 15 26 1 -8
BITMAP
1FFE
2002
6002
E7FA
E042
F042
FC4C
FC48
1C50
1C50
1C50
1C50
1C50
1C4C
2042
67FA
E012
E012
FF96
FF96
FF9A
0382
03C2
03FC
03F8
01F0
ENDCHAR
STARTCHAR Idotaccent
ENCODING 304
SWIDTH 705 0
DWIDTH 17 0
BBX 15 27 1 -3
BITMAP
03E0
0410
0C10
1C50
1C10
1C10
13EE
2002
6002
E7FA
E042
F042
FC4C
FC48
1C50
1C50
1C50
1C50
1C50
1C4E
2042
67FA
E002
E002
FFFE
FFF8
FFF0
ENDCHAR
STARTCHAR dotlessi
ENCODING 305
SWIDTH 705 0
DWIDTH 17 0
BBX 15 21 1 -3
BITMAP
1FFE
2002
6002
E7FA
E042
F042
FC4C
FC48
1C50
1C50
1C50
1C50
1C50
1C4E
2042
67FA
E002
E002
FFFE
FFF8
FFF0
ENDCHAR
STARTCHAR IJ
ENCODING 306
SWIDTH 844 0
DWIDTH 20 0
BBX 18 21 1 -3
BITMAP
1F8FC0
209840
60B840
E27940
E27940
E27940
E27940
E27940
E27940
E07940
F0F940
FF7940
FE7940
118140
200240
63FC40
E00040
F00180
FFFE00
FFFC00
FFF000
ENDCHAR
STARTCHAR ij
ENCODING 307
SWIDTH 844 0
DWIDTH 20 0
BBX 18 21 1 -3
BITMAP
1F8FC0
209840
60B840
E27940
E27940
E27940
E27940
E27940
E27940
E07940
F0F940
FF7940
FE7940
118140
200240
63FC40
E00040
F00180
FFFE00
FFFC00
FFF000
ENDCHAR
STARTCHAR Jcircumflex
ENCODING 308
SWIDTH 788 0
DWIDTH 19 0
BBX 20 27 0 -3
BITMAP
000780
003860
004F90
00C050
01C790
03FFF0
03F020
03D040
003240
007240
007240
007240
007240
007240
0FF240
107240
307240
727240
F27240
F20240
F10240
F0BC40
F80080
7C0100
7FFE00
3FF800
0FF000
ENDCHAR
STARTCHAR jcircumflex
ENCODING 309
SWIDTH 788 0
DWIDTH 19 0
BBX 20 27 0 -3
BITMAP
000780
003860
004F90
00C050
01C790
03FFF0
03F020
03D040
003240
007240
007240
007240
007240
007240
0FF240
107240
307240
727240
F27240
F20240
F10240
F0BC40
F80080
7C0100
7FFE00
3FF800
0FF000
ENDCHAR
STARTCHAR Kcommaaccent
ENCODING 310
SWIDTH 846 0
DWIDTH 20 0
BBX 18 29 1 -11
BITMAP
1F8FC0
209040
60B040
E26280
E26480
E26480
E24900
E20880
E21040
E3FE40
E20140
E20140
E27940
E27940
E27940
E27940
E07840
F07840
FFFFC0
FEFF80
FD0600
037400
070C00
070C00
07F400
076400
031800
07E000
07C000
ENDCHAR
STARTCHAR kcommaaccent
ENCODING 311
SWIDTH 846 0
DWIDTH 20 0
BBX 18 29 1 -11
BITMAP
1F8FC0
209040
60B040
E26280
E26480
E26480
E24900
E20880
E21040
E3FE40
E20140
E20140
E27940
E27940
E27940
E27940
E07840
F07840
FFFFC0
FEFF80
FD0600
037400
070C00
070C00
07F400
076400
031800
07E000
07C000
ENDCHAR
STARTCHAR kgreenlandic
ENCODING 312
SWIDTH 846 0
DWIDTH 20 0
BBX 18 21 1 -3
BITMAP
1F8FC0
209040
60B040
E26280
E26480
E26480
E24900
E20880
E21040
E3FE40
E20140
E20140
E27940
E27940
E27940
E27940
E07840
F07840
FFFFC0
FE7F80
FC3E00
ENDCHAR
STARTCHAR Lacute
ENCODING 313
SWIDTH 795 0
DWIDTH 19 0
BBX 18 26 1 -3
BITMAP
0FFC00
102400
23C400
E00400
E0F800
FFE000
E04000
E08000
E28000
E28000
E28000
E28000
E28000
E28F80
E29040
E2B040
E27240
E27240
E20240
E20240
E3FE40
E00040
E00040
FFFF80
FFFF00
FFFC00
ENDCHAR
STARTCHAR lacute
ENCODING 314
SWIDTH 795 0
DWIDTH 19 0
BBX 18 26 1 -3
BITMAP
0FFC00
102400
23C400
E00400
E0F800
FFE000
E04000
E08000
E28000
E28000
E28000
E28000
E28000
E28F80
E29040
E2B040
E27240
E27240
E20240
E20240
E3FE40
E00040
E00040
FFFF80
FFFF00
FFFC00
ENDCHAR
STARTCHAR Lcommaaccent
ENCODING 315
SWIDTH 795 0
DWIDTH 19 0
BBX 18 29 1 -11
BITMAP
1F8000
208000
608000
E28000
E28000
E28000
E28000
E28000
E28F80
E29040
E2B040
E27240
E27240
E20240
E20240
E3FE40
E00040
E00040
FFFF80
FF0700
FF0400
077400
0F1400
0F1400
0FF400
0F4800
071000
07E000
07C000
ENDCHAR
STARTCHAR lcommaaccent
ENCODING 316
SWIDTH 795 0
DWIDTH 19 0
BBX 18 29 1 -11
BITMAP
1F8000
208000
608000
E28000
E28000
E28000
E28000
E28000
E28F80
E29040
E2B040
E27240
E27240
E20240
E20240
E3FE40
E00040
E00040
FFFF80
FF0700
FF0400
077400
0F1400
0F1400
0FF400
0F4800
071000
07E000
07C000
ENDCHAR
STARTCHAR Lcaron
ENCODING 317
SWIDTH 795 0
DWIDTH 19 0
BBX 18 21 1 -3
BITMAP
1F8FC0
209040
60B040
E27280
E27280
E26080
E26080
E27F00
E27F80
E27040
E2B040
E27240
E27240
E20240
E20240
E3FE40
E00040
F00040
FFFF80
FFFF00
FFFC00
ENDCHAR
STARTCHAR lcaron
ENCODING 318
SWIDTH 795 0
DWIDTH 19 0
BBX 18 21 1 -3
BITMAP
1F8FC0
209040
60B040
E27280
E27280
E26080
E26080
E27F00
E27F80
E27040
E2B040
E27240
E27240
E20240
E20240
E3FE40
E00040
F00040
FFFF80
FFFF00
FFFC00
ENDCHAR
STARTCHAR Ldot
ENCODING 319
SWIDTH 795 0
DWIDTH 19 0
BBX 18 21 1 -3
BITMAP
1F8000
208000
608000
E28000
E28F80
E29040
E27240
E27040
E27040
E27F80
E27F80
E27040
E2B040
E24240
E20240
E3FE40
E00040
F00040
FFFF80
FFFF00
FFFC00
ENDCHAR
STARTCHAR ldot
ENCODING 320
SWIDTH 795 0
DWIDTH 19 0
BBX 18 21 1 -3
BITMAP
1F8000
208000
608000
E28000
E28F80
E29040
E27240
E27040
E27040
E27F80
E27F80
E27040
E2B040
E24240
E20240
E3FE40
E00040
F00040
FFFF80
FFFF00
FFFC00
ENDCHAR
STARTCHAR Lslash
ENCODING 321
SWIDTH 805 0
DWIDTH 19 0
BBX 19 21 0 -3
BITMAP
0FE000
182000
382000
792000
792000
793800
790800
610800
67CFC0
E10820
E13820
F93920
F93920
F90120
790120
79FF20
780020
780020
7FFFC0
7FFF80
7FFF00
ENDCHAR
STARTCHAR lslash
ENCODING 322
SWIDTH 805 0
DWIDTH 19 0
BBX 19 21 0 -3
BITMAP
0FE000
182000
382000
792000
792000
793800
790800
610800
67CFC0
E10820
E13820
F93920
F93920
F90120
790120
79FF20
780020
780020
7FFFC0
7FFF80
7FFF00
ENDCHAR
STARTCHAR Nacute
ENCODING 323
SWIDTH 853 0
DWIDTH 20 0
BBX 18 27 1 -3
BITMAP
000F00
03F080
043C80
0CC080
1C0100
1C3E00
13F9C0
207840
605840
E23940
E31940
E28940
E24940
E22140
E21140
E28940
E24940
E26540
E26340
E27140
E27940
E27940
E07840
F0B840
FF3FC0
FE3F00
FC3E00
ENDCHAR
STARTCHAR nacute
ENCODING 324
SWIDTH 853 0
DWIDTH 20 0
BBX 18 27 1 -3
BITMAP
000F00
03F080
043C80
0CC080
1C0100
1C3E00
13F9C0
207840
605840
E23940
E31940
E28940
E24940
E22140
E21140
E28940
E24940
E26540
E26340
E27140
E27940
E27940
E07840
F0B840
FF3FC0
FE3F00
FC3E00
ENDCHAR
STARTCHAR Ncommaaccent
ENCODING 325
SWIDTH 853 0
DWIDTH 20 0
BBX 18 29 1 -11
BITMAP
1F0FC0
208840
605840
E23940
E31940
E28940
E24940
E22140
E21140
E28940
E24940
E26540
E26340
E27140
E27940
E27940
E07840
F0B840
FF3FC0
FEFF00
FD0200
037400
070C00
070C00
07F400
076400
031800
07E000
07C000
ENDCHAR
STARTCHAR ncommaaccent
ENCODING 326
SWIDTH 853 0
DWIDTH 20 0
BBX 18 29 1 -11
BITMAP
1F0FC0
208840
605840
E23940
E31940
E28940
E24940
E22140
E21140
E28940
E24940
E26540
E26340
E27140
E27940
E27940
E07840
F0B840
FF3FC0
FEFF00
FD0200
037400
070C00
070C00
07F400
076400
031800
07E000
07C000
ENDCHAR
STARTCHAR Ncaron
ENCODING 327
SWIDTH 853 0
DWIDTH 20 0
BBX 18 27 1 -3
BITMAP
078700
0C7900
1C0100
3CF900
3C0300
3F8C00
30FBC0
206840
605840
E23940
E31940
E28940
E24940
E22140
E21140
E28940
E24940
E26540
E26340
E27140
E27940
E27940
E07840
F0B840
FF3FC0
FE3F00
FC3E00
ENDCHAR
STARTCHAR ncaron
ENCODING 328
SWIDTH 853 0
DWIDTH 20 0
BBX 18 27 1 -3
BITMAP
078700
0C7900
1C0100
3CF900
3C0300
3F8C00
30FBC0
206840
605840
E23940
E31940
E28940
E24940
E22140
E21140
E28940
E24940
E26540
E26340
E27140
E27940
E27940
E07840
F0B840
FF3FC0
FE3F00
FC3E00
ENDCHAR
STARTCHAR napostrophe
ENCODING 329
SWIDTH 853 0
DWIDTH 20 0
BBX 18 29 1 -3
BITMAP
1F0000
208000
6E8000
E18000
E18000
FD8000
EE8000
E10000
FF07C0
E08840
E05840
E23940
E31940
E28940
E24940
E22140
E21140
E28940
E24940
E26540
E26340
E27140
E27940
E27940
E07840
E0B840
FF3FC0
FE3F00
FC3E00
ENDCHAR
STARTCHAR Eng
ENCODING 330
SWIDTH 846 0
DWIDTH 20 0
BBX 18 23 1 -5
BITMAP
03FF00
0C0080
10FC40
330240
620140
E47140
E47940
E47940
E47940
E47940
E47940
E47940
E47940
E47940
E47940
E47140
E04140
E04E40
FFC040
FFC080
FDFF00
01FC00
01F000
ENDCHAR
STARTCHAR eng
ENCODING 331
SWIDTH 846 0
DWIDTH 20 0
BBX 18 23 1 -5
BITMAP
03FF00
0C0080
10FC40
330240
620140
E47140
E47940
E47940
E47940
E47940
E47940
E47940
E47940
E47940
E47940
E47140
E04140
E04E40
FFC040
FFC080
FDFF00
01FC00
01F000
ENDCHAR
STARTCHAR Omacron
ENCODING 332
SWIDTH 837 0
DWIDTH 20 0
BBX 18 26 1 -3
BITMAP
03FE00
040100
1CF900
3C0100
3C0100
3FFE00
380180
11FC40
220240
620140
E47140
E47940
E47940
E47940
E47940
E47940
E47940
E47940
E27140
E20240
F1FC40
F00040
FC0180
7FFE00
3FFC00
0FF000
ENDCHAR
STARTCHAR omacron
ENCODING 333
SWIDTH 837 0
DWIDTH 20 0
BBX 18 26 1 -3
BITMAP
03FE00
040100
1CF900
3C0100
3C0100
3FFE00
380180
11FC40
220240
620140
E47140
E47940
E47940
E47940
E47940
E47940
E47940
E47940
E27140
E20240
F1FC40
F00040
FC0180
7FFE00
3FFC00
0FF000
ENDCHAR
STARTCHAR Obreve
ENCODING 334
SWIDTH 837 0
DWIDTH 20 0
BBX 18 27 1 -3
BITMAP
078E00
085100
192500
38F900
3C0100
3E0200
3FFE00
180180
11FC40
220240
620140
E47140
E47940
E47940
E47940
E47940
E47940
E47940
E47940
E27140
E20240
F1FC40
F00040
FC0180
7FFE00
3FFC00
0FF000
ENDCHAR
STARTCHAR obreve
ENCODING 335
SWIDTH 837 0
DWIDTH 20 0
BBX 18 27 1 -3
BITMAP
078E00
085100
192500
38F900
3C0100
3E0200
3FFE00
180180
11FC40
220240
620140
E47140
E47940
E47940
E47940
E47940
E47940
E47940
E47940
E27140
E20240
F1FC40
F00040
FC0180
7FFE00
3FFC00
0FF000
ENDCHAR
STARTCHAR Ohungarumlaut
ENCODING 336
SWIDTH 837 0
DWIDTH 20 0
BBX 18 29 1 -3
BITMAP
01C780
022840
041880
1CB280
1D3280
1D3280
183100
387100
3FFE00
380180
11FC40
220240
620140
E47140
E47940
E47940
E47940
E47940
E47940
E47940
E47940
E27140
E20240
F1FC40
F00040
FC0180
7FFE00
3FFC00
0FF000
ENDCHAR
STARTCHAR ohungarumlaut
ENCODING 337
SWIDTH 837 0
DWIDTH 20 0
BBX 18 29 1 -3
BITMAP
01C780
022840
041880
1CB280
1D3280
1D3280
183100
387100
3FFE00
380180
11FC40
220240
620140
E47140
E47940
E47940
E47940
E47940
E47940
E47940
E47940
E27140
E20240
F1FC40
F00040
FC0180
7FFE00
3FFC00
0FF000
ENDCHAR
STARTCHAR OE
ENCODING 338
SWIDTH 1115 0
DWIDTH 27 0
BBX 25 21 1 -3
BITMAP
07FFFF80
08000080
10000080
217FFE80
62010080
E4713F00
E4713E00
E4710100
E4710100
E471F900
E4710100
E4710200
E4713C00
E4713F00
E2010080
F17FFE80
F0000080
FC000080
7FFFFF00
7FFFFE00
1FFFFC00
ENDCHAR
STARTCHAR oe
ENCODING 339
SWIDTH 1115 0
DWIDTH 27 0
BBX 25 21 1 -3
BITMAP
07FFFF80
08000080
10000080
217FFE80
62010080
E4713F00
E4713E00
E4710100
E4710100
E471F900
E4710100
E4710200
E4713C00
E4713F00
E2010080
F17FFE80
F0000080
FC000080
7FFFFF00
7FFFFE00
1FFFFC00
ENDCHAR
STARTCHAR Racute
ENCODING 340
SWIDTH 843 0
DWIDTH 20 0
BBX 19 27 1 -3
BITMAP
000E00
03F100
040900
18F100
380100
383E00
3FFE00
200100
200080
E3F880
E20440
E27240
E27240
E27280
E20280
E20440
E3FE20
E20120
E27920
E27920
E27920
E2B920
E0B820
E0B820
FF3FC0
FE3F80
FC3F00
ENDCHAR
STARTCHAR racute
ENCODING 341
SWIDTH 843 0
DWIDTH 20 0
BBX 19 27 1 -3
BITMAP
000E00
03F100
040900
18F100
380100
383E00
3FFE00
200100
200080
E3F880
E20440
E27240
E27240
E27280
E20280
E20440
E3FE20
E20120
E27920
E27920
E27920
E2B920
E0B820
E0B820
FF3FC0
FE3F80
FC3F00
ENDCHAR
STARTCHAR Rcommaaccent
ENCODING 342
SWIDTH 843 0
DWIDTH 20 0
BBX 19 29 1 -11
BITMAP
1FFF00
200080
600080
E3F840
E20440
E27240
E27240
E27280
E20280
E20440
E3FE20
E20120
E27920
E27920
E27920
E2B920
E0B820
F0B820
FF3FC0
FEFF80
FD0300
037400
070C00
070C00
07EC00
077400
038800
07F000
07C000
ENDCHAR
STARTCHAR rcommaaccent
ENCODING 343
SWIDTH 843 0
DWIDTH 20 0
BBX 19 29 1 -11
BITMAP
1FFF00
200080
600080
E3F840
E20440
E27240
E27240
E27280
E20280
E20440
E3FE20
E20120
E27920
E27920
E27920
E2B920
E0B820
F0B820
FF3FC0
FEFF80
FD0300
037400
070C00
070C00
07EC00
077400
038800
07F000
07C000
ENDCHAR
STARTCHAR Rcaron
ENCODING 344
SWIDTH 843 0
DWIDTH 20 0
BBX 19 27 1 -3
BITMAP
070700
04F900
1C8500
3C7900
3C0100
3F8E00
3FFC00
100300
200080
63F880
E20440
E27240
E27240
E27280
E20280
E20440
E3FE20
E20120
E27920
E27920
E27920
E2B920
E0B820
E0B820
FF3FC0
FE3F80
FC3F00
ENDCHAR
STARTCHAR rcaron
ENCODING 345
SWIDTH 843 0
DWIDTH 20 0
BBX 19 27 1 -3
BITMAP
070700
04F900
1C8500
3C7900
3C0100
3F8E00
3FFC00
100300
200080
63F880
E20440
E27240
E27240
E27280
E20280
E20440
E3FE20
E20120
E27920
E27920
E27920
E2B920
E0B820
E0B820
FF3FC0
FE3F80
FC3F00
ENDCHAR
STARTCHAR Sacute
ENCODING 346
SWIDTH 750 0
DWIDTH 18 0
BBX 17 27 1 -3
BITMAP
001E00
07E200
087A00
398200
780200
79FC00
7E0700
700100
600100
23F900
640100
E4FE00
E47C00
E40200
E20100
F1F080
F80C80
FF8480
FFE480
200480
200480
E7F880
E00100
E00200
FFFC00
FFF000
FFE000
ENDCHAR
STARTCHAR sacute
ENCODING 347
SWIDTH 750 0
DWIDTH 18 0
BBX 17 27 1 -3
BITMAP
001E00
07E200
087A00
398200
780200
79FC00
7E0700
700100
600100
23F900
640100
E4FE00
E47C00
E40200
E20100
F1F080
F80C80
FF8480
FFE480
200480
200480
E7F880
E00100
E00200
FFFC00
FFF000
FFE000
ENDCHAR
STARTCHAR Scircumflex
ENCODING 348
SWIDTH 750 0
DWIDTH 18 0
BBX 17 27 1 -3
BITMAP
00E000
071C00
09F200
180200
384200
7FFE00
7C0100
700100
600100
23F900
640100
E4FE00
E47C00
E40200
E20100
F1F080
F80C80
FF8480
FFE480
200480
200480
E7F880
E00100
E00200
FFFC00
FFF000
FFE000
ENDCHAR
STARTCHAR scircumflex
ENCODING 349
SWIDTH 750 0
DWIDTH 18 0
BBX 17 27 1 -3
BITMAP
00E000
071C00
09F200
180200
384200
7FFE00
7C0100
700100
600100
23F900
640100
E4FE00
E47C00
E40200
E20100
F1F080
F80C80
FF8480
FFE480
200480
200480
E7F880
E00100
E00200
FFFC00
FFF000
FFE000
ENDCHAR
STARTCHAR Scedilla
ENCODING 350
SWIDTH 750 0
DWIDTH 18 0
BBX 17 24 1 -6
BITMAP
07FF00
180100
200100
63F900
E40100
E4FE00
E47C00
E40200
E20100
F1F080
F80C80
FF8480
FFE480
200480
200480
E7F880
E04100
E04200
FE4C00
FC1000
FC1000
1FE000
1F8000
1F0000
ENDCHAR
STARTCHAR scedilla
ENCODING 351
SWIDTH 750 0
DWIDTH 18 0
BBX 17 24 1 -6
BITMAP
07FF00
180100
200100
63F900
E40100
E4FE00
E47C00
E40200
E20100
F1F080
F80C80
FF8480
FFE480
200480
200480
E7F880
E04100
E04200
FE4C00
FC1000
FC1000
1FE000
1F8000
1F0000
ENDCHAR
STARTCHAR Scaron
ENCODING 352
SWIDTH 750 0
DWIDTH 18 0
BBX 17 27 1 -3
BITMAP
060E00
09F200
390A00
78F200
7C0600
7F9800
7C6700
100100
100100
23F900
640100
E4FE00
E47C00
E40200
E20100
F1F080
F80C80
FF8480
FFE480
200480
200480
E7F880
E00100
E00200
FFFC00
FFF000
FFE000
ENDCHAR
STARTCHAR scaron
ENCODING 353
SWIDTH 750 0
DWIDTH 18 0
BBX 17 27 1 -3
BITMAP
060E00
09F200
390A00
78F200
7C0600
7F9800
7C6700
100100
100100
23F900
640100
E4FE00
E47C00
E40200
E20100
F1F080
F80C80
FF8480
FFE480
200480
200480
E7F880
E00100
E00200
FFFC00
FFF000
FFE000
ENDCHAR
STARTCHAR Tcommaaccent
ENCODING 354
SWIDTH 756 0
DWIDTH 18 0
BBX 18 29 0 -11
BITMAP
1FFFC0
200040
600040
E3FF40
E02040
FF2780
FF2700
FF2600
0F2400
0F2400
0F2400
0F2400
0F2400
0F2400
0F2400
0F2400
0F0400
0F0400
0FF800
0F0400
070400
077400
071400
071400
07F400
074400
031800
07E000
07C000
ENDCHAR
STARTCHAR tcommaaccent
ENCODING 355
SWIDTH 756 0
DWIDTH 18 0
BBX 18 29 0 -11
BITMAP
1FFFC0
200040
600040
E3FF40
E02040
FF2780
FF2700
FF2600
0F2400
0F2400
0F2400
0F2400
0F2400
0F2400
0F2400
0F2400
0F0400
0F0400
0FF800
0F0400
070400
077400
071400
071400
07F400
074400
031800
07E000
07C000
ENDCHAR
STARTCHAR Tcaron
ENCODING 356
SWIDTH 756 0
DWIDTH 18 0
BBX 18 27 0 -3
BITMAP
070700
0CF900
1C8100
3C7900
3C0200
3FCC00
3033C0
200040
600040
E3FF40
E02040
FF2780
FF2700
FF2600
0F2400
0F2400
0F2400
0F2400
0F2400
0F2400
0F2400
0F2400
0F0400
0F0400
0FF800
0FF000
07E000
ENDCHAR
STARTCHAR tcaron
ENCODING 357
SWIDTH 756 0
DWIDTH 18 0
BBX 18 27 0 -3
BITMAP
070700
0CF900
1C8100
3C7900
3C0200
3FCC00
3033C0
200040
600040
E3FF40
E02040
FF2780
FF2700
FF2600
0F2400
0F2400
0F2400
0F2400
0F2400
0F2400
0F2400
0F2400
0F0400
0F0400
0FF800
0FF000
07E000
ENDCHAR
STARTCHAR Tbar
ENCODING 358
SWIDTH 756 0
DWIDTH 18 0
BBX 18 21 0 -3
BITMAP
1FFFC0
200040
600040
E3FF40
E02040
F02040
FF2780
FF2600
0F2700
082080
19FC80
382080
382180
3F2600
3F2400
3F2400
0F0400
0F0400
0FF800
0FF000
07E000
ENDCHAR
STARTCHAR tbar
ENCODING 359
SWIDTH 756 0
DWIDTH 18 0
BBX 18 21 0 -3
BITMAP
1FFFC0
200040
600040
E3FF40
E02040
F02040
FF2780
FF2600
0F2700
082080
19FC80
382080
382180
3F2600
3F2400
3F2400
0F0400
0F0400
0FF800
0FF000
07E000
ENDCHAR
STARTCHAR Utilde
ENCODING 360
SWIDTH 846 0
DWIDTH 20 0
BBX 18 27 1 -3
BITMAP
03F300
040D00
0C0100
1CFD00
3C0100
3DC200
227DC0
207840
62B940
E27940
E27940
E27940
E27940
E27940
E27940
E27940
E27940
E27940
E27940
E20140
E30240
F0BC40
F00040
FC0180
7FFE00
3FFC00
0FF000
ENDCHAR
STARTCHAR utilde
ENCODING 361
SWIDTH 846 0
DWIDTH 20 0
BBX 18 27 1 -3
BITMAP
03F300
040D00
0C0100
1CFD00
3C0100
3DC200
227DC0
207840
62B940
E27940
E27940
E27940
E27940
E27940
E27940
E27940
E27940
E27940
E27940
E20140
E30240
F0BC40
F00040
FC0180
7FFE00
3FFC00
0FF000
ENDCHAR
STARTCHAR Umacron
ENCODING 362
SWIDTH 846 0
DWIDTH 20 0
BBX 18 26 1 -3
BITMAP
03FF00
040100
0CFD00
1C0100
3C0100
3FFFC0
207840
607840
E2B940
E27940
E27940
E27940
E27940
E27940
E27940
E27940
E27940
E27940
E20140
E30240
F0F440
F00040
FC0180
7FFE00
3FFC00
0FF000
ENDCHAR
STARTCHAR umacron
ENCODING 363
SWIDTH 846 0
DWIDTH 20 0
BBX 18 26 1 -3
BITMAP
03FF00
040100
0CFD00
1C0100
3C0100
3FFFC0
207840
607840
E2B940
E27940
E27940
E27940
E27940
E27940
E27940
E27940
E27940
E27940
E20140
E30240
F0F440
F00040
FC0180
7FFE00
3FFC00
0FF000
ENDCHAR
STARTCHAR Ubreve
ENCODING 364
SWIDTH 846 0
DWIDTH 20 0
BBX 18 27 1 -3
BITMAP
038E00
0C5080
1D2480
3CF900
3C0100
3F0200
20FDC0
207840
605840
E2B940
E27940
E27940
E27940
E27940
E27940
E27940
E27940
E27940
E27940
E20140
E30240
F0F440
F00040
FC0180
7FFE00
3FFC00
0FF000
ENDCHAR
STARTCHAR ubreve
ENCODING 365
SWIDTH 846 0
DWIDTH 20 0
BBX 18 27 1 -3
BITMAP
038E00
0C5080
1D2480
3CF900
3C0100
3F0200
20FDC0
207840
605840
E2B940
E27940
E27940
E27940
E27940
E27940
E27940
E27940
E27940
E27940
E20140
E30240
F0F440
F00040
FC0180
7FFE00
3FFC00
0FF000
ENDCHAR
STARTCHAR Uring
ENCODING 366
SWIDTH 846 0
DWIDTH 20 0
BBX 18 31 1 -3
BITMAP
017400
02BA00
050500
0D3480
1D7280
3D7480
3D0480
3CB900
3C0100
3F0200
10FDC0
207840
60B840
E27940
E27940
E27940
E27940
E27940
E27940
E27940
E27940
E27940
E27940
E27140
E30240
F0BC40
F00040
FC0180
7FFE00
3FFC00
0FF000
ENDCHAR
STARTCHAR uring
ENCODING 367
SWIDTH 846 0
DWIDTH 20 0
BBX 18 31 1 -3
BITMAP
017400
02BA00
050500
0D3480
1D7280
3D7480
3D0480
3CB900
3C0100
3F0200
10FDC0
207840
60B840
E27940
E27940
E27940
E27940
E27940
E27940
E27940
E27940
E27940
E27940
E27140
E30240
F0BC40
F00040
FC0180
7FFE00
3FFC00
0FF000
ENDCHAR
STARTCHAR Uhungarumlaut
ENCODING 368
SWIDTH 846 0
DWIDTH 20 0
BBX 18 29 1 -3
BITMAP
01E780
021840
061840
0C9A80
1CB280
1D3280
1C3080
1C3100
3FFFC0
207840
607840
E2B940
E27940
E27940
E27940
E27940
E27940
E27940
E27940
E27940
E27940
E20140
E30240
F0F440
F00040
FC0180
7FFE00
3FFC00
0FF000
ENDCHAR
STARTCHAR uhungarumlaut
ENCODING 369
SWIDTH 846 0
DWIDTH 20 0
BBX 18 29 1 -3
BITMAP
01E780
021840
061840
0C9A80
1CB280
1D3280
1C3080
1C3100
3FFFC0
207840
607840
E2B940
E27940
E27940
E27940
E27940
E27940
E27940
E27940
E27940
E27940
E20140
E30240
F0F440
F00040
FC0180
7FFE00
3FFC00
0FF000
ENDCHAR
STARTCHAR Uogonek
ENCODING 370
SWIDTH 846 0
DWIDTH 20 0
BBX 18 26 1 -8
BITMAP
1F8FC0
209840
62B940
E27940
E27940
E27940
E27940
E27940
E27940
E27940
E27940
E27940
E27940
E20140
E30240
F0B440
F82040
FC2180
7FAE00
3F2200
1F3200
070200
078200
07FC00
07F000
03E000
ENDCHAR
STARTCHAR uogonek
ENCODING 371
SWIDTH 846 0
DWIDTH 20 0
BBX 18 26 1 -8
BITMAP
1F8FC0
209840
62B940
E27940
E27940
E27940
E27940
E27940
E27940
E27940
E27940
E27940
E27940
E20140
E30240
F0B440
F82040
FC2180
7FAE00
3F2200
1F3200
070200
078200
07FC00
07F000
03E000
ENDCHAR
STARTCHAR Wcircumflex
ENCODING 372
SWIDTH 931 0
DWIDTH 22 0
BBX 21 27 1 -3
BITMAP
003C00
01C300
023C80
064280
1E1080
1FFF80
10FE78
20BE08
E08608
E48E48
E48E48
E48E48
E4BE48
E44248
E44248
E49A48
E42448
E44448
E24248
F29248
F29990
F11890
F83810
783820
7FFFC0
7F3F80
3E3F00
ENDCHAR
STARTCHAR wcircumflex
ENCODING 373
SWIDTH 931 0
DWIDTH 22 0
BBX 21 27 1 -3
BITMAP
003C00
01C300
023C80
064280
1E1080
1FFF80
10FE78
20BE08
E08608
E48E48
E48E48
E48E48
E4BE48
E44248
E44248
E49A48
E42448
E44448
E24248
F29248
F29990
F11890
F83810
783820
7FFFC0
7F3F80
3E3F00
ENDCHAR
STARTCHAR Ycircumflex
ENCODING 374
SWIDTH 805 0
DWIDTH 19 0
BBX 19 27 0 -3
BITMAP
007800
018700
063880
0CC480
1C0080
1CF880
137F60
107820
705820
727920
F27920
F27920
F27920
F13920
F11220
788440
7C4480
7E3880
3E1100
1F1200
1F1200
0F1200
070200
078200
07FC00
07F000
07E000
ENDCHAR
STARTCHAR ycircumflex
ENCODING 375
SWIDTH 805 0
DWIDTH 19 0
BBX 19 27 0 -3
BITMAP
007800
018700
063880
0CC480
1C0080
1CF880
137F60
107820
705820
727920
F27920
F27920
F27920
F13920
F11220
788440
7C4480
7E3880
3E1100
1F1200
1F1200
0F1200
070200
078200
07FC00
07F000
07E000
ENDCHAR
STARTCHAR Ydieresis
ENCODING 376
SWIDTH 805 0
DWIDTH 19 0
BBX 19 26 0 -3
BITMAP
03EF80
041080
1C9280
3C1080
3C3080
3FFFE0
307820
307820
727920
F27920
F27920
F27920
F23120
F11220
F88240
7C4480
7C3880
3E1100
1F1200
1F1200
0F1200
070200
078200
07FC00
07F000
07E000
ENDCHAR
STARTCHAR Zacute
ENCODING 377
SWIDTH 760 0
DWIDTH 18 0
BBX 17 27 1 -3
BITMAP
001E00
07E100
087900
198100
380200
39FC00
260380
200080
600080
E7F880
E00480
FF8880
FF1100
FE1200
062200
0C4400
088800
111000
212000
623F00
E40080
E3FC80
E00080
E00080
FFFF00
FFFE00
FFFC00
ENDCHAR
STARTCHAR zacute
ENCODING 378
SWIDTH 760 0
DWIDTH 18 0
BBX 17 27 1 -3
BITMAP
001E00
07E100
087900
198100
380200
39FC00
260380
200080
600080
E7F880
E00480
FF8880
FF1100
FE1200
062200
0C4400
088800
111000
212000
623F00
E40080
E3FC80
E00080
E00080
FFFF00
FFFE00
FFFC00
ENDCHAR
STARTCHAR Zdotaccent
ENCODING 379
SWIDTH 760 0
DWIDTH 18 0
BBX 17 27 1 -3
BITMAP
01F000
020800
060800
0E4800
0E0800
0E0800
11F780
200080
600080
E7F880
E00480
FF8880
FF1100
FE1200
062200
0C4400
088800
111000
212000
623F00
E40080
E3FC80
E00080
E00080
FFFF00
FFFE00
FFFC00
ENDCHAR
STARTCHAR zdotaccent
ENCODING 380
SWIDTH 760 0
DWIDTH 18 0
BBX 17 27 1 -3
BITMAP
01F000
020800
060800
0E4800
0E0800
0E0800
11F780
200080
600080
E7F880
E00480
FF8880
FF1100
FE1200
062200
0C4400
088800
111000
212000
623F00
E40080
E3FC80
E00080
E00080
FFFF00
FFFE00
FFFC00
ENDCHAR
STARTCHAR Zcaron
ENCODING 381
SWIDTH 760 0
DWIDTH 18 0
BBX 17 27 1 -3
BITMAP
0E0E00
09F200
390A00
78F200
780600
7F9800
606780
200080
600080
E7F880
E00480
FF8880
FF1100
FE1200
062200
0C4400
088800
111000
212000
623F00
E40080
E3FC80
E00080
E00080
FFFF00
FFFE00
FFFC00
ENDCHAR
STARTCHAR zcaron
ENCODING 382
SWIDTH 760 0
DWIDTH 18 0
BBX 17 27 1 -3
BITMAP
0E0E00
09F200
390A00
78F200
780600
7F9800
606780
200080
600080
E7F880
E00480
FF8880
FF1100
FE1200
062200
0C4400
088800
111000
212000
623F00
E40080
E3FC80
E00080
E00080
FFFF00
FFFE00
FFFC00
ENDCHAR
STARTCHAR Schwa
ENCODING 399
SWIDTH 815 0
DWIDTH 20 0
BBX 18 21 1 -3
BITMAP
0FFF00
080080
39F440
380240
380240
3FF240
3FF940
200140
200140
E3FE40
E40140
E4F940
E47140
E40240
E20240
E17C40
F00080
FC0100
FFFE00
7FF800
1FF000
ENDCHAR
STARTCHAR florin
ENCODING 402
SWIDTH 674 0
DWIDTH 16 0
BBX 16 21 0 -3
BITMAP
007F
0081
0101
0219
0621
0E41
0E4E
1E4E
3041
73F9
F041
F041
FE4E
7E48
3048
3388
7010
F020
FFC0
FF00
7E00
ENDCHAR
STARTCHAR Ohorn
ENCODING 416
SWIDTH 847 0
DWIDTH 20 0
BBX 20 23 1 -3
BITMAP
0001E0
000210
07FC50
080090
11FF20
220220
620120
E47120
E47920
E47920
E47920
E47920
E47920
E47920
E47920
E27120
E20220
F1FC40
F00080
FC0100
FFFE00
7FFC00
1FF000
ENDCHAR
STARTCHAR ohorn
ENCODING 417
SWIDTH 847 0
DWIDTH 20 0
BBX 20 23 1 -3
BITMAP
0001E0
000210
07FC50
080090
11FF20
220220
620120
E47120
E47920
E47920
E47920
E47920
E47920
E47920
E47920
E27120
E20220
F1FC40
F00080
FC0100
FFFE00
7FFC00
1FF000
ENDCHAR
STARTCHAR Uhorn
ENCODING 431
SWIDTH 856 0
DWIDTH 21 0
BBX 20 23 1 -3
BITMAP
0001E0
000210
1F8C50
209850
62B990
E27920
E27920
E27920
E27920
E27920
E27920
E27920
E27920
E27920
E27920
E20120
E30220
F0BC40
F00040
FC0180
7FFE00
3FFC00
0FF000
ENDCHAR
STARTCHAR uhorn
ENCODING 432
SWIDTH 856 0
DWIDTH 21 0
BBX 20 23 1 -3
BITMAP
0001E0
000210
1F8C50
209850
62B990
E27920
E27920
E27920
E27920
E27920
E27920
E27920
E27920
E27920
E27920
E20120
E30220
F0BC40
F00040
FC0180
7FFE00
3FFC00
0FF000
ENDCHAR
STARTCHAR Acaron
ENCODING 461
SWIDTH 830 0
DWIDTH 20 0
BBX 18 27 1 -3
BITMAP
070700
08F900
180100
38F900
3C0200
3FCC00
3C3200
1C0100
0C0100
18F900
190480
312480
317440
327240
627240
640140
E40140
E3FE40
E40140
E40140
E4F940
E4F940
E0F840
E0F840
FF7F80
FE7F00
F87E00
ENDCHAR
STARTCHAR acaron
ENCODING 462
SWIDTH 830 0
DWIDTH 20 0
BBX 18 27 1 -3
BITMAP
070700
08F900
180100
38F900
3C0200
3FCC00
3C3200
1C0100
0C0100
18F900
190480
312480
317440
327240
627240
640140
E40140
E3FE40
E40140
E40140
E4F940
E4F940
E0F840
E0F840
FF7F80
FE7F00
F87E00
ENDCHAR
STARTCHAR Icaron
ENCODING 463
SWIDTH 705 0
DWIDTH 17 0
BBX 15 27 1 -3
BITMAP
0E1C
11E2
3212
71E2
7804
7F38
60CE
2002
6002
E7FA
E042
F042
FC4C
FC48
1C50
1C50
1C50
1C50
1C50
1C4E
2042
67FA
E002
E002
FFFE
FFF8
FFF0
ENDCHAR
STARTCHAR icaron
ENCODING 464
SWIDTH 705 0
DWIDTH 17 0
BBX 15 27 1 -3
BITMAP
0E1C
11E2
3212
71E2
7804
7F38
60CE
2002
6002
E7FA
E042
F042
FC4C
FC48
1C50
1C50
1C50
1C50
1C50
1C4E
2042
67FA
E002
E002
FFFE
FFF8
FFF0
ENDCHAR
STARTCHAR Ocaron
ENCODING 465
SWIDTH 837 0
DWIDTH 20 0
BBX 18 27 1 -3
BITMAP
078700
0C7900
1C0100
3CF900
3C0300
3F8C00
3FFF00
080080
11FC40
220240
620140
E47140
E47940
E47940
E47940
E47940
E47940
E47940
E47940
E27140
E20240
F1FC40
F00040
FC0180
7FFE00
3FFC00
0FF000
ENDCHAR
STARTCHAR ocaron
ENCODING 466
SWIDTH 837 0
DWIDTH 20 0
BBX 18 27 1 -3
BITMAP
078700
0C7900
1C0100
3CF900
3C0300
3F8C00
3FFF00
080080
11FC40
220240
620140
E47140
E47940
E47940
E47940
E47940
E47940
E47940
E47940
E27140
E20240
F1FC40
F00040
FC0180
7FFE00
3FFC00
0FF000
ENDCHAR
STARTCHAR Ucaron
ENCODING 467
SWIDTH 846 0
DWIDTH 20 0
BBX 18 27 1 -3
BITMAP
078700
0C7900
1C8500
3C7900
3C0300
3F8C00
107BC0
205840
62B940
E27940
E27940
E27940
E27940
E27940
E27940
E27940
E27940
E27940
E27940
E20140
E30240
F0BC40
F00040
FC0180
7FFE00
3FFC00
0FF000
ENDCHAR
STARTCHAR ucaron
ENCODING 468
SWIDTH 846 0
DWIDTH 20 0
BBX 18 27 1 -3
BITMAP
078700
0C7900
1C8500
3C7900
3C0300
3F8C00
107BC0
205840
62B940
E27940
E27940
E27940
E27940
E27940
E27940
E27940
E27940
E27940
E27940
E20140
E30240
F0BC40
F00040
FC0180
7FFE00
3FFC00
0FF000
ENDCHAR
STARTCHAR Udieresismacron
ENCODING 469
SWIDTH 846 0
DWIDTH 20 0
BBX 18 32 1 -3
BITMAP
03FE00
040100
0C0100
1CFD00
3C0100
3FFF00
382080
382080
192480
382080
382080
3FFFC0
207840
607840
E2B940
E27940
E27940
E27940
E27940
E27940
E27940
E27940
E27940
E27940
E20140
E30240
F0F440
F00040
FC0180
7FFE00
3FFC00
0FF000
ENDCHAR
STARTCHAR udieresismacron
ENCODING 470
SWIDTH 846 0
DWIDTH 20 0
BBX 18 32 1 -3
BITMAP
03FE00
040100
0C0100
1CFD00
3C0100
3FFF00
382080
382080
192480
382080
382080
3FFFC0
207840
607840
E2B940
E27940
E27940
E27940
E27940
E27940
E27940
E27940
E27940
E27940
E20140
E30240
F0F440
F00040
FC0180
7FFE00
3FFC00
0FF000
ENDCHAR
STARTCHAR Udieresisacute
ENCODING 471
SWIDTH 846 0
DWIDTH 20 0
BBX 18 32 1 -3
BITMAP
007C00
008400
01B400
038400
038400
07FF00
082080
182080
392480
382080
382080
3FFFC0
207840
607840
E2B940
E27940
E27940
E27940
E27940
E27940
E27940
E27940
E27940
E27940
E20140
E30240
F0F440
F00040
FC0180
7FFE00
3FFC00
0FF000
ENDCHAR
STARTCHAR udieresisacute
ENCODING 472
SWIDTH 846 0
DWIDTH 20 0
BBX 18 32 1 -3
BITMAP
007C00
008400
01B400
038400
038400
07FF00
082080
182080
392480
382080
382080
3FFFC0
207840
607840
E2B940
E27940
E27940
E27940
E27940
E27940
E27940
E27940
E27940
E27940
E20140
E30240
F0F440
F00040
FC0180
7FFE00
3FFC00
0FF000
ENDCHAR
STARTCHAR Udieresiscaron
ENCODING 473
SWIDTH 846 0
DWIDTH 20 0
BBX 18 33 1 -3
BITMAP
030700
04F900
1C0100
3C8D00
3C7100
3F8600
3FFF00
182080
182080
392480
382080
382080
3FFFC0
207840
607840
E2B940
E27940
E27940
E27940
E27940
E27940
E27940
E27940
E27940
E27940
E20140
E30240
F0F440
F00040
FC0180
7FFE00
3FFC00
0FF000
ENDCHAR
STARTCHAR udieresiscaron
ENCODING 474
SWIDTH 846 0
DWIDTH 20 0
BBX 18 33 1 -3
BITMAP
030700
04F900
1C0100
3C8D00
3C7100
3F8600
3FFF00
182080
182080
392480
382080
382080
3FFFC0
207840
607840
E2B940
E27940
E27940
E27940
E27940
E27940
E27940
E27940
E27940
E27940
E20140
E30240
F0F440
F00040
FC0180
7FFE00
3FFC00
0FF000
ENDCHAR
STARTCHAR Udieresisgrave
ENCODING 475
SWIDTH 846 0
DWIDTH 20 0
BBX 18 32 1 -3
BITMAP
01F000
030800
077800
070800
070800
07FF00
082080
182080
392480
382080
382080
3FFFC0
207840
607840
E2B940
E27940
E27940
E27940
E27940
E27940
E27940
E27940
E27940
E27940
E20140
E30240
F0F440
F00040
FC0180
7FFE00
3FFC00
0FF000
ENDCHAR
STARTCHAR udieresisgrave
ENCODING 476
SWIDTH 846 0
DWIDTH 20 0
BBX 18 32 1 -3
BITMAP
01F000
030800
077800
070800
070800
07FF00
082080
182080
392480
382080
382080
3FFFC0
207840
607840
E2B940
E27940
E27940
E27940
E27940
E27940
E27940
E27940
E27940
E27940
E20140
E30240
F0F440
F00040
FC0180
7FFE00
3FFC00
0FF000
ENDCHAR
STARTCHAR Gcaron
ENCODING 486
SWIDTH 808 0
DWIDTH 19 0
BBX 18 27 1 -3
BITMAP
070E00
08F100
190900
38F100
3C0200
3F9C00
3E6700
180080
100080
21FC80
620100
E47E00
E47C00
E47800
E48F80
E49040
E4B040
E47240
E47240
E40240
E20240
F1FE40
F00040
FC0040
7FFF80
7FFF00
1FFE00
ENDCHAR
STARTCHAR gcaron
ENCODING 487
SWIDTH 808 0
DWIDTH 19 0
BBX 18 27 1 -3
BITMAP
070E00
08F100
190900
38F100
3C0200
3F9C00
3E6700
180080
100080
21FC80
620100
E47E00
E47C00
E47800
E48F80
E49040
E4B040
E47240
E47240
E40240
E20240
F1FE40
F00040
FC0040
7FFF80
7FFF00
1FFE00
ENDCHAR
STARTCHAR Scommaaccent
ENCODING 536
SWIDTH 750 0
DWIDTH 18 0
BBX 17 29 1 -11
BITMAP
07FF00
180100
200100
63F900
E40100
E4FE00
E47C00
E40200
E20100
F1F080
F80C80
FF8480
FFE480
200480
200480
E7F880
E00100
E00200
FFFC00
FE0800
FE0800
0EE800
0E1800
0E1800
0FE800
0EC800
063000
0FC000
0F8000
ENDCHAR
STARTCHAR scommaaccent
ENCODING 537
SWIDTH 750 0
DWIDTH 18 0
BBX 17 29 1 -11
BITMAP
07FF00
180100
200100
63F900
E40100
E4FE00
E47C00
E40200
E20100
F1F080
F80C80
FF8480
FFE480
200480
200480
E7F880
E00100
E00200
FFFC00
FE0800
FE0800
0EE800
0E1800
0E1800
0FE800
0EC800
063000
0FC000
0F8000
ENDCHAR
STARTCHAR uni021A
ENCODING 538
SWIDTH 756 0
DWIDTH 18 0
BBX 18 29 0 -11
BITMAP
1FFFC0
200040
600040
E3FF40
E02040
FF2780
FF2700
FF2600
0F2400
0F2400
0F2400
0F2400
0F2400
0F2400
0F2400
0F2400
0F0400
0F0400
0FF800
0F0400
070400
077400
071400
071400
07F400
074400
031800
07E000
07C000
ENDCHAR
STARTCHAR uni021B
ENCODING 539
SWIDTH 756 0
DWIDTH 18 0
BBX 18 29 0 -11
BITMAP
1FFFC0
200040
600040
E3FF40
E02040
FF2780
FF2700
FF2600
0F2400
0F2400
0F2400
0F2400
0F2400
0F2400
0F2400
0F2400
0F0400
0F0400
0FF800
0F0400
070400
077400
071400
071400
07F400
074400
031800
07E000
07C000
ENDCHAR
STARTCHAR dotlessj
ENCODING 567
SWIDTH 788 0
DWIDTH 19 0
BBX 18 21 0 -3
BITMAP
000FC0
001040
003040
007240
007240
007240
007240
007240
0FF240
107240
307240
727240
F27240
F20240
F10240
F0BC40
F80080
7C0100
7FFE00
3FF800
0FF000
ENDCHAR
STARTCHAR ascript
ENCODING 593
SWIDTH 846 0
DWIDTH 20 0
BBX 18 21 1 -3
BITMAP
07FF00
080080
11FC40
220240
620140
E47140
E47940
E47940
E47940
E47940
E47940
E47940
E47940
E20140
E20140
F17E40
F00040
FC0040
FFFF80
7FFF00
1FFE00
ENDCHAR
STARTCHAR schwa
ENCODING 601
SWIDTH 815 0
DWIDTH 20 0
BBX 18 21 1 -3
BITMAP
0FFF00
080080
39F440
380240
380240
3FF240
3FF940
200140
200140
E3FE40
E40140
E4F940
E47140
E40240
E20240
E17C40
F00080
FC0100
FFFE00
7FF800
1FF000
ENDCHAR
STARTCHAR gscript
ENCODING 609
SWIDTH 815 0
DWIDTH 20 0
BBX 18 22 1 -4
BITMAP
07FF00
080080
11FC40
220240
640240
E47140
E4F140
E4F140
E40140
E20140
E0FE40
F00140
FC0140
FFF140
7FF140
180240
180240
39FC80
380100
3FFE00
3FFC00
3FF000
ENDCHAR
STARTCHAR commaturnedmod
ENCODING 699
SWIDTH 600 0
DWIDTH 14 0
BBX 9 11 3 7
BITMAP
0F80
1680
2B00
E880
E880
EE80
E080
E080
FF00
FE00
FC00
ENDCHAR
STARTCHAR apostrophemod
ENCODING 700
SWIDTH 600 0
DWIDTH 14 0
BBX 9 12 3 6
BITMAP
1F00
2080
6080
EE80
E180
E180
FE80
EC80
6300
FC00
F800
E000
ENDCHAR
STARTCHAR ringhalfright
ENCODING 702
SWIDTH 412 0
DWIDTH 10 0
BBX 10 11 0 7
BITMAP
1F80
3640
7140
FD40
FD40
F140
3640
70C0
FF00
FE00
FC00
ENDCHAR
STARTCHAR ringhalfleft
ENCODING 703
SWIDTH 412 0
DWIDTH 10 0
BBX 10 11 0 7
BITMAP
0FC0
1340
3440
7580
F500
F580
F340
F040
FF80
FF00
7E00
ENDCHAR
STARTCHAR circumflex
ENCODING 710
SWIDTH 600 0
DWIDTH 14 0
BBX 14 9 0 15
BITMAP
01E0
0E18
11E4
3214
7004
F7F4
FFF8
FBF0
4020
ENDCHAR
STARTCHAR caron
ENCODING 711
SWIDTH 600 0
DWIDTH 14 0
BBX 14 9 0 15
BITMAP
0C1C
13E4
7214
F1E4
F804
FE38
FFE0
7FC0
0E00
ENDCHAR
STARTCHAR verticallinemod
ENCODING 712
SWIDTH 456 0
DWIDTH 11 0
BBX 9 12 1 6
BITMAP
1F80
2080
E280
E280
E280
E280
E280
E080
E080
FF00
FE00
FC00
ENDCHAR
STARTCHAR firsttonechinese
ENCODING 713
SWIDTH 600 0
DWIDTH 14 0
BBX 14 8 0 15
BITMAP
0FFC
1004
3004
73F4
F004
FFF8
FFF0
7FE0
ENDCHAR
STARTCHAR secondtonechinese
ENCODING 714
SWIDTH 600 0
DWIDTH 14 0
BBX 14 9 0 15
BITMAP
0038
0FC4
1014
33E4
7004
F1F8
FFF0
FFC0
6000
ENDCHAR
STARTCHAR fourthtonechinese
ENCODING 715
SWIDTH 600 0
DWIDTH 14 0
BBX 14 8 0 15
BITMAP
1FF8
3004
73F4
F004
FFE4
FFF8
7FF0
00E0
ENDCHAR
STARTCHAR verticallinelowmod
ENCODING 716
SWIDTH 456 0
DWIDTH 11 0
BBX 9 12 1 -6
BITMAP
1F80
2080
E280
E280
E280
E280
E280
E080
E080
FF00
FE00
FC00
ENDCHAR
STARTCHAR breve
ENCODING 728
SWIDTH 600 0
DWIDTH 14 0
BBX 14 9 0 15
BITMAP
0E38
1144
74CC
F414
F3E4
F808
FFF0
7FE0
3F80
ENDCHAR
STARTCHAR dotaccent
ENCODING 729
SWIDTH 600 0
DWIDTH 14 0
BBX 9 8 3 15
BITMAP
1F00
2080
6480
E080
E080
FF00
FE00
FC00
ENDCHAR
STARTCHAR ring
ENCODING 730
SWIDTH 600 0
DWIDTH 14 0
BBX 14 13 0 15
BITMAP
06D0
0808
12E4
3414
74CC
F5CC
F4CC
F414
F2E4
F808
FFF0
7FE0
3F80
ENDCHAR
STARTCHAR ogonek
ENCODING 731
SWIDTH 600 0
DWIDTH 14 0
BBX 9 10 3 -8
BITMAP
1F00
2500
6500
E580
E680
E080
F080
FF00
FE00
7C00
ENDCHAR
STARTCHAR tilde
ENCODING 732
SWIDTH 600 0
DWIDTH 14 0
BBX 14 8 0 15
BITMAP
0FFC
1004
33F4
7004
F204
FFF8
FFE0
EFC0
ENDCHAR
STARTCHAR hungarumlaut
ENCODING 733
SWIDTH 600 0
DWIDTH 14 0
BBX 16 10 -1 15
BITMAP
079E
0861
1861
326A
72CA
70C2
70C2
7FFC
FDF0
F9E0
ENDCHAR
STARTCHAR gravecmb
ENCODING 768
SWIDTH 100 0
DWIDTH 2 0
BBX 14 8 -6 15
BITMAP
1FF8
3004
73F4
F004
FFE4
FFF8
7FF0
00E0
ENDCHAR
STARTCHAR acutecmb
ENCODING 769
SWIDTH 100 0
DWIDTH 2 0
BBX 14 9 -6 15
BITMAP
0038
0FC4
1014
33E4
7004
F1F8
FFF0
FFC0
6000
ENDCHAR
STARTCHAR circumflexcmb
ENCODING 770
SWIDTH 100 0
DWIDTH 2 0
BBX 14 9 -6 15
BITMAP
01E0
0E18
11E4
3214
7004
F7F4
FFF8
FBF0
4020
ENDCHAR
STARTCHAR tildecmb
ENCODING 771
SWIDTH 100 0
DWIDTH 2 0
BBX 14 8 -6 15
BITMAP
0FFC
1004
33F4
7004
F204
FFF8
FFE0
6FC0
ENDCHAR
STARTCHAR uni0304
ENCODING 772
SWIDTH 600 0
DWIDTH 14 0
BBX 14 8 0 15
BITMAP
0FFC
1004
3004
73F4
F004
FFF8
FFF0
7FE0
ENDCHAR
STARTCHAR brevecmb
ENCODING 774
SWIDTH 100 0
DWIDTH 2 0
BBX 14 9 -6 15
BITMAP
0E38
1144
74CC
F414
F3E4
F808
FFF0
7FE0
3F80
ENDCHAR
STARTCHAR dotaccentcmb
ENCODING 775
SWIDTH 100 0
DWIDTH 2 0
BBX 9 8 -3 15
BITMAP
1F00
2080
6480
E080
E080
FF00
FE00
F800
ENDCHAR
STARTCHAR dieresiscmb
ENCODING 776
SWIDTH 100 0
DWIDTH 2 0
BBX 15 8 -6 15
BITMAP
1F7C
2082
6492
E082
E082
FFFC
FFF8
FBE0
ENDCHAR
STARTCHAR hookcmb
ENCODING 777
SWIDTH 100 0
DWIDTH 2 0
BBX 10 10 -3 15
BITMAP
1F80
2F40
E0C0
FEC0
F3C0
F440
7380
7F00
7E00
4000
ENDCHAR
STARTCHAR ringcmb
ENCODING 778
SWIDTH 100 0
DWIDTH 2 0
BBX 14 13 -6 15
BITMAP
06D0
0808
12E4
3414
74CC
F5CC
F4CC
F414
F2E4
F808
FFF0
7FE0
3F80
ENDCHAR
STARTCHAR hungarumlautcmb
ENCODING 779
SWIDTH 100 0
DWIDTH 2 0
BBX 16 10 -6 15
BITMAP
079E
0861
1861
326A
72CA
70C2
70C2
7FFC
FDF0
F9E0
ENDCHAR
STARTCHAR caroncmb
ENCODING 780
SWIDTH 100 0
DWIDTH 2 0
BBX 14 9 -6 15
BITMAP
0C1C
13E4
7214
F1E4
F804
FE38
FFE0
7FC0
0E00
ENDCHAR
STARTCHAR horncmb
ENCODING 795
SWIDTH 100 0
DWIDTH 2 0
BBX 9 8 -4 12
BITMAP
0780
0880
3280
7280
7C80
F300
FC00
F800
ENDCHAR
STARTCHAR dotbelowcmb
ENCODING 803
SWIDTH 100 0
DWIDTH 2 0
BBX 9 8 -3 -9
BITMAP
1F00
2080
6480
E080
E080
FF00
FE00
F800
ENDCHAR
STARTCHAR dieresisbelowcmb
ENCODING 804
SWIDTH 100 0
DWIDTH 2 0
BBX 15 8 -6 -9
BITMAP
1F7C
2082
6492
E082
E082
FFFC
FFF8
FBE0
ENDCHAR
STARTCHAR commaaccent
ENCODING 806
SWIDTH 600 0
DWIDTH 14 0
BBX 9 12 3 -12
BITMAP
1F00
2080
6080
EE80
E180
E180
FE80
EC80
6300
FC00
F800
E000
ENDCHAR
STARTCHAR cedillacmb
ENCODING 807
SWIDTH 100 0
DWIDTH 2 0
BBX 10 10 -4 -6
BITMAP
0780
0840
1940
3240
3240
7080
6080
7F00
FC00
F800
ENDCHAR
STARTCHAR ogonekcmb
ENCODING 808
SWIDTH 100 0
DWIDTH 2 0
BBX 10 10 -3 -8
BITMAP
0F00
1480
3500
7480
7640
F040
F040
FF80
FF00
7E00
ENDCHAR
STARTCHAR brevebelowcmb
ENCODING 814
SWIDTH 100 0
DWIDTH 2 0
BBX 14 9 -6 -9
BITMAP
0E38
1144
74CC
F414
F3E4
F808
FFF0
7FE0
3F80
ENDCHAR
STARTCHAR macronbelowcmb
ENCODING 817
SWIDTH 100 0
DWIDTH 2 0
BBX 14 8 -6 -8
BITMAP
0FF8
1004
3004
73F4
F004
FFF8
FFF0
7FE0
ENDCHAR
STARTCHAR uni0394
ENCODING 916
SWIDTH 830 0
DWIDTH 20 0
BBX 18 21 1 -3
BITMAP
03FE00
040100
0C0100
18F900
390480
392480
392480
326280
727240
727240
727240
647240
E4F940
E40140
E40140
E7FF40
E00040
E00040
FFFF80
FFFF00
FFFE00
ENDCHAR
STARTCHAR uni03A9
ENCODING 937
SWIDTH 877 0
DWIDTH 21 0
BBX 21 21 0 -3
BITMAP
01FF80
020060
0C7E10
188110
390090
393C90
793C90
793C90
793C90
793C90
793C90
793C90
793C90
711C88
709908
73DBC8
F01808
F01808
FFFFF0
FFFFE0
FF3FC0
ENDCHAR
STARTCHAR uni03BC
ENCODING 956
SWIDTH 813 0
DWIDTH 20 0
BBX 18 20 1 -5
BITMAP
1F0F80
209040
60B040
E47240
E47240
E47240
E47240
E47240
E47240
E47240
E20240
E60640
E5E840
E40080
E40300
E07C00
E07800
FFE000
FE0000
FC0000
ENDCHAR
STARTCHAR pi
ENCODING 960
SWIDTH 821 0
DWIDTH 20 0
BBX 18 17 1 -3
BITMAP
1FFFC0
200040
63FE40
E40240
E40240
E47240
E47240
E47240
E47240
E47240
E47240
E47240
E07040
E0F040
FF7F80
FE7F00
FC7E00
ENDCHAR
STARTCHAR Ddotbelow
ENCODING 7692
SWIDTH 846 0
DWIDTH 20 0
BBX 19 27 1 -9
BITMAP
1FFF00
2000C0
600040
E3FC20
E20220
E20120
E27920
E27920
E27920
E2B920
E2B920
E2B920
E2B920
E27120
E20320
E3FC40
E00040
E00180
FFFE00
FF0400
FF0400
072400
070400
070400
07F800
07F000
07C000
ENDCHAR
STARTCHAR ddotbelow
ENCODING 7693
SWIDTH 846 0
DWIDTH 20 0
BBX 19 27 1 -9
BITMAP
1FFF00
2000C0
600040
E3FC20
E20220
E20120
E27920
E27920
E27920
E2B920
E2B920
E2B920
E2B920
E27120
E20320
E3FC40
E00040
E00180
FFFE00
FF0400
FF0400
072400
070400
070400
07F800
07F000
07C000
ENDCHAR
STARTCHAR Dlinebelow
ENCODING 7694
SWIDTH 846 0
DWIDTH 20 0
BBX 19 26 1 -8
BITMAP
1FFF00
2000C0
600040
E3FC20
E20220
E20120
E27920
E27920
E27920
E2B920
E2B920
E2B920
E2B920
E27120
E20320
E3FC40
E00040
F00180
FFFE00
FC0100
FC0100
1CF900
3C0100
3FFE00
3FFC00
3FF800
ENDCHAR
STARTCHAR dlinebelow
ENCODING 7695
SWIDTH 846 0
DWIDTH 20 0
BBX 19 26 1 -8
BITMAP
1FFF00
2000C0
600040
E3FC20
E20220
E20120
E27920
E27920
E27920
E2B920
E2B920
E2B920
E2B920
E27120
E20320
E3FC40
E00040
F00180
FFFE00
FC0100
FC0100
1CF900
3C0100
3FFE00
3FFC00
3FF800
ENDCHAR
STARTCHAR Gmacron
ENCODING 7712
SWIDTH 808 0
DWIDTH 19 0
BBX 18 26 1 -3
BITMAP
03FE00
040080
0CFC80
1C0080
1C0100
1FFF00
1C0080
100080
11FC80
220080
647F00
E47C00
E47800
E48F80
E49040
E4B040
E47240
E47240
E40240
E20240
F1FE40
F00040
FC0040
7FFF80
7FFF00
1FFE00
ENDCHAR
STARTCHAR gmacron
ENCODING 7713
SWIDTH 808 0
DWIDTH 19 0
BBX 18 26 1 -3
BITMAP
03FE00
040080
0CFC80
1C0080
1C0100
1FFF00
1C0080
100080
11FC80
220080
647F00
E47C00
E47800
E48F80
E49040
E4B040
E47240
E47240
E40240
E20240
F1FE40
F00040
FC0040
7FFF80
7FFF00
1FFE00
ENDCHAR
STARTCHAR Hdotbelow
ENCODING 7716
SWIDTH 859 0
DWIDTH 21 0
BBX 19 27 1 -9
BITMAP
1F8FE0
208820
60B820
E2B920
E2B920
E2B920
E27920
E20120
E20120
E3FF20
E20120
E20120
E27920
E27920
E27920
E2B920
E0B820
F0B820
FFFFC0
FF0380
FF0200
072400
070400
070400
07F800
07F000
07E000
ENDCHAR
STARTCHAR hdotbelow
ENCODING 7717
SWIDTH 859 0
DWIDTH 21 0
BBX 19 27 1 -9
BITMAP
1F8FE0
208820
60B820
E2B920
E2B920
E2B920
E27920
E20120
E20120
E3FF20
E20120
E20120
E27920
E27920
E27920
E2B920
E0B820
F0B820
FFFFC0
FF0380
FF0200
072400
070400
070400
07F800
07F000
07E000
ENDCHAR
STARTCHAR Hbrevebelow
ENCODING 7722
SWIDTH 859 0
DWIDTH 21 0
BBX 19 27 1 -9
BITMAP
1F8FE0
208820
60B820
E2B920
E2B920
E2B920
E27920
E20120
E20120
E3FF20
E20120
E20120
E27920
E27920
E27920
E2B920
E0B820
F0B860
FFFF80
FC3080
FC3080
1D0280
3CFD00
3E0200
3FFC00
1FF800
0FE000
ENDCHAR
STARTCHAR hbrevebelow
ENCODING 7723
SWIDTH 859 0
DWIDTH 21 0
BBX 19 27 1 -9
BITMAP
1F8FE0
208820
60B820
E2B920
E2B920
E2B920
E27920
E20120
E20120
E3FF20
E20120
E20120
E27920
E27920
E27920
E2B920
E0B820
F0B860
FFFF80
FC3080
FC3080
1D0280
3CFD00
3E0200
3FFC00
1FF800
0FE000
ENDCHAR
STARTCHAR Ldotbelow
ENCODING 7734
SWIDTH 795 0
DWIDTH 19 0
BBX 18 27 1 -9
BITMAP
1F8000
208000
608000
E28000
E28000
E28000
E28000
E28000
E28F80
E29040
E2B040
E27240
E27240
E20240
E20240
E3FE40
E00040
E00040
FFFF80
FF0700
FF0400
072400
0F0400
0F0400
0FF800
0FE000
07C000
ENDCHAR
STARTCHAR ldotbelow
ENCODING 7735
SWIDTH 795 0
DWIDTH 19 0
BBX 18 27 1 -9
BITMAP
1F8000
208000
608000
E28000
E28000
E28000
E28000
E28000
E28F80
E29040
E2B040
E27240
E27240
E20240
E20240
E3FE40
E00040
E00040
FFFF80
FF0700
FF0400
072400
0F0400
0F0400
0FF800
0FE000
07C000
ENDCHAR
STARTCHAR Ldotbelowmacron
ENCODING 7736
SWIDTH 795 0
DWIDTH 19 0
BBX 18 32 1 -9
BITMAP
07FE00
080100
19F900
380100
380100
3FFE00
207800
607000
E28000
E28000
E28000
E28000
E28000
E28F80
E29040
E2B040
E27240
E27240
E20240
E20240
E3FE40
E00040
E00040
FFFF80
FF0700
FF0400
072400
0F0400
0F0400
0FF800
0FE000
07C000
ENDCHAR
STARTCHAR ldotbelowmacron
ENCODING 7737
SWIDTH 795 0
DWIDTH 19 0
BBX 18 32 1 -9
BITMAP
07FE00
080100
19F900
380100
380100
3FFE00
207800
607000
E28000
E28000
E28000
E28000
E28000
E28F80
E29040
E2B040
E27240
E27240
E20240
E20240
E3FE40
E00040
E00040
FFFF80
FF0700
FF0400
072400
0F0400
0F0400
0FF800
0FE000
07C000
ENDCHAR
STARTCHAR Llinebelow
ENCODING 7738
SWIDTH 795 0
DWIDTH 19 0
BBX 18 26 1 -8
BITMAP
1F8000
208000
608000
E28000
E28000
E28000
E28000
E28000
E28F80
E29040
E2B040
E27240
E27240
E20240
E20240
E3FE40
E00040
E00040
FFFF80
F80100
F9F900
380100
380100
3FFE00
3FF800
3FF000
ENDCHAR
STARTCHAR llinebelow
ENCODING 7739
SWIDTH 795 0
DWIDTH 19 0
BBX 18 26 1 -8
BITMAP
1F8000
208000
608000
E28000
E28000
E28000
E28000
E28000
E28F80
E29040
E2B040
E27240
E27240
E20240
E20240
E3FE40
E00040
E00040
FFFF80
F80100
F9F900
380100
380100
3FFE00
3FF800
3FF000
ENDCHAR
STARTCHAR Mdotbelow
ENCODING 7746
SWIDTH 949 0
DWIDTH 23 0
BBX 21 27 1 -9
BITMAP
1F83F8
204208
602408
E328C8
E29948
E29248
E24248
E22448
E29948
E24248
E24248
E24648
E27E48
E26E48
E24E48
E28E48
E08E08
F08E08
FF7FF0
FE81E0
FD81C0
039200
038200
038200
03FC00
03F800
03F000
ENDCHAR
STARTCHAR mdotbelow
ENCODING 7747
SWIDTH 949 0
DWIDTH 23 0
BBX 21 27 1 -9
BITMAP
1F83F8
204208
602408
E328C8
E29948
E29248
E24248
E22448
E29948
E24248
E24248
E24648
E27E48
E26E48
E24E48
E28E48
E08E08
F08E08
FF7FF0
FE81E0
FD81C0
039200
038200
038200
03FC00
03F800
03F000
ENDCHAR
STARTCHAR Ndotaccent
ENCODING 7748
SWIDTH 853 0
DWIDTH 20 0
BBX 18 27 1 -3
BITMAP
00F800
010400
030400
072400
070400
070400
18FBC0
207840
605840
E23940
E31940
E28940
E24940
E22140
E21140
E28940
E24940
E26540
E26340
E27140
E27940
E27940
E07840
F0B840
FF3FC0
FE3F00
FC3E00
ENDCHAR
STARTCHAR ndotaccent
ENCODING 7749
SWIDTH 853 0
DWIDTH 20 0
BBX 18 27 1 -3
BITMAP
00F800
010400
030400
072400
070400
070400
18FBC0
207840
605840
E23940
E31940
E28940
E24940
E22140
E21140
E28940
E24940
E26540
E26340
E27140
E27940
E27940
E07840
F0B840
FF3FC0
FE3F00
FC3E00
ENDCHAR
STARTCHAR Ndotbelow
ENCODING 7750
SWIDTH 853 0
DWIDTH 20 0
BBX 18 27 1 -9
BITMAP
1F0FC0
208840
605840
E23940
E31940
E28940
E24940
E22140
E21140
E28940
E24940
E26540
E26340
E27140
E27940
E27940
E07840
F0B840
FFFFC0
FF0300
FF0200
072400
070400
070400
07F800
07F000
07E000
ENDCHAR
STARTCHAR ndotbelow
ENCODING 7751
SWIDTH 853 0
DWIDTH 20 0
BBX 18 27 1 -9
BITMAP
1F0FC0
208840
605840
E23940
E31940
E28940
E24940
E22140
E21140
E28940
E24940
E26540
E26340
E27140
E27940
E27940
E07840
F0B840
FFFFC0
FF0300
FF0200
072400
070400
070400
07F800
07F000
07E000
ENDCHAR
STARTCHAR Nlinebelow
ENCODING 7752
SWIDTH 853 0
DWIDTH 20 0
BBX 18 26 1 -8
BITMAP
1F0FC0
208840
605840
E23940
E31940
E28940
E24940
E22140
E21140
E28940
E24940
E26540
E26340
E27140
E27940
E27940
E07840
F0B840
FFFF80
FC0100
FCFD00
1C0100
3C0100
3FFE00
3FFC00
1FF800
ENDCHAR
STARTCHAR nlinebelow
ENCODING 7753
SWIDTH 853 0
DWIDTH 20 0
BBX 18 26 1 -8
BITMAP
1F0FC0
208840
605840
E23940
E31940
E28940
E24940
E22140
E21140
E28940
E24940
E26540
E26340
E27140
E27940
E27940
E07840
F0B840
FFFF80
FC0100
FCFD00
1C0100
3C0100
3FFE00
3FFC00
1FF800
ENDCHAR
STARTCHAR Rdotbelow
ENCODING 7770
SWIDTH 843 0
DWIDTH 20 0
BBX 19 27 1 -9
BITMAP
1FFF00
200080
600080
E3F840
E20440
E27240
E27240
E27280
E20280
E20440
E3FE20
E20120
E27920
E27920
E27920
E2B920
E0B820
F0B820
FFFFC0
FF0380
FF0300
071400
070400
070400
07F800
07F000
07E000
ENDCHAR
STARTCHAR rdotbelow
ENCODING 7771
SWIDTH 843 0
DWIDTH 20 0
BBX 19 27 1 -9
BITMAP
1FFF00
200080
600080
E3F840
E20440
E27240
E27240
E27280
E20280
E20440
E3FE20
E20120
E27920
E27920
E27920
E2B920
E0B820
F0B820
FFFFC0
FF0380
FF0300
071400
070400
070400
07F800
07F000
07E000
ENDCHAR
STARTCHAR Rdotbelowmacron
ENCODING 7772
SWIDTH 843 0
DWIDTH 20 0
BBX 19 32 1 -9
BITMAP
07FC00
080200
19FA00
380200
780200
7FFC00
600300
600080
63F880
E20440
E27240
E27240
E27280
E20280
E20440
E3FE20
E20120
E27920
E27920
E27920
E2B920
E0B820
E0B820
FFFFC0
FF0380
FF0300
071400
070400
070400
07F800
07F000
07E000
ENDCHAR
STARTCHAR rdotbelowmacron
ENCODING 7773
SWIDTH 843 0
DWIDTH 20 0
BBX 19 32 1 -9
BITMAP
07FC00
080200
19FA00
380200
780200
7FFC00
600300
600080
63F880
E20440
E27240
E27240
E27280
E20280
E20440
E3FE20
E20120
E27920
E27920
E27920
E2B920
E0B820
E0B820
FFFFC0
FF0380
FF0300
071400
070400
070400
07F800
07F000
07E000
ENDCHAR
STARTCHAR Rlinebelow
ENCODING 7774
SWIDTH 843 0
DWIDTH 20 0
BBX 19 26 1 -8
BITMAP
1FFF00
200080
63F880
E20440
E20440
E27240
E27240
E27280
E20480
E20440
E3FE20
E20120
E20120
E27920
E27920
E2B920
E0B820
F0B820
FFFFC0
FC0080
FCFD00
1C0100
3C0100
3FFE00
3FFC00
1FF800
ENDCHAR
STARTCHAR rlinebelow
ENCODING 7775
SWIDTH 843 0
DWIDTH 20 0
BBX 19 26 1 -8
BITMAP
1FFF00
200080
63F880
E20440
E20440
E27240
E27240
E27280
E20480
E20440
E3FE20
E20120
E20120
E27920
E27920
E2B920
E0B820
F0B820
FFFFC0
FC0080
FCFD00
1C0100
3C0100
3FFE00
3FFC00
1FF800
ENDCHAR
STARTCHAR Sdotaccent
ENCODING 7776
SWIDTH 750 0
DWIDTH 18 0
BBX 17 27 1 -3
BITMAP
01F000
020800
060800
0E4800
0E0800
0E0800
0DF700
100100
100100
23F900
E40100
E4FE00
E47C00
E40200
E20100
F1F080
F80C80
FF8480
FFE480
200480
200480
E7F880
E00100
E00200
FFFC00
FFF000
FFE000
ENDCHAR
STARTCHAR sdotaccent
ENCODING 7777
SWIDTH 750 0
DWIDTH 18 0
BBX 17 27 1 -3
BITMAP
01F000
020800
060800
0E4800
0E0800
0E0800
0DF700
100100
100100
23F900
E40100
E4FE00
E47C00
E40200
E20100
F1F080
F80C80
FF8480
FFE480
200480
200480
E7F880
E00100
E00200
FFFC00
FFF000
FFE000
ENDCHAR
STARTCHAR Sdotbelow
ENCODING 7778
SWIDTH 750 0
DWIDTH 18 0
BBX 17 27 1 -9
BITMAP
07FF00
180100
200100
63F900
E40100
E4FE00
E47C00
E40200
E20100
F1F080
F80C80
FF8480
FFE480
200480
200480
E7F880
E00100
E00200
FFFC00
FE0800
FE0800
0E4800
0E0800
0E0800
0FF000
0FE000
0F8000
ENDCHAR
STARTCHAR sdotbelow
ENCODING 7779
SWIDTH 750 0
DWIDTH 18 0
BBX 17 27 1 -9
BITMAP
07FF00
180100
200100
63F900
E40100
E4FE00
E47C00
E40200
E20100
F1F080
F80C80
FF8480
FFE480
200480
200480
E7F880
E00100
E00200
FFFC00
FE0800
FE0800
0E4800
0E0800
0E0800
0FF000
0FE000
0F8000
ENDCHAR
STARTCHAR Tdotbelow
ENCODING 7788
SWIDTH 756 0
DWIDTH 18 0
BBX 18 27 0 -9
BITMAP
1FFFC0
200040
600040
E3FF40
E02040
FF2780
FF2700
FF2600
0F2400
0F2400
0F2400
0F2400
0F2400
0F2400
0F2400
0F2400
0F0400
0F0400
0FF800
0F0400
070400
072400
070400
070400
07F800
07E000
07C000
ENDCHAR
STARTCHAR tdotbelow
ENCODING 7789
SWIDTH 756 0
DWIDTH 18 0
BBX 18 27 0 -9
BITMAP
1FFFC0
200040
600040
E3FF40
E02040
FF2780
FF2700
FF2600
0F2400
0F2400
0F2400
0F2400
0F2400
0F2400
0F2400
0F2400
0F0400
0F0400
0FF800
0F0400
070400
072400
070400
070400
07F800
07E000
07C000
ENDCHAR
STARTCHAR Tlinebelow
ENCODING 7790
SWIDTH 756 0
DWIDTH 18 0
BBX 18 26 0 -8
BITMAP
1FFFC0
200040
63FF40
E02040
E02040
FF2780
FF2700
FF2600
0F2400
0F2400
0F2400
0F2400
0F2400
0F2400
0F2400
0F2400
0F0400
0F0400
0FFE00
0C0100
0CFD00
1C0100
3C0100
3FFE00
3FFC00
3FF800
ENDCHAR
STARTCHAR tlinebelow
ENCODING 7791
SWIDTH 756 0
DWIDTH 18 0
BBX 18 26 0 -8
BITMAP
1FFFC0
200040
63FF40
E02040
E02040
FF2780
FF2700
FF2600
0F2400
0F2400
0F2400
0F2400
0F2400
0F2400
0F2400
0F2400
0F0400
0F0400
0FFE00
0C0100
0CFD00
1C0100
3C0100
3FFE00
3FFC00
3FF800
ENDCHAR
STARTCHAR Wgrave
ENCODING 7808
SWIDTH 931 0
DWIDTH 22 0
BBX 21 27 1 -3
BITMAP
03E000
041F00
0CF080
1C0C80
1E0080
1FF080
10FF78
207E08
608608
E48E48
E48E48
E48E48
E4BE48
E44248
E44248
E49A48
E42448
E44448
E24248
F29248
F29990
F11890
F83810
783820
7FFFC0
7F3F80
3E3F00
ENDCHAR
STARTCHAR wgrave
ENCODING 7809
SWIDTH 931 0
DWIDTH 22 0
BBX 21 27 1 -3
BITMAP
03E000
041F00
0CF080
1C0C80
1E0080
1FF080
10FF78
207E08
608608
E48E48
E48E48
E48E48
E4BE48
E44248
E44248
E49A48
E42448
E44448
E24248
F29248
F29990
F11890
F83810
783820
7FFFC0
7F3F80
3E3F00
ENDCHAR
STARTCHAR Wacute
ENCODING 7810
SWIDTH 931 0
DWIDTH 22 0
BBX 21 27 1 -3
BITMAP
000780
01F840
021E40
066040
0E0080
0E1F00
11FEF8
207208
608608
E48E48
E48E48
E48E48
E4BE48
E44248
E44248
E49A48
E42448
E44448
E24248
F29248
F29990
F11890
F83810
783820
7FFFC0
7F3F80
3E3F00
ENDCHAR
STARTCHAR wacute
ENCODING 7811
SWIDTH 931 0
DWIDTH 22 0
BBX 21 27 1 -3
BITMAP
000780
01F840
021E40
066040
0E0080
0E1F00
11FEF8
207208
608608
E48E48
E48E48
E48E48
E4BE48
E44248
E44248
E49A48
E42448
E44448
E24248
F29248
F29990
F11890
F83810
783820
7FFFC0
7F3F80
3E3F00
ENDCHAR
STARTCHAR Wdieresis
ENCODING 7812
SWIDTH 931 0
DWIDTH 22 0
BBX 21 26 1 -3
BITMAP
03EF80
041040
0C9240
1C1040
1C1040
1FFFF0
207E08
607E08
E48E48
E48E48
E48E48
E4BE48
E44248
E44248
E49A48
E42448
E44448
E24248
E29248
F29990
F11890
F83810
783820
7FFFC0
7F3F80
3E3F00
ENDCHAR
STARTCHAR wdieresis
ENCODING 7813
SWIDTH 931 0
DWIDTH 22 0
BBX 21 26 1 -3
BITMAP
03EF80
041040
0C9240
1C1040
1C1040
1FFFF0
207E08
607E08
E48E48
E48E48
E48E48
E4BE48
E44248
E44248
E49A48
E42448
E44448
E24248
E29248
F29990
F11890
F83810
783820
7FFFC0
7F3F80
3E3F00
ENDCHAR
STARTCHAR Ydotaccent
ENCODING 7822
SWIDTH 805 0
DWIDTH 19 0
BBX 19 27 0 -3
BITMAP
007C00
018200
030200
071200
070200
078400
187BE0
307820
707820
727920
F27920
F27920
F23920
F23120
F11220
788240
7C4480
7E3880
3E1100
1F1200
1F1200
0F1200
070200
078200
07FC00
07F000
07E000
ENDCHAR
STARTCHAR ydotaccent
ENCODING 7823
SWIDTH 805 0
DWIDTH 19 0
BBX 19 27 0 -3
BITMAP
007C00
018200
030200
071200
070200
078400
187BE0
307820
707820
727920
F27920
F27920
F23920
F23120
F11220
788240
7C4480
7E3880
3E1100
1F1200
1F1200
0F1200
070200
078200
07FC00
07F000
07E000
ENDCHAR
STARTCHAR Zdotbelow
ENCODING 7826
SWIDTH 760 0
DWIDTH 18 0
BBX 17 27 1 -9
BITMAP
1FFF80
200080
600080
E7F880
E00480
FF8880
FF1100
FE1200
062200
0C4400
088800
111000
212000
623F00
E40080
E3FC80
E00080
E00080
FFFF00
FE0600
FE0400
0E4800
0E0800
0E0800
0FF000
0FE000
0FC000
ENDCHAR
STARTCHAR zdotbelow
ENCODING 7827
SWIDTH 760 0
DWIDTH 18 0
BBX 17 27 1 -9
BITMAP
1FFF80
200080
600080
E7F880
E00480
FF8880
FF1100
FE1200
062200
0C4400
088800
111000
212000
623F00
E40080
E3FC80
E00080
E00080
FFFF00
FE0600
FE0400
0E4800
0E0800
0E0800
0FF000
0FE000
0FC000
ENDCHAR
STARTCHAR tdieresis
ENCODING 7831
SWIDTH 756 0
DWIDTH 18 0
BBX 18 26 0 -3
BITMAP
07DF00
082080
192480
382080
382080
37DF40
200040
600040
E3FF40
E02040
FF2780
FF2700
FF2600
0F2400
0F2400
0F2400
0F2400
0F2400
0F2400
0F2400
0F2400
0F0400
0F0400
0FF800
0FF000
07E000
ENDCHAR
STARTCHAR Germandbls
ENCODING 7838
SWIDTH 859 0
DWIDTH 21 0
BBX 19 21 1 -3
BITMAP
1FFF00
200080
600080
E3F880
E20480
E20480
E26480
E26480
E26460
E26720
E240A0
E27CA0
E27CA0
E260A0
E240A0
E24F20
E04020
F04040
FFFF80
FFFE00
FDFC00
ENDCHAR
STARTCHAR Adotbelow
ENCODING 7840
SWIDTH 830 0
DWIDTH 20 0
BBX 18 27 1 -9
BITMAP
03FE00
040100
0C0100
18F900
190480
312480
317440
327240
627240
640140
E40140
E3FE40
E40140
E40140
E4F940
E4F940
E0F840
E0F840
FFFF80
FF0700
FB0600
072400
0F0400
0F0400
0FF800
0FE000
07C000
ENDCHAR
STARTCHAR adotbelow
ENCODING 7841
SWIDTH 830 0
DWIDTH 20 0
BBX 18 27 1 -9
BITMAP
03FE00
040100
0C0100
18F900
190480
312480
317440
327240
627240
640140
E40140
E3FE40
E40140
E40140
E4F940
E4F940
E0F840
E0F840
FFFF80
FF0700
FB0600
072400
0F0400
0F0400
0FF800
0FE000
07C000
ENDCHAR
STARTCHAR Ahookabove
ENCODING 7842
SWIDTH 830 0
DWIDTH 20 0
BBX 18 28 1 -3
BITMAP
01FC00
02F200
060A00
0FEA00
0F3A00
0F4400
07F800
040600
040100
0C0100
18F900
190480
312480
317440
327240
627240
640140
E40140
E3FE40
E40140
E40140
E4F940
E4F940
E0F840
E0F840
FF7F80
FE7F00
F87E00
ENDCHAR
STARTCHAR ahookabove
ENCODING 7843
SWIDTH 830 0
DWIDTH 20 0
BBX 18 28 1 -3
BITMAP
01FC00
02F200
060A00
0FEA00
0F3A00
0F4400
07F800
040600
040100
0C0100
18F900
190480
312480
317440
327240
627240
640140
E40140
E3FE40
E40140
E40140
E4F940
E4F940
E0F840
E0F840
FF7F80
FE7F00
F87E00
ENDCHAR
STARTCHAR Acircumflexacute
ENCODING 7844
SWIDTH 830 0
DWIDTH 20 0
BBX 18 32 1 -3
BITMAP
000F80
001080
003680
007080
00F100
00FE00
030600
047100
098D00
180100
38F900
3FFE00
3C0200
3C0100
08F900
190480
392480
317480
327240
727240
640140
E40140
E3FE40
E40140
E40140
E4F940
E4F940
E0F840
E0F840
FF7FC0
FE7F00
F87E00
ENDCHAR
STARTCHAR acircumflexacute
ENCODING 7845
SWIDTH 830 0
DWIDTH 20 0
BBX 18 32 1 -3
BITMAP
000F80
001080
003680
007080
00F100
00FE00
030600
047100
098D00
180100
38F900
3FFE00
3C0200
3C0100
08F900
190480
392480
317480
327240
727240
640140
E40140
E3FE40
E40140
E40140
E4F940
E4F940
E0F840
E0F840
FF7FC0
FE7F00
F87E00
ENDCHAR
STARTCHAR Acircumflexgrave
ENCODING 7846
SWIDTH 830 0
DWIDTH 20 0
BBX 18 32 1 -3
BITMAP
001C00
002300
006880
00E680
00E080
00FD00
030600
047100
098D00
180100
38F900
3FFE00
3C0200
3C0100
08F900
190480
392480
317480
327240
727240
640140
E40140
E3FE40
E40140
E40140
E4F940
E4F940
E0F840
E0F840
FF7FC0
FE7F00
F87E00
ENDCHAR
STARTCHAR acircumflexgrave
ENCODING 7847
SWIDTH 830 0
DWIDTH 20 0
BBX 18 32 1 -3
BITMAP
001C00
002300
006880
00E680
00E080
00FD00
030600
047100
098D00
180100
38F900
3FFE00
3C0200
3C0100
08F900
190480
392480
317480
327240
727240
640140
E40140
E3FE40
E40140
E40140
E4F940
E4F940
E0F840
E0F840
FF7FC0
FE7F00
F87E00
ENDCHAR
STARTCHAR Acircumflexhookabove
ENCODING 7848
SWIDTH 830 0
DWIDTH 20 0
BBX 19 34 1 -3
BITMAP
001FC0
002020
0067A0
00F0A0
00FEA0
00F3A0
007820
00DBC0
030700
047100
098D00
180100
38F900
3FFE00
3C0200
3C0100
08F900
190480
392480
317480
327240
727240
640140
E40120
E3FE20
E40120
E40120
E4F920
E4F920
E0F820
E0F820
FF7FC0
FE7F00
F87E00
ENDCHAR
STARTCHAR acircumflexhookabove
ENCODING 7849
SWIDTH 830 0
DWIDTH 20 0
BBX 19 34 1 -3
BITMAP
001FC0
002020
0067A0
00F0A0
00FEA0
00F3A0
007820
00DBC0
030700
047100
098D00
180100
38F900
3FFE00
3C0200
3C0100
08F900
190480
392480
317480
327240
727240
640140
E40120
E3FE20
E40120
E40120
E4F920
E4F920
E0F820
E0F820
FF7FC0
FE7F00
F87E00
ENDCHAR
STARTCHAR Acircumflextilde
ENCODING 7850
SWIDTH 830 0
DWIDTH 20 0
BBX 18 32 1 -3
BITMAP
03FE00
040100
09F900
380100
3DE200
3FDC00
3E0200
247100
098D00
180100
38F900
3FFE00
3C0200
3C0100
08F900
190480
392480
317480
327240
727240
640140
E40140
E3FE40
E40140
E40140
E4F940
E4F940
E0F840
E0F840
FF7FC0
FE7F00
F87E00
ENDCHAR
STARTCHAR acircumflextilde
ENCODING 7851
SWIDTH 830 0
DWIDTH 20 0
BBX 18 32 1 -3
BITMAP
03FE00
040100
09F900
380100
3DE200
3FDC00
3E0200
247100
098D00
180100
38F900
3FFE00
3C0200
3C0100
08F900
190480
392480
317480
327240
727240
640140
E40140
E3FE40
E40140
E40140
E4F940
E4F940
E0F840
E0F840
FF7FC0
FE7F00
F87E00
ENDCHAR
STARTCHAR Acircumflexdotbelow
ENCODING 7852
SWIDTH 830 0
DWIDTH 20 0
BBX 18 33 1 -9
BITMAP
007000
038E00
047100
098D00
180100
38F900
3FFE00
3C0200
3C0100
08F900
190480
392480
317480
327240
727240
640140
E40140
E3FE40
E40140
E40140
E4F940
E4F940
E0F840
E0F840
FFFFC0
FF0700
FB0600
072400
0F0400
0F0400
0FF800
0FE000
07C000
ENDCHAR
STARTCHAR acircumflexdotbelow
ENCODING 7853
SWIDTH 830 0
DWIDTH 20 0
BBX 18 33 1 -9
BITMAP
007000
038E00
047100
098D00
180100
38F900
3FFE00
3C0200
3C0100
08F900
190480
392480
317480
327240
727240
640140
E40140
E3FE40
E40140
E40140
E4F940
E4F940
E0F840
E0F840
FFFFC0
FF0700
FB0600
072400
0F0400
0F0400
0FF800
0FE000
07C000
ENDCHAR
STARTCHAR Abreveacute
ENCODING 7854
SWIDTH 830 0
DWIDTH 20 0
BBX 18 32 1 -3
BITMAP
003E00
004200
009A00
038200
038400
07FF00
087100
197500
390500
3CF900
3E0600
3FFE00
3C0100
0C0100
08F900
190480
392480
317440
327240
627240
640140
E40140
E3FE40
E40140
E40140
E4F940
E4F940
E0F840
E0F840
FF7F80
FE7F00
F87E00
ENDCHAR
STARTCHAR abreveacute
ENCODING 7855
SWIDTH 830 0
DWIDTH 20 0
BBX 18 32 1 -3
BITMAP
003E00
004200
009A00
038200
038400
07FF00
087100
197500
390500
3CF900
3E0600
3FFE00
3C0100
0C0100
08F900
190480
392480
317440
327240
627240
640140
E40140
E3FE40
E40140
E40140
E4F940
E4F940
E0F840
E0F840
FF7F80
FE7F00
F87E00
ENDCHAR
STARTCHAR Abrevegrave
ENCODING 7856
SWIDTH 830 0
DWIDTH 20 0
BBX 18 32 1 -3
BITMAP
03E000
061000
0ED000
0E1000
0F1000
0FEF00
085100
197500
390500
3CF900
3E0600
3FFE00
3C0100
0C0100
08F900
190480
392480
317440
327240
627240
640140
E40140
E3FE40
E40140
E40140
E4F940
E4F940
E0F840
E0F840
FF7F80
FE7F00
F87E00
ENDCHAR
STARTCHAR abrevegrave
ENCODING 7857
SWIDTH 830 0
DWIDTH 20 0
BBX 18 32 1 -3
BITMAP
03E000
061000
0ED000
0E1000
0F1000
0FEF00
085100
197500
390500
3CF900
3E0600
3FFE00
3C0100
0C0100
08F900
190480
392480
317440
327240
627240
640140
E40140
E3FE40
E40140
E40140
E4F940
E4F940
E0F840
E0F840
FF7F80
FE7F00
F87E00
ENDCHAR
STARTCHAR Abrevehookabove
ENCODING 7858
SWIDTH 830 0
DWIDTH 20 0
BBX 18 34 1 -3
BITMAP
00FC00
017A00
070500
07F500
078500
07BA00
038400
07FF00
087100
197500
390500
3CF900
3E0600
3FFE00
3C0100
0C0100
08F900
190480
392480
317440
327240
627240
640140
E40140
E3FE40
E40140
E40140
E4F940
E4F940
E0F840
E0F840
FF7F80
FE7F00
F87E00
ENDCHAR
STARTCHAR abrevehookabove
ENCODING 7859
SWIDTH 830 0
DWIDTH 20 0
BBX 18 34 1 -3
BITMAP
00FC00
017A00
070500
07F500
078500
07BA00
038400
07FF00
087100
197500
390500
3CF900
3E0600
3FFE00
3C0100
0C0100
08F900
190480
392480
317440
327240
627240
640140
E40140
E3FE40
E40140
E40140
E4F940
E4F940
E0F840
E0F840
FF7F80
FE7F00
F87E00
ENDCHAR
STARTCHAR Abrevetilde
ENCODING 7860
SWIDTH 830 0
DWIDTH 20 0
BBX 18 32 1 -3
BITMAP
07FE00
040100
18F900
380100
3DE200
3FFF00
387100
397500
390500
3CF900
3E0600
3FFE00
3C0100
0C0100
08F900
190480
392480
317440
327240
627240
640140
E40140
E3FE40
E40140
E40140
E4F940
E4F940
E0F840
E0F840
FF7F80
FE7F00
F87E00
ENDCHAR
STARTCHAR abrevetilde
ENCODING 7861
SWIDTH 830 0
DWIDTH 20 0
BBX 18 32 1 -3
BITMAP
07FE00
040100
18F900
380100
3DE200
3FFF00
387100
397500
390500
3CF900
3E0600
3FFE00
3C0100
0C0100
08F900
190480
392480
317440
327240
627240
640140
E40140
E3FE40
E40140
E40140
E4F940
E4F940
E0F840
E0F840
FF7F80
FE7F00
F87E00
ENDCHAR
STARTCHAR Abrevedotbelow
ENCODING 7862
SWIDTH 830 0
DWIDTH 20 0
BBX 18 33 1 -9
BITMAP
078F00
085100
197500
390500
3CF900
3E0600
3FFE00
3C0100
0C0100
08F900
190480
392480
317440
327240
627240
640140
E40140
E3FE40
E40140
E40140
E4F940
E4F940
E0F840
E0F840
FFFF80
FF0700
FB0600
072400
0F0400
0F0400
0FF800
0FE000
07C000
ENDCHAR
STARTCHAR abrevedotbelow
ENCODING 7863
SWIDTH 830 0
DWIDTH 20 0
BBX 18 33 1 -9
BITMAP
078F00
085100
197500
390500
3CF900
3E0600
3FFE00
3C0100
0C0100
08F900
190480
392480
317440
327240
627240
640140
E40140
E3FE40
E40140
E40140
E4F940
E4F940
E0F840
E0F840
FFFF80
FF0700
FB0600
072400
0F0400
0F0400
0FF800
0FE000
07C000
ENDCHAR
STARTCHAR Edotbelow
ENCODING 7864
SWIDTH 754 0
DWIDTH 18 0
BBX 17 27 1 -9
BITMAP
1FFF80
200080
600080
E3FC80
E20080
E27F00
E27E00
E20200
E20200
E3F200
E20200
E20400
E27800
E27F00
E20080
E3FC80
E00080
E00080
FFFF00
FE0600
FE0400
0E4800
0E0800
0E0800
0FF000
0FE000
0FC000
ENDCHAR
STARTCHAR edotbelow
ENCODING 7865
SWIDTH 754 0
DWIDTH 18 0
BBX 17 27 1 -9
BITMAP
1FFF80
200080
600080
E3FC80
E20080
E27F00
E27E00
E20200
E20200
E3F200
E20200
E20400
E27800
E27F00
E20080
E3FC80
E00080
E00080
FFFF00
FE0600
FE0400
0E4800
0E0800
0E0800
0FF000
0FE000
0FC000
ENDCHAR
STARTCHAR Ehookabove
ENCODING 7866
SWIDTH 754 0
DWIDTH 18 0
BBX 17 28 1 -3
BITMAP
03F800
04F400
0C1400
1FD400
1E3400
1F4400
0FF800
100F80
200080
600080
E3FC80
E20080
E27F00
E27E00
E20200
E20200
E3F200
E20200
E20400
E27800
E27F00
E20080
E3FC80
E00080
F00080
FFFF00
FFFE00
FFF800
ENDCHAR
STARTCHAR ehookabove
ENCODING 7867
SWIDTH 754 0
DWIDTH 18 0
BBX 17 28 1 -3
BITMAP
03F800
04F400
0C1400
1FD400
1E3400
1F4400
0FF800
100F80
200080
600080
E3FC80
E20080
E27F00
E27E00
E20200
E20200
E3F200
E20200
E20400
E27800
E27F00
E20080
E3FC80
E00080
F00080
FFFF00
FFFE00
FFF800
ENDCHAR
STARTCHAR Etilde
ENCODING 7868
SWIDTH 754 0
DWIDTH 18 0
BBX 17 26 1 -3
BITMAP
07FE00
080200
19F200
380A00
7BC200
743D80
600080
600080
E3FC80
E20080
E27F00
E27E00
E20200
E20200
E3F200
E20200
E20400
E27800
E27F00
E20080
E3FC80
E00080
F00080
FFFF00
FFFE00
FFF800
ENDCHAR
STARTCHAR etilde
ENCODING 7869
SWIDTH 754 0
DWIDTH 18 0
BBX 17 26 1 -3
BITMAP
07FE00
080200
19F200
380A00
7BC200
743D80
600080
600080
E3FC80
E20080
E27F00
E27E00
E20200
E20200
E3F200
E20200
E20400
E27800
E27F00
E20080
E3FC80
E00080
F00080
FFFF00
FFFE00
FFF800
ENDCHAR
STARTCHAR Ecircumflexacute
ENCODING 7870
SWIDTH 754 0
DWIDTH 18 0
BBX 17 32 1 -3
BITMAP
001F00
002100
006D00
00E100
00E200
00FC00
070400
08F200
190A00
384200
7FFE00
700180
600080
600080
E3FC80
E20080
E27F00
E27E00
E20200
E20200
E3F200
E20200
E20400
E27800
E27F00
E20080
E3FC80
E00080
F00080
FFFF00
FFFE00
FFF800
ENDCHAR
STARTCHAR ecircumflexacute
ENCODING 7871
SWIDTH 754 0
DWIDTH 18 0
BBX 17 32 1 -3
BITMAP
001F00
002100
006D00
00E100
00E200
00FC00
070400
08F200
190A00
384200
7FFE00
700180
600080
600080
E3FC80
E20080
E27F00
E27E00
E20200
E20200
E3F200
E20200
E20400
E27800
E27F00
E20080
E3FC80
E00080
F00080
FFFF00
FFFE00
FFF800
ENDCHAR
STARTCHAR Ecircumflexgrave
ENCODING 7872
SWIDTH 754 0
DWIDTH 18 0
BBX 17 32 1 -3
BITMAP
003800
004600
00C100
01CD00
01C100
01FD00
060600
08F200
190A00
384200
7FFE00
700180
600080
600080
E3FC80
E20080
E27F00
E27E00
E20200
E20200
E3F200
E20200
E20400
E27800
E27F00
E20080
E3FC80
E00080
F00080
FFFF00
FFFE00
FFF800
ENDCHAR
STARTCHAR ecircumflexgrave
ENCODING 7873
SWIDTH 754 0
DWIDTH 18 0
BBX 17 32 1 -3
BITMAP
003800
004600
00C100
01CD00
01C100
01FD00
060600
08F200
190A00
384200
7FFE00
700180
600080
600080
E3FC80
E20080
E27F00
E27E00
E20200
E20200
E3F200
E20200
E20400
E27800
E27F00
E20080
E3FC80
E00080
F00080
FFFF00
FFFE00
FFF800
ENDCHAR
STARTCHAR Ecircumflexhookabove
ENCODING 7874
SWIDTH 754 0
DWIDTH 18 0
BBX 18 34 1 -3
BITMAP
001F80
002040
006F40
00E0C0
01FEC0
01F340
00F440
00BB80
070600
08F200
190A00
384200
7FFE00
700180
600080
600080
E3FC80
E20080
E27F00
E27E00
E20200
E20200
E3F200
E20200
E20400
E27800
E27F00
E20080
E3FC80
E00080
F00080
FFFF00
FFFE00
FFF800
ENDCHAR
STARTCHAR ecircumflexhookabove
ENCODING 7875
SWIDTH 754 0
DWIDTH 18 0
BBX 18 34 1 -3
BITMAP
001F80
002040
006F40
00E0C0
01FEC0
01F340
00F440
00BB80
070600
08F200
190A00
384200
7FFE00
700180
600080
600080
E3FC80
E20080
E27F00
E27E00
E20200
E20200
E3F200
E20200
E20400
E27800
E27F00
E20080
E3FC80
E00080
F00080
FFFF00
FFFE00
FFF800
ENDCHAR
STARTCHAR Ecircumflextilde
ENCODING 7876
SWIDTH 754 0
DWIDTH 18 0
BBX 17 32 1 -3
BITMAP
07FE00
080200
19FA00
380200
7BC600
7FB800
7C0400
28F200
190A00
384200
7FFE00
700180
600080
600080
E3FC80
E20080
E27F00
E27E00
E20200
E20200
E3F200
E20200
E20400
E27800
E27F00
E20080
E3FC80
E00080
F00080
FFFF00
FFFE00
FFF800
ENDCHAR
STARTCHAR ecircumflextilde
ENCODING 7877
SWIDTH 754 0
DWIDTH 18 0
BBX 17 32 1 -3
BITMAP
07FE00
080200
19FA00
380200
7BC600
7FB800
7C0400
28F200
190A00
384200
7FFE00
700180
600080
600080
E3FC80
E20080
E27F00
E27E00
E20200
E20200
E3F200
E20200
E20400
E27800
E27F00
E20080
E3FC80
E00080
F00080
FFFF00
FFFE00
FFF800
ENDCHAR
STARTCHAR Ecircumflexdotbelow
ENCODING 7878
SWIDTH 754 0
DWIDTH 18 0
BBX 17 33 1 -9
BITMAP
00F000
070C00
08F200
190A00
384200
7FFE00
700180
600080
600080
E3FC80
E20080
E27F00
E27E00
E20200
E20200
E3F200
E20200
E20400
E27800
E27F00
E20080
E3FC80
E00080
E00080
FFFF00
FE0E00
FE0800
0E4800
0E0800
0E0800
0FF000
0FC000
0F8000
ENDCHAR
STARTCHAR ecircumflexdotbelow
ENCODING 7879
SWIDTH 754 0
DWIDTH 18 0
BBX 17 33 1 -9
BITMAP
00F000
070C00
08F200
190A00
384200
7FFE00
700180
600080
600080
E3FC80
E20080
E27F00
E27E00
E20200
E20200
E3F200
E20200
E20400
E27800
E27F00
E20080
E3FC80
E00080
E00080
FFFF00
FE0E00
FE0800
0E4800
0E0800
0E0800
0FF000
0FC000
0F8000
ENDCHAR
STARTCHAR Ihookabove
ENCODING 7880
SWIDTH 705 0
DWIDTH 17 0
BBX 15 28 1 -3
BITMAP
07F0
09C8
1C18
3F98
3E68
3E88
1FF0
201E
2002
E002
E7FA
E042
F042
FC4C
FC48
1C50
1C50
1C50
1C50
1C50
1C4E
2042
67FA
E002
E002
FFFE
FFF8
FFF0
ENDCHAR
STARTCHAR ihookabove
ENCODING 7881
SWIDTH 705 0
DWIDTH 17 0
BBX 15 28 1 -3
BITMAP
07F0
09C8
1C18
3F98
3E68
3E88
1FF0
201E
2002
E002
E7FA
E042
F042
FC4C
FC48
1C50
1C50
1C50
1C50
1C50
1C4E
2042
67FA
E002
E002
FFFE
FFF8
FFF0
ENDCHAR
STARTCHAR Idotbelow
ENCODING 7882
SWIDTH 705 0
DWIDTH 17 0
BBX 15 27 1 -9
BITMAP
1FFE
2002
6002
E7FA
E042
F042
FC4C
FC48
1C50
1C50
1C50
1C50
1C50
1C4E
2042
67FA
E002
E002
FFFE
FC08
FC10
0C50
1C10
1C10
1FE0
1FC0
1F80
ENDCHAR
STARTCHAR idotbelow
ENCODING 7883
SWIDTH 705 0
DWIDTH 17 0
BBX 15 27 1 -9
BITMAP
1FFE
2002
6002
E7FA
E042
F042
FC4C
FC48
1C50
1C50
1C50
1C50
1C50
1C4E
2042
67FA
E002
E002
FFFE
FC08
FC10
0C50
1C10
1C10
1FE0
1FC0
1F80
ENDCHAR
STARTCHAR Odotbelow
ENCODING 7884
SWIDTH 837 0
DWIDTH 20 0
BBX 18 27 1 -9
BITMAP
07FF00
080080
10FC40
230240
620140
E47140
E47940
E47940
E47940
E47940
E47940
E47940
E47940
E47140
E20140
F20240
F1FC40
FC0180
FFFE00
7F0400
3F0400
072400
070400
070400
07F800
07E000
07C000
ENDCHAR
STARTCHAR odotbelow
ENCODING 7885
SWIDTH 837 0
DWIDTH 20 0
BBX 18 27 1 -9
BITMAP
07FF00
080080
10FC40
230240
620140
E47140
E47940
E47940
E47940
E47940
E47940
E47940
E47940
E47140
E20140
F20240
F1FC40
FC0180
FFFE00
7F0400
3F0400
072400
070400
070400
07F800
07E000
07C000
ENDCHAR
STARTCHAR Ohookabove
ENCODING 7886
SWIDTH 837 0
DWIDTH 20 0
BBX 18 28 1 -3
BITMAP
01F800
02F600
060A00
0FEA00
0F1A00
0F6400
07F800
040700
080080
11FC40
220240
620140
E47140
E47940
E47940
E47940
E47940
E47940
E47940
E47940
E27140
E20240
F1FC40
F00040
FC0180
7FFE00
3FFC00
0FF000
ENDCHAR
STARTCHAR ohookabove
ENCODING 7887
SWIDTH 837 0
DWIDTH 20 0
BBX 18 28 1 -3
BITMAP
01F800
02F600
060A00
0FEA00
0F1A00
0F6400
07F800
040700
080080
11FC40
220240
620140
E47140
E47940
E47940
E47940
E47940
E47940
E47940
E47940
E27140
E20240
F1FC40
F00040
FC0180
7FFE00
3FFC00
0FF000
ENDCHAR
STARTCHAR Ocircumflexacute
ENCODING 7888
SWIDTH 837 0
DWIDTH 20 0
BBX 18 33 1 -3
BITMAP
000100
000E80
001280
007480
00F080
00F100
018E00
020100
04F900
1C0100
3C2100
3FFF00
3C0100
300080
31FC40
220240
620140
E47140
E47940
E47940
E47940
E47940
E47940
E47940
E47940
E27140
E20240
F1FC40
F00040
FC0180
7FFE00
3FFC00
0FF000
ENDCHAR
STARTCHAR ocircumflexacute
ENCODING 7889
SWIDTH 837 0
DWIDTH 20 0
BBX 18 33 1 -3
BITMAP
000100
000E80
001280
007480
00F080
00F100
018E00
020100
04F900
1C0100
3C2100
3FFF00
3C0100
300080
31FC40
220240
620140
E47140
E47940
E47940
E47940
E47940
E47940
E47940
E47940
E27140
E20240
F1FC40
F00040
FC0180
7FFE00
3FFC00
0FF000
ENDCHAR
STARTCHAR Ocircumflexgrave
ENCODING 7890
SWIDTH 837 0
DWIDTH 20 0
BBX 18 32 1 -3
BITMAP
001C00
002300
00EE80
00E080
00F080
018D00
020200
04F900
0C0100
3C2100
3FFF00
3C0100
300080
31FC40
220240
620140
E47140
E47940
E47940
E47940
E47940
E47940
E47940
E47940
E27140
E20240
F1FC40
F00040
FC0180
7FFE00
3FFC00
0FF000
ENDCHAR
STARTCHAR ocircumflexgrave
ENCODING 7891
SWIDTH 837 0
DWIDTH 20 0
BBX 18 32 1 -3
BITMAP
001C00
002300
00EE80
00E080
00F080
018D00
020200
04F900
0C0100
3C2100
3FFF00
3C0100
300080
31FC40
220240
620140
E47140
E47940
E47940
E47940
E47940
E47940
E47940
E47940
E27140
E20240
F1FC40
F00040
FC0180
7FFE00
3FFC00
0FF000
ENDCHAR
STARTCHAR Ocircumflexhookabove
ENCODING 7892
SWIDTH 837 0
DWIDTH 20 0
BBX 19 34 1 -3
BITMAP
000FC0
003020
007720
00F060
00FF60
00FBA0
00F820
00DFC0
030300
04F900
0C0100
1C2100
3FFF00
3C0100
300080
31FC40
220220
620120
E47120
E47920
E47920
E47920
E47920
E47920
E47920
E47920
E27120
E20220
F1FC40
F00040
FC0180
7FFE00
3FFC00
0FF000
ENDCHAR
STARTCHAR ocircumflexhookabove
ENCODING 7893
SWIDTH 837 0
DWIDTH 20 0
BBX 19 34 1 -3
BITMAP
000FC0
003020
007720
00F060
00FF60
00FBA0
00F820
00DFC0
030300
04F900
0C0100
1C2100
3FFF00
3C0100
300080
31FC40
220220
620120
E47120
E47920
E47920
E47920
E47920
E47920
E47920
E47920
E27120
E20220
F1FC40
F00040
FC0180
7FFE00
3FFC00
0FF000
ENDCHAR
STARTCHAR Ocircumflextilde
ENCODING 7894
SWIDTH 837 0
DWIDTH 20 0
BBX 18 33 1 -3
BITMAP
03F300
040D00
0CC100
1C3900
3C0100
3FFE00
3F8C00
3E0200
14F900
0C0100
1C2100
3FFF00
3C0100
300080
31FC40
220240
620140
E47140
E47940
E47940
E47940
E47940
E47940
E47940
E47940
E27140
E20240
F1FC40
F00040
FC0180
7FFE00
3FFC00
0FF000
ENDCHAR
STARTCHAR ocircumflextilde
ENCODING 7895
SWIDTH 837 0
DWIDTH 20 0
BBX 18 33 1 -3
BITMAP
03F300
040D00
0CC100
1C3900
3C0100
3FFE00
3F8C00
3E0200
14F900
0C0100
1C2100
3FFF00
3C0100
300080
31FC40
220240
620140
E47140
E47940
E47940
E47940
E47940
E47940
E47940
E47940
E27140
E20240
F1FC40
F00040
FC0180
7FFE00
3FFC00
0FF000
ENDCHAR
STARTCHAR Ocircumflexdotbelow
ENCODING 7896
SWIDTH 837 0
DWIDTH 20 0
BBX 18 33 1 -9
BITMAP
007000
038E00
047100
0D8D00
1C0100
3CF900
3FFE00
380180
30FC40
330240
620140
E47140
E47940
E47940
E47940
E47940
E47940
E47940
E47940
E47140
E20140
E20240
F1FC40
F00080
FC0100
7FFE00
3F0400
072400
070400
070400
07F800
07F000
07C000
ENDCHAR
STARTCHAR ocircumflexdotbelow
ENCODING 7897
SWIDTH 837 0
DWIDTH 20 0
BBX 18 33 1 -9
BITMAP
007000
038E00
047100
0D8D00
1C0100
3CF900
3FFE00
380180
30FC40
330240
620140
E47140
E47940
E47940
E47940
E47940
E47940
E47940
E47940
E47140
E20140
E20240
F1FC40
F00080
FC0100
7FFE00
3F0400
072400
070400
070400
07F800
07F000
07C000
ENDCHAR
STARTCHAR Ohornacute
ENCODING 7898
SWIDTH 847 0
DWIDTH 20 0
BBX 20 27 1 -3
BITMAP
001C00
07E200
080A00
19F200
7801E0
79FE10
7E0050
700090
31FF20
220220
620120
E47120
E47920
E47920
E47920
E47920
E47920
E47920
E47920
E27120
E20220
F1FC40
F00080
FC0100
FFFE00
7FFC00
1FF000
ENDCHAR
STARTCHAR ohornacute
ENCODING 7899
SWIDTH 847 0
DWIDTH 20 0
BBX 20 27 1 -3
BITMAP
001C00
07E200
080A00
19F200
7801E0
79FE10
7E0050
700090
31FF20
220220
620120
E47120
E47920
E47920
E47920
E47920
E47920
E47920
E47920
E27120
E20220
F1FC40
F00080
FC0100
FFFE00
7FFC00
1FF000
ENDCHAR
STARTCHAR Ohorngrave
ENCODING 7900
SWIDTH 847 0
DWIDTH 20 0
BBX 20 27 1 -3
BITMAP
0FC000
103C00
318200
707A00
7803E0
7FFE10
7C0050
080090
11FF20
220220
620120
E47120
E47920
E47920
E47920
E47920
E47920
E47920
E47920
E27120
E20220
F1FC40
F00080
FC0100
FFFE00
7FFC00
1FF000
ENDCHAR
STARTCHAR ohorngrave
ENCODING 7901
SWIDTH 847 0
DWIDTH 20 0
BBX 20 27 1 -3
BITMAP
0FC000
103C00
318200
707A00
7803E0
7FFE10
7C0050
080090
11FF20
220220
620120
E47120
E47920
E47920
E47920
E47920
E47920
E47920
E47920
E27120
E20220
F1FC40
F00080
FC0100
FFFE00
7FFC00
1FF000
ENDCHAR
STARTCHAR Ohornhookabove
ENCODING 7902
SWIDTH 847 0
DWIDTH 20 0
BBX 20 28 1 -3
BITMAP
01F800
02F600
060A00
0FEA00
0F0A00
0F75E0
07FA10
040450
080090
11FF20
220220
620120
E47120
E47920
E47920
E47920
E47920
E47920
E47920
E47920
E27120
E20220
F1FC40
F00080
FC0100
FFFE00
7FFC00
1FF000
ENDCHAR
STARTCHAR ohornhookabove
ENCODING 7903
SWIDTH 847 0
DWIDTH 20 0
BBX 20 28 1 -3
BITMAP
01F800
02F600
060A00
0FEA00
0F0A00
0F75E0
07FA10
040450
080090
11FF20
220220
620120
E47120
E47920
E47920
E47920
E47920
E47920
E47920
E47920
E27120
E20220
F1FC40
F00080
FC0100
FFFE00
7FFC00
1FF000
ENDCHAR
STARTCHAR Ohorntilde
ENCODING 7904
SWIDTH 847 0
DWIDTH 20 0
BBX 20 27 1 -3
BITMAP
07E600
081A00
198200
387A00
7801E0
79F610
7E0850
700090
11FF20
220220
620120
E47120
E47920
E47920
E47920
E47920
E47920
E47920
E47920
E27120
E20220
F1FC40
F00080
FC0100
FFFE00
7FFC00
1FF000
ENDCHAR
STARTCHAR ohorntilde
ENCODING 7905
SWIDTH 847 0
DWIDTH 20 0
BBX 20 27 1 -3
BITMAP
07E600
081A00
198200
387A00
7801E0
79F610
7E0850
700090
11FF20
220220
620120
E47120
E47920
E47920
E47920
E47920
E47920
E47920
E47920
E27120
E20220
F1FC40
F00080
FC0100
FFFE00
7FFC00
1FF000
ENDCHAR
STARTCHAR Ohorndotbelow
ENCODING 7906
SWIDTH 847 0
DWIDTH 20 0
BBX 20 28 1 -8
BITMAP
0001E0
000210
07FC50
080090
11FF20
220220
620120
E47120
E47920
E47920
E47920
E47920
E47920
E47920
E47920
E27120
E20220
F1FC40
F00080
FC0100
7FFE00
3F0400
072400
070400
070400
07F800
07F000
07C000
ENDCHAR
STARTCHAR ohorndotbelow
ENCODING 7907
SWIDTH 847 0
DWIDTH 20 0
BBX 20 28 1 -8
BITMAP
0001E0
000210
07FC50
080090
11FF20
220220
620120
E47120
E47920
E47920
E47920
E47920
E47920
E47920
E47920
E27120
E20220
F1FC40
F00080
FC0100
7FFE00
3F0400
072400
070400
070400
07F800
07F000
07C000
ENDCHAR
STARTCHAR Udotbelow
ENCODING 7908
SWIDTH 846 0
DWIDTH 20 0
BBX 18 26 1 -8
BITMAP
1F8FC0
209840
62B940
E27940
E27940
E27940
E27940
E27940
E27940
E27940
E27940
E27940
E27940
E20140
E30240
F0BC40
F000C0
FC0100
7FFE00
3F0400
072400
070400
070400
07F800
07F000
07E000
ENDCHAR
STARTCHAR udotbelow
ENCODING 7909
SWIDTH 846 0
DWIDTH 20 0
BBX 18 26 1 -8
BITMAP
1F8FC0
209840
62B940
E27940
E27940
E27940
E27940
E27940
E27940
E27940
E27940
E27940
E27940
E20140
E30240
F0BC40
F000C0
FC0100
7FFE00
3F0400
072400
070400
070400
07F800
07F000
07E000
ENDCHAR
STARTCHAR Uhookabove
ENCODING 7910
SWIDTH 846 0
DWIDTH 20 0
BBX 18 28 1 -3
BITMAP
00FC00
017A00
070500
07F500
079D00
07A200
039C00
1C7BC0
207840
62B940
E27940
E27940
E27940
E27940
E27940
E27940
E27940
E27940
E27940
E27940
E20140
E30240
F0BC40
F00040
FC0180
7FFE00
3FFC00
0FF000
ENDCHAR
STARTCHAR uhookabove
ENCODING 7911
SWIDTH 846 0
DWIDTH 20 0
BBX 18 28 1 -3
BITMAP
00FC00
017A00
070500
07F500
079D00
07A200
039C00
1C7BC0
207840
62B940
E27940
E27940
E27940
E27940
E27940
E27940
E27940
E27940
E27940
E27940
E20140
E30240
F0BC40
F00040
FC0180
7FFE00
3FFC00
0FF000
ENDCHAR
STARTCHAR Uhornacute
ENCODING 7912
SWIDTH 856 0
DWIDTH 21 0
BBX 20 27 1 -3
BITMAP
001E00
07E200
080A00
39F200
7803E0
797E10
76FC50
605850
62B990
E27920
E27920
E27920
E27920
E27920
E27920
E27920
E27920
E27920
E27920
E20120
E30220
F0BC40
F00040
FC0180
7FFE00
3FFC00
0FF000
ENDCHAR
STARTCHAR uhornacute
ENCODING 7913
SWIDTH 856 0
DWIDTH 21 0
BBX 20 27 1 -3
BITMAP
001E00
07E200
080A00
39F200
7803E0
797E10
76FC50
605850
62B990
E27920
E27920
E27920
E27920
E27920
E27920
E27920
E27920
E27920
E27920
E20120
E30220
F0BC40
F00040
FC0180
7FFE00
3FFC00
0FF000
ENDCHAR
STARTCHAR Uhorngrave
ENCODING 7914
SWIDTH 856 0
DWIDTH 21 0
BBX 20 27 1 -3
BITMAP
070000
18FC00
300200
71F200
7803E0
7FC210
707C50
207850
62B990
E27920
E27920
E27920
E27920
E27920
E27920
E27920
E27920
E27920
E27920
E20120
E30220
F0BC40
F00040
FC0180
7FFE00
3FFC00
0FF000
ENDCHAR
STARTCHAR uhorngrave
ENCODING 7915
SWIDTH 856 0
DWIDTH 21 0
BBX 20 27 1 -3
BITMAP
070000
18FC00
300200
71F200
7803E0
7FC210
707C50
207850
62B990
E27920
E27920
E27920
E27920
E27920
E27920
E27920
E27920
E27920
E27920
E20120
E30220
F0BC40
F00040
FC0180
7FFE00
3FFC00
0FF000
ENDCHAR
STARTCHAR Uhornhookabove
ENCODING 7916
SWIDTH 856 0
DWIDTH 21 0
BBX 20 28 1 -3
BITMAP
00FC00
037A00
070600
0FF600
0F8E00
0FB3E0
079E10
187850
207850
62B990
E27920
E27920
E27920
E27920
E27920
E27920
E27920
E27920
E27920
E27920
E20120
E30220
F0BC40
F00040
FC0180
7FFE00
3FFC00
0FF000
ENDCHAR
STARTCHAR uhornhookabove
ENCODING 7917
SWIDTH 856 0
DWIDTH 21 0
BBX 20 28 1 -3
BITMAP
00FC00
037A00
070600
0FF600
0F8E00
0FB3E0
079E10
187850
207850
62B990
E27920
E27920
E27920
E27920
E27920
E27920
E27920
E27920
E27920
E27920
E20120
E30220
F0BC40
F00040
FC0180
7FFE00
3FFC00
0FF000
ENDCHAR
STARTCHAR Uhorntilde
ENCODING 7918
SWIDTH 856 0
DWIDTH 21 0
BBX 20 27 1 -3
BITMAP
07E600
081A00
180200
39FA00
7801E0
7B8210
747C50
607850
62B990
E27920
E27920
E27920
E27920
E27920
E27920
E27920
E27920
E27920
E27920
E20120
E30220
F0BC40
F00040
FC0180
7FFE00
3FFC00
0FF000
ENDCHAR
STARTCHAR uhorntilde
ENCODING 7919
SWIDTH 856 0
DWIDTH 21 0
BBX 20 27 1 -3
BITMAP
07E600
081A00
180200
39FA00
7801E0
7B8210
747C50
607850
62B990
E27920
E27920
E27920
E27920
E27920
E27920
E27920
E27920
E27920
E27920
E20120
E30220
F0BC40
F00040
FC0180
7FFE00
3FFC00
0FF000
ENDCHAR
STARTCHAR Uhorndotbelow
ENCODING 7920
SWIDTH 856 0
DWIDTH 21 0
BBX 20 28 1 -8
BITMAP
0001E0
000210
1F8C50
209850
62B990
E27920
E27920
E27920
E27920
E27920
E27920
E27920
E27920
E27920
E27920
E20120
E30220
F0BC40
F000C0
FC0100
7FFE00
3F0400
072400
070400
070400
07F800
07F000
07E000
ENDCHAR
STARTCHAR uhorndotbelow
ENCODING 7921
SWIDTH 856 0
DWIDTH 21 0
BBX 20 28 1 -8
BITMAP
0001E0
000210
1F8C50
209850
62B990
E27920
E27920
E27920
E27920
E27920
E27920
E27920
E27920
E27920
E27920
E20120
E30220
F0BC40
F000C0
FC0100
7FFE00
3F0400
072400
070400
070400
07F800
07F000
07E000
ENDCHAR
STARTCHAR Ygrave
ENCODING 7922
SWIDTH 805 0
DWIDTH 19 0
BBX 19 27 0 -3
BITMAP
03C000
043F00
0CF080
1C0C80
1C0080
1FF100
107EE0
307820
725920
727920
F27920
F27920
F23920
F13120
F10220
788440
7C4480
7E3880
3E1100
1F1200
1F1200
0F1200
070200
078200
07FC00
07F000
07E000
ENDCHAR
STARTCHAR ygrave
ENCODING 7923
SWIDTH 805 0
DWIDTH 19 0
BBX 19 27 0 -3
BITMAP
03C000
043F00
0CF080
1C0C80
1C0080
1FF100
107EE0
307820
725920
727920
F27920
F27920
F23920
F13120
F10220
788440
7C4480
7E3880
3E1100
1F1200
1F1200
0F1200
070200
078200
07FC00
07F000
07E000
ENDCHAR
STARTCHAR Ydotbelow
ENCODING 7924
SWIDTH 805 0
DWIDTH 19 0
BBX 19 27 0 -9
BITMAP
1FC7E0
304820
725920
727920
F27920
F27920
F23920
F13120
F10220
788440
7C4480
7E3900
3E1100
1F1200
1F1200
0F1200
070200
070200
07FC00
078200
070200
031200
070200
078200
07FC00
07F000
07E000
ENDCHAR
STARTCHAR ydotbelow
ENCODING 7925
SWIDTH 805 0
DWIDTH 19 0
BBX 19 27 0 -9
BITMAP
1FC7E0
304820
725920
727920
F27920
F27920
F23920
F13120
F10220
788440
7C4480
7E3900
3E1100
1F1200
1F1200
0F1200
070200
070200
07FC00
078200
070200
031200
070200
078200
07FC00
07F000
07E000
ENDCHAR
STARTCHAR Yhookabove
ENCODING 7926
SWIDTH 805 0
DWIDTH 19 0
BBX 19 28 0 -3
BITMAP
00FC00
017A00
070500
07F500
079D00
07A200
039C00
1C7BE0
306820
725920
727920
F27920
F27920
F23920
F13120
F10220
788440
7C4480
7E3880
3E1100
1F1200
1F1200
0F1200
070200
078200
07FC00
07F000
07E000
ENDCHAR
STARTCHAR yhookabove
ENCODING 7927
SWIDTH 805 0
DWIDTH 19 0
BBX 19 28 0 -3
BITMAP
00FC00
017A00
070500
07F500
079D00
07A200
039C00
1C7BE0
306820
725920
727920
F27920
F27920
F23920
F13120
F10220
788440
7C4480
7E3880
3E1100
1F1200
1F1200
0F1200
070200
078200
07FC00
07F000
07E000
ENDCHAR
STARTCHAR Ytilde
ENCODING 7928
SWIDTH 805 0
DWIDTH 19 0
BBX 19 26 0 -3
BITMAP
03FF00
040080
0CF880
1C0480
1D8100
127EE0
307820
725920
727920
F27920
F27920
F23920
F13120
F10220
788440
7C4480
7E3880
3E1100
1F1200
1F1200
0F1200
070200
078200
07FC00
07F000
07E000
ENDCHAR
STARTCHAR ytilde
ENCODING 7929
SWIDTH 805 0
DWIDTH 19 0
BBX 19 26 0 -3
BITMAP
03FF00
040080
0CF880
1C0480
1D8100
127EE0
307820
725920
727920
F27920
F27920
F23920
F13120
F10220
788440
7C4480
7E3880
3E1100
1F1200
1F1200
0F1200
070200
078200
07FC00
07F000
07E000
ENDCHAR
STARTCHAR enspace
ENCODING 8192
SWIDTH 500 0
DWIDTH 12 0
BBX 1 1 0 0
BITMAP
00
ENDCHAR
STARTCHAR emspace
ENCODING 8193
SWIDTH 1000 0
DWIDTH 24 0
BBX 1 1 0 0
BITMAP
00
ENDCHAR
STARTCHAR uni2002
ENCODING 8194
SWIDTH 500 0
DWIDTH 12 0
BBX 1 1 0 0
BITMAP
00
ENDCHAR
STARTCHAR uni2003
ENCODING 8195
SWIDTH 1000 0
DWIDTH 24 0
BBX 1 1 0 0
BITMAP
00
ENDCHAR
STARTCHAR space.tab_en
ENCODING 8199
SWIDTH 1100 0
DWIDTH 26 0
BBX 1 1 0 0
BITMAP
00
ENDCHAR
STARTCHAR uni2010
ENCODING 8208
SWIDTH 520 0
DWIDTH 12 0
BBX 12 8 0 3
BITMAP
0FE0
1010
73D0
F010
F010
FFF0
FFC0
FF80
ENDCHAR
STARTCHAR figuredash
ENCODING 8210
SWIDTH 834 0
DWIDTH 20 0
BBX 18 8 1 3
BITMAP
1FFF80
200040
63FF40
E00040
E00040
FFFF80
FFFF00
FFFE00
ENDCHAR
STARTCHAR endash
ENCODING 8211
SWIDTH 834 0
DWIDTH 20 0
BBX 18 8 1 3
BITMAP
1FFF80
200040
63FF40
E00040
E00040
FFFF80
FFFF00
FFFE00
ENDCHAR
STARTCHAR emdash
ENCODING 8212
SWIDTH 1234 0
DWIDTH 30 0
BBX 28 8 1 3
BITMAP
1FFFFFE0
20000010
63FFFF90
E0000010
E0000010
FFFFFFE0
FFFFFFC0
FFFFFF00
ENDCHAR
STARTCHAR horizontalbar
ENCODING 8213
SWIDTH 1234 0
DWIDTH 30 0
BBX 28 8 1 3
BITMAP
1FFFFFE0
20000010
63FFFF90
E0000010
E0000010
FFFFFFE0
FFFFFFC0
FFFFFF00
ENDCHAR
STARTCHAR quoteleft
ENCODING 8216
SWIDTH 484 0
DWIDTH 12 0
BBX 10 12 1 6
BITMAP
0FC0
1340
2440
6B80
E840
E840
E740
E040
E040
FF80
FF00
FE00
ENDCHAR
STARTCHAR quoteright
ENCODING 8217
SWIDTH 484 0
DWIDTH 12 0
BBX 10 12 1 6
BITMAP
1FC0
2040
E740
E140
E140
FF40
F140
E640
6080
FF00
FE00
F800
ENDCHAR
STARTCHAR quotesinglbase
ENCODING 8218
SWIDTH 484 0
DWIDTH 12 0
BBX 10 13 1 -5
BITMAP
1F80
2040
6040
E740
E140
E140
FF40
F140
E640
6080
FF00
FC00
F800
ENDCHAR
STARTCHAR quotedblleft
ENCODING 8220
SWIDTH 784 0
DWIDTH 19 0
BBX 18 12 0 6
BITMAP
07EFC0
0BB340
143440
35F580
743440
743440
F3B740
F03040
F03040
FFFFC0
FFFF00
7FFE00
ENDCHAR
STARTCHAR quotedblright
ENCODING 8221
SWIDTH 784 0
DWIDTH 19 0
BBX 18 12 0 6
BITMAP
1FFFC0
303040
73B740
F0B0C0
F0B0C0
FEBEC0
F0B0C0
733740
307040
7FFF80
7EFE00
7C7C00
ENDCHAR
STARTCHAR quotedblbase
ENCODING 8222
SWIDTH 784 0
DWIDTH 19 0
BBX 18 13 0 -5
BITMAP
0FCFC0
103040
303040
73B740
F0B0C0
F0B0C0
FEBEC0
F0B0C0
733740
307080
7FFF00
7EFE00
7C7C00
ENDCHAR
STARTCHAR dagger
ENCODING 8224
SWIDTH 818 0
DWIDTH 20 0
BBX 18 21 1 -3
BITMAP
01FC00
030400
070400
0F2400
1F2B80
202440
602040
E7FF40
E02040
E02040
FF2780
FF2700
FF2600
072800
072800
072400
070400
0F0400
0FF800
0FE000
0FC000
ENDCHAR
STARTCHAR daggerdbl
ENCODING 8225
SWIDTH 818 0
DWIDTH 20 0
BBX 18 21 1 -3
BITMAP
01FC00
030400
1F0780
202040
67FF40
E02040
E02040
FF27C0
FF2700
FF2680
202140
602040
E7FF40
E02040
E02040
E72740
FF0780
FF0700
07F800
0FE000
0FC000
ENDCHAR
STARTCHAR bullet
ENCODING 8226
SWIDTH 543 0
DWIDTH 13 0
BBX 13 12 0 2
BITMAP
0FF0
1008
33C8
7228
F228
F228
F3C8
F008
F008
FFF0
FFE0
7F80
ENDCHAR
STARTCHAR ellipsis
ENCODING 8230
SWIDTH 1210 0
DWIDTH 29 0
BBX 27 10 1 -3
BITMAP
1F8FC7E0
20503820
60303820
E2313920
E2313920
E0303820
E0303820
FFFFFFE0
FFFFFF80
FE7E7F00
ENDCHAR
STARTCHAR perthousand
ENCODING 8240
SWIDTH 1517 0
DWIDTH 36 0
BBX 36 21 0 -3
BITMAP
07E1F00000
1812100000
13CE100000
742CA00000
75ACA00000
F5ACA00000
F5AD200000
F5AD4F85A0
F429704810
F2C94A13D0
F81A509430
7FFA5295B0
7FB25295B0
1F72D295B0
0074D295B0
0074D09430
0060CA33D0
00E1E03810
00FFFFFFE0
00FDFF7F80
00F0FC3F00
ENDCHAR
STARTCHAR minute
ENCODING 8242
SWIDTH 456 0
DWIDTH 11 0
BBX 10 12 1 6
BITMAP
1FC0
2040
6240
E240
E240
E480
E480
E080
E080
FF00
FE00
FC00
ENDCHAR
STARTCHAR second
ENCODING 8243
SWIDTH 766 0
DWIDTH 18 0
BBX 17 12 1 6
BITMAP
1FFF80
206080
626480
E26480
E26480
E46480
E46480
E06080
E0E080
FFFF00
FFFC00
FDF800
ENDCHAR
STARTCHAR guilsinglleft
ENCODING 8249
SWIDTH 663 0
DWIDTH 16 0
BBX 14 15 1 0
BITMAP
0038
03C4
0C04
10E4
2304
6408
E4F0
E418
E204
F1E4
F004
FF04
FFF8
7FF0
07E0
ENDCHAR
STARTCHAR guilsinglright
ENCODING 8250
SWIDTH 663 0
DWIDTH 16 0
BBX 14 15 1 0
BITMAP
0E00
11F0
7008
F384
F064
F814
FF94
FC14
3034
33C4
7008
F070
FFE0
FF80
FC00
ENDCHAR
STARTCHAR fraction
ENCODING 8260
SWIDTH 417 0
DWIDTH 10 0
BBX 11 21 0 -3
BITMAP
07E0
0420
1D20
1920
3940
3940
3940
3A40
3A40
7280
7280
7280
7280
7480
6480
E500
E100
E100
FE00
FC00
F800
ENDCHAR
STARTCHAR zero.sups
ENCODING 8304
SWIDTH 656 0
DWIDTH 16 0
BBX 13 15 1 3
BITMAP
1FF0
25C8
2828
C828
CBA8
CBA8
CBA8
CBA8
CBA8
CBA8
C828
E5C8
F010
7FE0
3F80
ENDCHAR
STARTCHAR foursuperior
ENCODING 8308
SWIDTH 608 0
DWIDTH 15 0
BBX 14 16 0 2
BITMAP
1F7C
30C4
74D4
F4D4
F4D4
F4D4
F4D4
F414
F3F4
F814
7FD4
7FC4
3FC4
01F8
01F0
01E0
ENDCHAR
STARTCHAR five.sups
ENCODING 8309
SWIDTH 593 0
DWIDTH 14 0
BBX 13 16 1 2
BITMAP
1FF0
27C8
6408
E408
E5F0
E410
E788
E028
FFA8
E028
E028
6788
E010
FFE0
FF80
FF00
ENDCHAR
STARTCHAR six.sups
ENCODING 8310
SWIDTH 628 0
DWIDTH 15 0
BBX 14 16 1 2
BITMAP
0FF8
13E8
2408
6408
E5F0
E418
E7A4
E414
E594
E594
E414
F2A8
F810
FFE0
7FC0
1E00
ENDCHAR
STARTCHAR seven.sups
ENCODING 8311
SWIDTH 577 0
DWIDTH 14 0
BBX 13 16 0 2
BITMAP
1FF8
37E8
7018
F018
FF98
FF98
FC68
0988
1A10
3A60
3A40
3A40
3840
3F80
3E00
3C00
ENDCHAR
STARTCHAR eight.sups
ENCODING 8312
SWIDTH 638 0
DWIDTH 15 0
BBX 14 16 1 2
BITMAP
0FF0
12C8
3428
75A8
75A8
FC28
E3E4
E414
69D4
E9D4
E814
E7A4
F008
FFF0
FFC0
7F80
ENDCHAR
STARTCHAR nine.sups
ENCODING 8313
SWIDTH 628 0
DWIDTH 15 0
BBX 13 16 1 2
BITMAP
0FF0
13C8
2428
6818
E998
E998
E428
E3D8
F018
FF98
F028
3388
7010
7FE0
7FC0
7F00
ENDCHAR
STARTCHAR parenleft.sups
ENCODING 8317
SWIDTH 434 0
DWIDTH 10 0
BBX 8 18 1 2
BITMAP
0B
31
2D
49
CA
CA
CA
CA
CA
CA
CA
CA
C9
C9
E3
F1
FE
7C
ENDCHAR
STARTCHAR parenright.sups
ENCODING 8318
SWIDTH 435 0
DWIDTH 10 0
BBX 8 18 1 2
BITMAP
3C
43
CD
C5
F5
F5
35
35
35
35
35
35
35
45
D1
C2
FC
F0
ENDCHAR
STARTCHAR n.sups
ENCODING 8319
SWIDTH 673 0
DWIDTH 16 0
BBX 13 15 1 3
BITMAP
0FF0
17C8
2828
6998
EB98
EB98
EB98
EB98
EB98
EB98
EB98
E388
E388
FDF0
F1E0
ENDCHAR
STARTCHAR zero.sinf
ENCODING 8320
SWIDTH 656 0
DWIDTH 16 0
BBX 13 15 1 -2
BITMAP
1FF0
25C8
2828
C828
CBA8
CBA8
CBA8
CBA8
CBA8
CBA8
C828
E5C8
F010
7FE0
3F80
ENDCHAR
STARTCHAR one.sinf
ENCODING 8321
SWIDTH 557 0
DWIDTH 13 0
BBX 12 16 1 -3
BITMAP
1FC0
2740
6140
E140
F940
F940
F940
3940
3940
3930
2110
6FD0
E010
FFE0
FFC0
FF80
ENDCHAR
STARTCHAR two.sinf
ENCODING 8322
SWIDTH 585 0
DWIDTH 14 0
BBX 13 16 0 -3
BITMAP
0FF0
13E8
3018
7F98
7F18
7C28
09C8
1210
3460
74F8
F408
F3F8
F008
FFF8
FFE0
FFC0
ENDCHAR
STARTCHAR three.sinf
ENCODING 8323
SWIDTH 584 0
DWIDTH 14 0
BBX 13 16 1 -3
BITMAP
3FE0
6F90
E050
E050
FE50
F060
33D0
7028
7FA8
7F28
6028
6FC8
E010
FFE0
FF80
FF00
ENDCHAR
STARTCHAR four.sinf
ENCODING 8324
SWIDTH 620 0
DWIDTH 15 0
BBX 14 16 0 -3
BITMAP
1F7C
30C4
74D4
F4D4
F4D4
F4D4
F4D4
F414
F3F4
F814
FFD4
7FC4
3FC4
03F8
03F0
01E0
ENDCHAR
STARTCHAR five.sinf
ENCODING 8325
SWIDTH 593 0
DWIDTH 14 0
BBX 13 16 1 -3
BITMAP
1FF0
27C8
6408
E408
E5F0
E410
E788
E028
FFA8
E028
E028
6788
E010
FFE0
FF80
FF00
ENDCHAR
STARTCHAR six.sinf
ENCODING 8326
SWIDTH 628 0
DWIDTH 15 0
BBX 14 16 1 -3
BITMAP
0FF8
13E8
2408
6408
E5F0
E418
E7A4
E414
E594
E594
E414
F2A8
F810
FFE0
7FC0
1E00
ENDCHAR
STARTCHAR seven.sinf
ENCODING 8327
SWIDTH 577 0
DWIDTH 14 0
BBX 13 16 0 -3
BITMAP
1FF8
37E8
7018
F018
FF98
FF98
FC68
0988
1A10
3A60
3A40
3A40
3840
3F80
3E00
3C00
ENDCHAR
STARTCHAR eight.sinf
ENCODING 8328
SWIDTH 638 0
DWIDTH 15 0
BBX 14 16 1 -3
BITMAP
0FF0
12C8
3428
75A8
75A8
FC28
E3E4
E414
69D4
E9D4
E814
E7A4
F008
FFF0
FFC0
7F80
ENDCHAR
STARTCHAR nine.sinf
ENCODING 8329
SWIDTH 628 0
DWIDTH 15 0
BBX 13 16 1 -3
BITMAP
0FF0
13C8
2428
6818
E998
E998
E428
E3D8
F018
FF98
F028
3388
7010
7FE0
7FC0
7F00
ENDCHAR
STARTCHAR parenleft.sinf
ENCODING 8333
SWIDTH 434 0
DWIDTH 10 0
BBX 8 18 1 -3
BITMAP
0B
31
2D
49
CA
CA
CA
CA
CA
CA
CA
CA
C9
C9
E3
F1
FE
7C
ENDCHAR
STARTCHAR parenright.sinf
ENCODING 8334
SWIDTH 435 0
DWIDTH 10 0
BBX 8 18 1 -3
BITMAP
3C
43
CD
C5
F5
F5
35
35
35
35
35
35
35
45
D1
C2
FC
F0
ENDCHAR
STARTCHAR colonsign
ENCODING 8353
SWIDTH 728 0
DWIDTH 17 0
BBX 16 23 1 -4
BITMAP
00D8
0124
0723
0849
117D
2201
6401
E47E
E47C
E478
E480
E480
E480
E43F
E201
F1FD
F049
FC49
7F22
7F24
1FF8
07F0
06E0
ENDCHAR
STARTCHAR lira
ENCODING 8356
SWIDTH 795 0
DWIDTH 19 0
BBX 19 21 0 -3
BITMAP
03FF00
040100
080100
18BD00
310100
713E00
610C00
67C800
611000
F12000
E117C0
E7C820
F13920
F10120
F10120
71FF20
700020
700020
7FFFC0
7FFF80
7FFE00
ENDCHAR
STARTCHAR naira
ENCODING 8358
SWIDTH 853 0
DWIDTH 20 0
BBX 21 21 0 -3
BITMAP
0F87F0
104410
302C10
711C90
718C90
714490
712490
6210C8
610888
F14890
E12488
E232C8
713188
F13890
F13C90
713C90
703C10
705C10
7F9FE0
7F1FC0
7E1F00
ENDCHAR
STARTCHAR peseta
ENCODING 8359
SWIDTH 812 0
DWIDTH 19 0
BBX 20 21 0 -3
BITMAP
0FFF00
100080
300040
71FA20
710120
713120
613910
623890
E13910
F10120
F10120
F1FE40
710080
713F00
713C00
713800
704000
704000
7F8000
7F0000
7E0000
ENDCHAR
STARTCHAR dong
ENCODING 8363
SWIDTH 782 0
DWIDTH 19 0
BBX 19 25 0 -7
BITMAP
000F80
001080
007040
008220
019FA0
038220
03F240
060280
09FC80
120280
320280
727280
72F280
F2F280
F27280
F20480
F1E880
F80100
7F9E00
7FFE00
19F900
380100
3FFE00
3FFC00
3FF800
ENDCHAR
STARTCHAR Euro
ENCODING 8364
SWIDTH 748 0
DWIDTH 18 0
BBX 18 21 0 -3
BITMAP
01FFC0
060040
080040
18BE40
390040
393F80
710100
77FA00
710200
F93C00
F10200
F7FA00
710200
F91F80
F90040
78FE40
7C0040
3E0040
3FFF80
1FFF00
0FFC00
ENDCHAR
STARTCHAR peso
ENCODING 8369
SWIDTH 812 0
DWIDTH 19 0
BBX 20 21 0 -3
BITMAP
0FFF00
100080
300040
71FE20
710120
623090
613910
F13920
E13910
E20090
710130
F1FA40
F10080
713F00
713C00
713800
704000
704000
7F8000
7F0000
7E0000
ENDCHAR
STARTCHAR guarani
ENCODING 8370
SWIDTH 788 0
DWIDTH 19 0
BBX 17 23 1 -4
BITMAP
00F800
010400
070600
082080
11FC80
220080
640100
E4FE00
E4FC00
E4FF80
E49080
E4B080
E4F280
E40280
E20280
F1FE80
F02080
FE2080
7F0700
7F0600
1FFC00
07E000
07C000
ENDCHAR
STARTCHAR cedi
ENCODING 8373
SWIDTH 728 0
DWIDTH 17 0
BBX 16 23 1 -4
BITMAP
00F8
0104
0707
0821
11FD
3201
6401
E47E
E47C
E478
E480
E480
E480
E43F
E201
F1FD
F021
FC21
7F06
3F04
1FF8
07E0
07C0
ENDCHAR
STARTCHAR indianrupee
ENCODING 8377
SWIDTH 713 0
DWIDTH 17 0
BBX 16 21 1 -3
BITMAP
3FFF
2001
E7FD
E021
FE26
FF26
E7FD
E021
FF26
E02C
E022
67F1
E009
FFC9
FFC9
FFC9
01C1
01C1
01FE
01FC
01F8
ENDCHAR
STARTCHAR turkishlira
ENCODING 8378
SWIDTH 795 0
DWIDTH 19 0
BBX 19 21 0 -3
BITMAP
0FC000
104000
304000
726000
721000
63D000
6E2000
623000
F217C0
EF8820
E23820
F23920
F23920
F23120
720220
71FC40
700080
700100
7FFE00
7FFC00
7FF000
ENDCHAR
STARTCHAR ruble
ENCODING 8381
SWIDTH 782 0
DWIDTH 19 0
BBX 19 21 0 -3
BITMAP
0FFF80
100040
300040
71FC20
710320
713920
713920
713920
710120
710140
71FE40
710080
713F00
610C00
67C800
E11000
F02000
F04000
FF8000
7F0000
7E0000
ENDCHAR
STARTCHAR liter
ENCODING 8467
SWIDTH 749 0
DWIDTH 18 0
BBX 16 21 1 -3
BITMAP
07FC
0802
11F1
2209
6445
E4C5
E4E5
E4C5
E405
E419
E7E1
E406
E4F8
E404
E202
F1F2
F002
FC02
FFFC
7FF0
1FE0
ENDCHAR
STARTCHAR uni2117
ENCODING 8471
SWIDTH 967 0
DWIDTH 23 0
BBX 21 25 1 -5
BITMAP
017EC0
06EB20
0B00F0
15FF98
2BFFD8
6A00F8
EA7E78
EA4178
EA5978
EA5D78
EA5978
EA4178
EA7E78
EA40F8
EA5FF8
EA5DF8
EA11F8
EBE1F8
FBC1D8
F4FD28
FBC3D0
7E3C60
7FFF80
3FFF00
0FFC00
ENDCHAR
STARTCHAR uni2120
ENCODING 8480
SWIDTH 1003 0
DWIDTH 24 0
BBX 24 14 0 4
BITMAP
07E70E
0818B1
17DB6D
75FAB5
747A55
F31A25
F0CA95
FF2AF5
702AF5
77CAF5
7018F1
FFFFFE
FFBEFC
FF3CF0
ENDCHAR
STARTCHAR trademark
ENCODING 8482
SWIDTH 1003 0
DWIDTH 24 0
BBX 24 14 0 4
BITMAP
1FF70E
2008B1
6FEB6D
F11AB5
FD7A55
FD7A25
3D7A95
3D7AF5
3D7AF5
3D7AF5
3C78F1
3FFFFE
3F7EFC
3C3CF0
ENDCHAR
STARTCHAR Omega
ENCODING 8486
SWIDTH 877 0
DWIDTH 21 0
BBX 21 21 0 -3
BITMAP
01FF80
020060
0C7E10
188110
390090
393C90
793C90
793C90
793C90
793C90
793C90
793C90
793C90
711C88
709908
73DBC8
F01808
F01808
FFFFF0
FFFFE0
FF3FC0
ENDCHAR
STARTCHAR estimated
ENCODING 8494
SWIDTH 815 0
DWIDTH 20 0
BBX 18 21 1 -3
BITMAP
07FE00
080180
10F840
230640
640240
E4F240
E4F140
E40140
E40140
E7FE40
E40040
E4FFC0
E4FF00
E40100
E20080
F1FC80
F00080
FC0100
7FFE00
7FFC00
0FF800
ENDCHAR
STARTCHAR onethird
ENCODING 8531
SWIDTH 1269 0
DWIDTH 30 0
BBX 29 21 1 -3
BITMAP
1FC3F000
20421000
67461000
E14C9000
F95CA000
F95C9FE0
F95CA010
395D2710
395D2050
39393F50
21093850
6FC97B88
E0097828
FFFA7F28
FFF27FA8
FFF2A028
007067C8
0070E010
007FFFE0
007EFFC0
007CFF80
ENDCHAR
STARTCHAR twothirds
ENCODING 8532
SWIDTH 1269 0
DWIDTH 30 0
BBX 30 21 0 -3
BITMAP
0FF1F800
10090800
33E70800
70164800
7F965000
7F164FF0
78E65008
131E5388
346E9028
74FC9FA8
74049C28
F3F4BDC4
F004BC14
FFFD3F94
FFF93FD4
FFF93014
003833E4
00387008
003FFFF0
003F7FE0
003E7FC0
ENDCHAR
STARTCHAR oneeighth
ENCODING 8539
SWIDTH 1283 0
DWIDTH 31 0
BBX 29 21 1 -3
BITMAP
1FC3F000
20421000
67461000
E14C9000
F95CA5E0
F95CB810
395CA348
395D2428
395D29A8
393929A8
21093830
6FC967C8
E0094828
FFFA4B98
FFF24B98
FFF24828
007067C8
0070E010
007FFFE0
007FFFC0
007C7F00
ENDCHAR
STARTCHAR threeeighths
ENCODING 8540
SWIDTH 1293 0
DWIDTH 31 0
BBX 30 21 1 -3
BITMAP
3FE1F000
60121000
EF961000
FE5E9000
FE5C95A0
F07CA810
33CC93C8
702CA428
7FACA5A8
7F2D35A8
60293430
6FC927E8
E0192814
FFF96B94
FFBA6B94
FF3A6814
007065E4
00707008
007FFFF0
007EFFC0
007C7F00
ENDCHAR
STARTCHAR fiveeighths
ENCODING 8541
SWIDTH 1303 0
DWIDTH 31 0
BBX 30 21 1 -3
BITMAP
1FF1F000
200A1000
67CE1000
E40E5000
E5FE57A0
E40E9818
E78C92C8
E0249428
FFA4B5A8
E024B5A8
E0253C28
678923E4
E0192C14
FFF929D4
FFB969D4
FF3A6814
003867A4
00307008
007FFFF0
007EFFC0
007C7F80
ENDCHAR
STARTCHAR seveneighths
ENCODING 8542
SWIDTH 1241 0
DWIDTH 30 0
BBX 29 21 0 -3
BITMAP
1FFBF000
30061000
77E61000
F0149000
FF94A5E0
FE14B810
7C24A348
09CD2428
1A1D29A8
3A7929A8
3A793830
3A7967C8
38794828
3FBA4B98
3E324B98
3C724828
007067C8
0070E010
007FFFE0
007FFFC0
007C7F00
ENDCHAR
STARTCHAR arrowleft
ENCODING 8592
SWIDTH 1100 0
DWIDTH 26 0
BBX 19 17 4 -1
BITMAP
001C00
002400
00C400
010400
0627C0
08E020
112020
223F20
F1A020
F86420
FE27C0
7F0700
3FC600
0FE400
07F800
01F000
00E000
ENDCHAR
STARTCHAR arrowup
ENCODING 8593
SWIDTH 1100 0
DWIDTH 26 0
BBX 17 19 5 -2
BITMAP
006000
009000
010800
020800
064400
0CA200
089200
190900
31F880
204080
604080
FF4F00
FF4E00
FF4C00
0F0800
0F0800
0FF000
0FE000
0F8000
ENDCHAR
STARTCHAR arrowright
ENCODING 8594
SWIDTH 1100 0
DWIDTH 26 0
BBX 19 17 4 -1
BITMAP
00C000
013000
030800
070600
1F3100
2028C0
602420
E7E220
E02440
E0B880
FF2100
FF0600
C70800
073000
07C000
078000
060000
ENDCHAR
STARTCHAR arrowdown
ENCODING 8595
SWIDTH 1100 0
DWIDTH 26 0
BBX 17 19 5 -2
BITMAP
01F000
020800
070800
0F4800
0F4800
1F4F00
204080
704080
F1B900
F91100
FC9200
7C6400
3E4800
3F0800
1F1000
0FA000
0FC000
078000
030000
ENDCHAR
STARTCHAR arrowupleft
ENCODING 8598
SWIDTH 1100 0
DWIDTH 26 0
BBX 16 16 5 -1
BITMAP
1FE0
301E
7101
F2F1
F222
F244
72C4
7922
7811
7849
78E1
39F2
3FFC
38F8
3060
0040
ENDCHAR
STARTCHAR arrowupright
ENCODING 8599
SWIDTH 1100 0
DWIDTH 26 0
BBX 16 16 5 -1
BITMAP
007F
0F81
1009
3075
7885
7C49
7E69
3899
1102
1242
3062
F8F2
FFFC
7CF0
3860
1000
ENDCHAR
STARTCHAR arrowdownright
ENCODING 8600
SWIDTH 1100 0
DWIDTH 26 0
BBX 16 16 5 -1
BITMAP
070C
0892
1062
3202
790A
FC99
7E69
3C49
1885
107D
3001
7F81
7FFD
7FFE
03FC
0010
ENDCHAR
STARTCHAR arrowdownleft
ENCODING 8601
SWIDTH 1100 0
DWIDTH 26 0
BBX 16 16 5 -1
BITMAP
061C
0922
18C1
3809
3913
39A4
3148
7224
7212
73E1
7001
601E
F3F8
FFF0
FE00
4000
ENDCHAR
STARTCHAR uni21AA
ENCODING 8618
SWIDTH 1100 0
DWIDTH 26 0
BBX 20 23 4 -4
BITMAP
07FF80
080040
11FE40
260040
6400C0
E5FF00
E5FE00
E5D800
E5C400
E5C200
E5C180
E46440
E40620
F3F910
F00630
FF2440
FFC080
7FC300
01C400
01D800
01E000
03C000
010000
ENDCHAR
STARTCHAR uni21AB
ENCODING 8619
SWIDTH 1100 0
DWIDTH 26 0
BBX 20 23 3 -4
BITMAP
03FFC0
040020
0CFF10
1C00D0
1C0050
1FFF50
1FFF50
1FF750
004750
008750
030750
044E50
08C050
113F90
70C020
FC49C0
FE0780
7F8600
1FC400
0FF400
03F800
01E000
004000
ENDCHAR
STARTCHAR uni21B0
ENCODING 8624
SWIDTH 1100 0
DWIDTH 26 0
BBX 20 20 3 -3
BITMAP
003C00
004800
008800
030800
040F80
18C060
217F20
70C090
F84050
FE0E50
7F0650
3FC650
0FE650
07FE50
01EE50
00CE10
000E10
000FE0
000FC0
000F00
ENDCHAR
STARTCHAR uni21B1
ENCODING 8625
SWIDTH 1100 0
DWIDTH 26 0
BBX 19 20 4 -3
BITMAP
007000
00CC00
01C200
03C180
07C040
080C20
11FB20
220A20
640C40
E5C080
E5C300
E5C400
E5D800
E5E000
E5C000
E10000
E10000
FE0000
FC0000
F00000
ENDCHAR
STARTCHAR uni21B2
ENCODING 8626
SWIDTH 1100 0
DWIDTH 26 0
BBX 20 20 3 -3
BITMAP
0001F0
000210
000E50
000E50
001650
006650
008650
030E50
044C50
18C090
213D20
70C020
F821C0
FE0F00
7F0600
3FC800
0FE400
07F800
01E000
00C000
ENDCHAR
STARTCHAR uni21B3
ENCODING 8627
SWIDTH 1100 0
DWIDTH 26 0
BBX 20 20 3 -3
BITMAP
1F0000
310000
750000
F50000
F57800
F4C400
F4C300
F4E080
F46440
F20630
F1F910
F80610
7F0460
7FE080
3FE100
00C600
01C800
01F000
01C000
018000
ENDCHAR
STARTCHAR partialdiff
ENCODING 8706
SWIDTH 792 0
DWIDTH 19 0
BBX 17 21 1 -3
BITMAP
07F400
080300
19F080
780C80
780280
7FE280
7FF280
780280
10F280
230C80
640280
E4F280
E4F280
E4E280
E40280
E30C80
F0F080
F80100
FFFE00
7FF800
3FF000
ENDCHAR
STARTCHAR Delta
ENCODING 8710
SWIDTH 830 0
DWIDTH 20 0
BBX 18 21 1 -3
BITMAP
03FE00
040100
0C0100
18F900
390480
392480
392480
326280
727240
727240
727240
647240
E4F940
E40140
E40140
E7FF40
E00040
E00040
FFFF80
FFFF00
FFFE00
ENDCHAR
STARTCHAR product
ENCODING 8719
SWIDTH 859 0
DWIDTH 21 0
BBX 19 21 1 -3
BITMAP
1FFFC0
200020
61FE20
E20120
E20120
E27920
E27920
E27920
E2B920
E2B920
E2B920
E2B920
E2B920
E2B920
E2B920
E2B920
E0B820
E0B820
FF3FC0
FE3F00
FC3E00
ENDCHAR
STARTCHAR summation
ENCODING 8721
SWIDTH 750 0
DWIDTH 18 0
BBX 17 23 1 -5
BITMAP
1FFE00
200100
63FD00
E40100
E40100
E23F00
F11C00
F88800
FC4400
7E2400
3F2400
1E4400
0C8800
091000
112000
227F00
640080
E7FC80
E00080
E00080
FFFF00
FFFE00
FFF800
ENDCHAR
STARTCHAR minus
ENCODING 8722
SWIDTH 834 0
DWIDTH 20 0
BBX 18 7 1 4
BITMAP
1FFFC0
200040
63FF40
E00040
F00040
FFFF80
FFFE00
ENDCHAR
STARTCHAR uni2215
ENCODING 8725
SWIDTH 417 0
DWIDTH 10 0
BBX 11 21 0 -3
BITMAP
07E0
0420
1D20
1920
3940
3940
3940
3A40
3A40
7280
7280
7280
7280
7480
6480
E500
E100
E100
FE00
FC00
F800
ENDCHAR
STARTCHAR uni2219
ENCODING 8729
SWIDTH 464 0
DWIDTH 11 0
BBX 10 10 1 2
BITMAP
1F80
2040
6040
E240
E240
E040
E040
FF80
FF00
FE00
ENDCHAR
STARTCHAR radical
ENCODING 8730
SWIDTH 841 0
DWIDTH 20 0
BBX 21 23 0 -3
BITMAP
0001F8
000208
000608
000E50
000C90
001C90
001C90
0F9CA0
105CA0
203920
633920
E11940
F09940
FC9A40
FC4240
7E4280
1E4280
1F3C80
0F0080
0F0100
0FFE00
07FC00
07F800
ENDCHAR
STARTCHAR infinity
ENCODING 8734
SWIDTH 978 0
DWIDTH 23 0
BBX 23 16 0 0
BITMAP
0371F8
040E04
19F1F2
320A0A
72048A
72E5CA
72E5CA
F2E4CA
F2E4CA
F244CA
F20A0A
F1F0F2
F80404
7FFFB8
7FFFF0
3FFFC0
ENDCHAR
STARTCHAR integral
ENCODING 8747
SWIDTH 574 0
DWIDTH 14 0
BBX 14 25 0 -5
BITMAP
00FC
0104
0224
0444
1C84
1C98
1C90
3C90
3C90
3C90
3C90
3C90
3C90
3C90
3C90
3C90
3C90
3890
2090
6720
E020
E040
FF80
FE00
F800
ENDCHAR
STARTCHAR approxequal
ENCODING 8776
SWIDTH 834 0
DWIDTH 20 0
BBX 18 15 1 0
BITMAP
0FFFC0
100040
67FF40
E00040
E10040
FFFF80
FFFE00
E80FC0
100040
67FF40
E00040
E10040
FFFF80
FFFE00
E3FC00
ENDCHAR
STARTCHAR notequal
ENCODING 8800
SWIDTH 834 0
DWIDTH 20 0
BBX 18 19 1 -2
BITMAP
007E00
008200
1F11C0
201040
63FF40
E01040
F02040
FF2780
FF2700
FF2780
202040
63BF40
E04040
F04040
FE0F80
FE0F00
FFFE00
0FC000
0F8000
ENDCHAR
STARTCHAR lessequal
ENCODING 8804
SWIDTH 814 0
DWIDTH 20 0
BBX 17 21 1 -3
BITMAP
000780
003880
03C080
040E80
18F080
130100
720E00
727C00
F23800
F20700
F1C080
F83C80
FF0280
7FE080
300080
73FE80
F00080
F00080
FFFF00
FFFE00
7FFC00
ENDCHAR
STARTCHAR greaterequal
ENCODING 8805
SWIDTH 814 0
DWIDTH 20 0
BBX 16 21 2 -3
BITMAP
3C00
23C0
E038
E706
E0E1
F019
FF05
FFE5
3F85
1C05
2079
6382
E40C
E07F
E001
E7FD
E001
E001
FFFE
FFFC
FFF8
ENDCHAR
STARTCHAR block
ENCODING 9608
SWIDTH 1000 0
DWIDTH 24 0
BBX 26 26 -1 -4
BITMAP
FFFFFFC0
FFFFFFC0
FFFFFFC0
FFFFFFC0
FFFFFFC0
FFFFFFC0
FFFFFFC0
FFFFFFC0
FFFFFFC0
FFFFFFC0
FFFFFFC0
FFFFFFC0
FFFFFFC0
FFFFFFC0
FFFFFFC0
FFFFFFC0
FFFFFFC0
FFFFFFC0
FFFFFFC0
FFFFFFC0
FFFFFFC0
FFFFFFC0
FFFFFFC0
FFFFFFC0
FFFFFFC0
FFFFFFC0
ENDCHAR
STARTCHAR blacksquare
ENCODING 9632
SWIDTH 1100 0
DWIDTH 26 0
BBX 14 14 6 0
BITMAP
1FFC
2004
6004
E3E4
E224
E224
E224
E1C4
E004
E004
F004
FFF8
FFF0
7FC0
ENDCHAR
STARTCHAR blackuppointingtriangle
ENCODING 9650
SWIDTH 1100 0
DWIDTH 26 0
BBX 17 15 5 0
BITMAP
006000
009000
011000
030800
060400
044400
0C6200
189200
18F100
300080
200080
700080
FFFF00
FFFC00
7FF800
ENDCHAR
STARTCHAR whiteuppointingtriangle
ENCODING 9651
SWIDTH 1100 0
DWIDTH 26 0
BBX 14 12 8 3
BITMAP
0200
0500
0480
0840
1040
1020
2020
2010
4008
8008
8004
FFF8
ENDCHAR
STARTCHAR blackrightpointingtriangle
ENCODING 9654
SWIDTH 1100 0
DWIDTH 26 0
BBX 14 17 6 -1
BITMAP
1800
2600
6180
E040
E030
E308
E284
E2C4
E304
E018
E020
E0C0
E100
E600
F800
E000
C000
ENDCHAR
STARTCHAR whiterightpointingtriangle
ENCODING 9655
SWIDTH 1100 0
DWIDTH 26 0
BBX 11 14 9 2
BITMAP
C000
B000
8800
8600
8180
8040
8020
8020
8060
8080
8300
8400
9800
E000
ENDCHAR
STARTCHAR blackdownpointingtriangle
ENCODING 9660
SWIDTH 1100 0
DWIDTH 26 0
BBX 17 15 5 0
BITMAP
1FFF00
200080
700080
F0F100
F89200
F86200
7C4400
3E0400
3E0800
1F1000
0F1000
0FA000
07C000
070000
020000
ENDCHAR
STARTCHAR whitedownpointingtriangle
ENCODING 9661
SWIDTH 1100 0
DWIDTH 26 0
BBX 14 12 8 3
BITMAP
7FF8
8004
8008
4008
4010
2010
2020
1040
0840
0880
0480
0300
ENDCHAR
STARTCHAR blackleftpointingtriangle
ENCODING 9664
SWIDTH 1100 0
DWIDTH 26 0
BBX 14 17 6 -1
BITMAP
000C
0014
0064
0184
0204
0C24
1054
2094
7064
FC04
FF04
7F84
1FE4
07FC
03F8
00F0
0020
ENDCHAR
STARTCHAR whiteleftpointingtriangle
ENCODING 9665
SWIDTH 1100 0
DWIDTH 26 0
BBX 11 14 9 2
BITMAP
0060
00A0
0320
0420
1820
6020
8020
8020
4020
3020
0820
0620
01A0
0060
ENDCHAR
STARTCHAR blackdiamond
ENCODING 9670
SWIDTH 1100 0
DWIDTH 26 0
BBX 18 17 4 -1
BITMAP
007000
008800
010400
020200
042100
085080
108840
108440
304840
783080
FC0100
7E0200
3F0400
1F8800
0FF000
07C000
038000
ENDCHAR
STARTCHAR lozenge
ENCODING 9674
SWIDTH 831 0
DWIDTH 20 0
BBX 18 21 1 -3
BITMAP
01FC00
020200
040100
1CF900
190480
190480
312280
327240
627240
627140
F27240
F27240
F12480
F90480
788900
7C7900
3C0200
3E0200
1FFC00
1FF000
0FE000
ENDCHAR
STARTCHAR uni25D6
ENCODING 9686
SWIDTH 546 0
DWIDTH 13 0
BBX 14 26 0 -4
BITMAP
003C
01FC
07FC
0FFC
1FFC
3FFC
5FFC
7FFC
7FFC
FFFC
FFFC
FFFC
FFFC
FFFC
FFFC
FFFC
FFFC
7FFC
7FFC
7FFC
3FFC
2FFC
1FFC
0FFC
02FC
01FC
ENDCHAR
STARTCHAR uni25D7
ENCODING 9687
SWIDTH 546 0
DWIDTH 13 0
BBX 14 26 -1 -4
BITMAP
F000
FE00
FF80
FFC0
FFE0
FFF0
FFF0
FFF8
FFF8
FFFC
FFFC
FFFC
FFFC
FFFC
FFFC
FFFC
FFFC
FFFC
FFF8
FFF8
FFF0
FFF0
FFE0
FFC0
FF00
FC00
ENDCHAR
STARTCHAR uni25DC
ENCODING 9692
SWIDTH 1280 0
DWIDTH 31 0
BBX 26 26 2 -4
BITMAP
00001FC0
000FFFC0
0017FFC0
00FFFFC0
017FFFC0
03FFFFC0
07FFFFC0
0FFFFFC0
17FFFFC0
1FFFFFC0
1FFFFFC0
3FFFFFC0
3FFFFFC0
7FFFFFC0
7FFFFFC0
7FFFFFC0
7FFFFFC0
7FFFFFC0
7FFFFFC0
FFFFFFC0
FFFFFFC0
FFFFFFC0
FFFFFFC0
FFFFFFC0
FFFFFFC0
FFFFFFC0
ENDCHAR
STARTCHAR uni25DD
ENCODING 9693
SWIDTH 1280 0
DWIDTH 31 0
BBX 26 26 2 -4
BITMAP
7F000000
FFFC0000
FFFF8000
FFFF4000
FFFFF000
FFFFE800
FFFFF400
FFFFFC00
FFFFFE00
FFFFFF00
FFFFFF00
FFFFFF80
FFFFFF80
FFFFFF80
FFFFFF80
FFFFFFC0
FFFFFFC0
FFFFFFC0
FFFFFFC0
FFFFFFC0
FFFFFFC0
FFFFFFC0
FFFFFFC0
FFFFFFC0
FFFFFFC0
FFFFFFC0
ENDCHAR
STARTCHAR uni25DE
ENCODING 9694
SWIDTH 1280 0
DWIDTH 31 0
BBX 26 26 2 -4
BITMAP
7FFFFFC0
FFFFFFC0
FFFFFFC0
FFFFFFC0
FFFFFFC0
FFFFFFC0
FFFFFFC0
FFFFFFC0
FFFFFFC0
FFFFFFC0
FFFFFFC0
FFFFFFC0
FFFFFF80
FFFFFF80
FFFFFF80
FFFFFF00
FFFFFF00
FFFFFD00
FFFFFE00
FFFFFC00
FFFFF800
FFFFF000
FFFFA000
FFFFC000
FFFE0000
FFF00000
ENDCHAR
STARTCHAR uni25DF
ENCODING 9695
SWIDTH 1280 0
DWIDTH 31 0
BBX 26 26 2 -4
BITMAP
7FFFFFC0
FFFFFFC0
FFFFFFC0
FFFFFFC0
FFFFFFC0
FFFFFFC0
FFFFFFC0
7FFFFFC0
7FFFFFC0
7FFFFFC0
7FFFFFC0
7FFFFFC0
7FFFFFC0
3FFFFFC0
3FFFFFC0
3FFFFFC0
1FFFFFC0
1FFFFFC0
0FFFFFC0
07FFFFC0
05FFFFC0
03FFFFC0
00FFFFC0
007FFFC0
001FFFC0
0001FFC0
ENDCHAR
STARTCHAR uni261A
ENCODING 9754
SWIDTH 1100 0
DWIDTH 26 0
BBX 20 15 3 0
BITMAP
0030F0
1FCF90
200090
60C090
FF0090
FE0090
FFE090
0F0090
0FE090
078090
078090
07FF90
07FFF0
03FBE0
0003C0
ENDCHAR
STARTCHAR uni261B
ENCODING 9755
SWIDTH 1100 0
DWIDTH 26 0
BBX 21 15 3 0
BITMAP
1E0800
23F7F0
E20008
E20708
E200F0
E200E0
E207C0
E20100
E20600
E20100
E20300
E1FC00
FFF800
FFF000
F00000
ENDCHAR
STARTCHAR uni261C
ENCODING 9756
SWIDTH 1100 0
DWIDTH 26 0
BBX 17 13 6 2
BITMAP
000380
FFFC80
800480
F60480
080480
080480
070480
080480
070480
040480
07EC80
001480
000380
ENDCHAR
STARTCHAR uni261D
ENCODING 9757
SWIDTH 1100 0
DWIDTH 26 0
BBX 13 18 8 0
BITMAP
3000
2800
4800
4800
4800
4F80
4A60
4A90
4090
4010
4010
4010
2010
2010
7FF0
8008
8008
FFF8
ENDCHAR
STARTCHAR uni261E
ENCODING 9758
SWIDTH 1100 0
DWIDTH 26 0
BBX 18 13 6 2
BITMAP
F00000
DFFFC0
D00040
D03BC0
D00400
D00400
D03800
D00800
D03000
D01000
DBF000
D40000
F00000
ENDCHAR
STARTCHAR uni261F
ENCODING 9759
SWIDTH 1100 0
DWIDTH 26 0
BBX 13 18 8 0
BITMAP
7FF8
FFF8
8008
DFE8
2010
2010
2010
2010
2010
2010
2A10
2A50
1E50
0190
0050
0050
0050
0070
ENDCHAR
STARTCHAR uni27A1
ENCODING 10145
SWIDTH 650 0
DWIDTH 16 0
BBX 16 36 -1 -9
BITMAP
2000
7800
7C00
7C00
7E00
FF00
FF80
FF80
FFC0
FFE0
FFF0
FFE8
FFF8
FFFC
FFFE
FFFD
FFFF
FFFF
FFFF
FFFF
FFFF
FFFE
FFFA
FFFC
FFF8
FFF0
FFD0
FFE0
FFC0
FF80
FE80
7F00
7E00
7C00
7400
7800
ENDCHAR
STARTCHAR uni2B1B
ENCODING 11035
SWIDTH 1280 0
DWIDTH 31 0
BBX 26 26 2 -4
BITMAP
7FFFFFC0
FFFFFFC0
FFFFFFC0
FFFFFFC0
FFFFFFC0
FFFFFFC0
FFFFFFC0
FFFFFFC0
FFFFFFC0
FFFFFFC0
FFFFFFC0
FFFFFFC0
FFFFFFC0
FFFFFFC0
FFFFFFC0
FFFFFFC0
FFFFFFC0
FFFFFFC0
FFFFFFC0
FFFFFFC0
FFFFFFC0
FFFFFFC0
FFFFFFC0
FFFFFFC0
FFFFFFC0
FFFFFFC0
ENDCHAR
STARTCHAR uni2B24
ENCODING 11044
SWIDTH 1280 0
DWIDTH 31 0
BBX 27 27 2 -5
BITMAP
007FC000
03FFF000
07FFFC00
1FFFFE00
1FFFFF00
3FFFFF80
7FFFFF40
7FFFFFC0
FFFFFFC0
FFFFFFE0
FFFFFFE0
FFFFFFE0
FFFFFFE0
FFFFFFE0
FFFFFFE0
FFFFFFE0
FFFFFFE0
FFFFFFE0
FFFFFFC0
7FFFFFC0
7FFFFF80
3FFFFF80
2FFFFF00
17FFFE00
0FFFFC00
03FFF800
00FFC000
ENDCHAR
STARTCHAR A.salt
ENCODING 57600
SWIDTH 836 0
DWIDTH 20 0
BBX 18 21 1 -3
BITMAP
03FF00
0C0080
10F840
330640
620240
E27140
E27940
E27940
E27940
E20140
E20140
E3FF40
E20140
E20140
E27940
E27940
E07840
E0F840
FF7F80
FE7F00
FC7E00
ENDCHAR
STARTCHAR Agrave.salt
ENCODING 57601
SWIDTH 836 0
DWIDTH 20 0
BBX 18 26 1 -3
BITMAP
07FE00
0C0100
3CF900
3C0100
3FF900
3F0700
180080
10F840
330640
620240
E27140
E27940
E27940
E27940
E20140
E20140
E3FF40
E20140
E20140
E27940
E27940
E07840
E0F840
FF7F80
FE7F00
FC7E00
ENDCHAR
STARTCHAR Aacute.salt
ENCODING 57602
SWIDTH 836 0
DWIDTH 20 0
BBX 18 27 1 -3
BITMAP
000E00
03F100
040500
0CF900
1C0100
3CFE00
3F0700
380080
10F840
330640
620240
E27140
E27940
E27940
E27940
E20140
E20140
E3FF40
E20140
E20140
E27940
E27940
E07840
E0F840
FF7F80
FE7F00
FC7E00
ENDCHAR
STARTCHAR Acircumflex.salt
ENCODING 57603
SWIDTH 836 0
DWIDTH 20 0
BBX 18 27 1 -3
BITMAP
00F800
030600
047100
0C8900
1C0100
3DFD00
3F0700
380080
30F840
330640
620240
E27140
E27940
E27940
E27940
E20140
E20140
E3FF40
E20140
E20140
E27940
E27940
E07840
E0F840
FF7F80
FE7F00
FC7E00
ENDCHAR
STARTCHAR Atilde.salt
ENCODING 57604
SWIDTH 836 0
DWIDTH 20 0
BBX 18 26 1 -3
BITMAP
03FF00
040100
0CF900
3C0100
3DF200
3F0F00
380080
10F840
330640
620240
E27140
E27940
E27940
E27940
E20140
E20140
E3FF40
E20140
E20140
E27940
E27940
E07840
E0F840
FF7F80
FE7F00
FC7E00
ENDCHAR
STARTCHAR Adieresis.salt
ENCODING 57605
SWIDTH 836 0
DWIDTH 20 0
BBX 18 26 1 -3
BITMAP
0FDF80
182080
392480
382080
38F900
3F0700
380080
30F840
330640
620240
E27140
E27940
E27940
E27940
E20140
E20140
E3FF40
E20140
E20140
E27940
E27940
E07840
E0F840
FF7F80
FE7F00
FC7E00
ENDCHAR
STARTCHAR Aring.salt
ENCODING 57606
SWIDTH 836 0
DWIDTH 20 0
BBX 18 27 1 -3
BITMAP
01FC00
020200
04F900
090500
397500
397500
3D2500
388880
30F840
330640
620240
E27140
E27940
E27940
E27940
E20140
E20140
E3FF40
E20140
E20140
E27940
E27940
E07840
E0F840
FF7F80
FE7F00
FC7E00
ENDCHAR
STARTCHAR Amacron.salt
ENCODING 57607
SWIDTH 836 0
DWIDTH 20 0
BBX 18 26 1 -3
BITMAP
03FE00
040100
1CF900
3C0100
3CF900
3F0700
380080
10F840
330640
620240
E27140
E27940
E27940
E27940
E20140
E20140
E3FF40
E20140
E20140
E27940
E27940
E07840
E0F840
FF7F80
FE7F00
FC7E00
ENDCHAR
STARTCHAR Abreve.salt
ENCODING 57608
SWIDTH 836 0
DWIDTH 20 0
BBX 18 27 1 -3
BITMAP
07CF00
085100
192500
3D8D00
3C7100
3F8600
3F7F00
180080
10F840
330640
620240
E27140
E27940
E27940
E27940
E20140
E20140
E3FF40
E20140
E20140
E27940
E27940
E07840
E0F840
FF7F80
FE7F00
FC7E00
ENDCHAR
STARTCHAR Aogonek.salt
ENCODING 57609
SWIDTH 836 0
DWIDTH 20 0
BBX 18 25 1 -7
BITMAP
03FF00
0C0080
10F840
330640
620240
E27140
E27940
E27940
E27940
E20140
E20140
E3FF40
E20140
E20140
E27940
E27940
E07A40
E0F240
FF7280
FE7240
FC7340
007040
007FC0
007F80
007F00
ENDCHAR
STARTCHAR E.salt
ENCODING 57610
SWIDTH 743 0
DWIDTH 18 0
BBX 16 21 1 -3
BITMAP
02FF
0C01
10FD
3301
6401
E47F
E4FC
E402
E402
E7F2
E402
E4FC
E4F8
E407
E201
F1FD
F001
FC01
7FFE
3FFC
0FF8
ENDCHAR
STARTCHAR Egrave.salt
ENCODING 57611
SWIDTH 743 0
DWIDTH 18 0
BBX 16 26 1 -3
BITMAP
0FFC
1802
39FA
7802
7FF2
7FFF
3801
10FD
3301
6401
E47F
E4FC
E402
E402
E7F2
E402
E4FC
E4F8
E407
E201
F1FD
F001
FC01
7FFE
3FFC
0FF8
ENDCHAR
STARTCHAR Eacute.salt
ENCODING 57612
SWIDTH 743 0
DWIDTH 18 0
BBX 16 27 1 -3
BITMAP
000E
07F1
0801
19F9
3801
387E
3FFF
3801
30FD
3301
6401
E47F
E4FC
E402
E402
E7F2
E402
E4FC
E4F8
E407
E201
F1FD
F001
FC01
7FFE
3FFC
0FF8
ENDCHAR
STARTCHAR Ecircumflex.salt
ENCODING 57613
SWIDTH 743 0
DWIDTH 18 0
BBX 16 27 1 -3
BITMAP
00F0
070E
08F1
1909
3801
39F9
3FFF
3801
30FD
3301
6401
E47F
E4FC
E402
E402
E7F2
E402
E4FC
E4F8
E407
E201
F1FD
F001
FC01
7FFE
3FFC
0FF8
ENDCHAR
STARTCHAR Edieresis.salt
ENCODING 57614
SWIDTH 743 0
DWIDTH 18 0
BBX 16 26 1 -3
BITMAP
0FFF
1821
3925
7821
7861
7FFF
7801
30FD
3301
6401
E47F
E4FC
E402
E402
E7F2
E402
E4FC
E4F8
E407
E201
F1FD
F001
FC01
7FFE
3FFC
0FF8
ENDCHAR
STARTCHAR Emacron.salt
ENCODING 57615
SWIDTH 743 0
DWIDTH 18 0
BBX 16 26 1 -3
BITMAP
07FE
0801
19F9
3801
3C01
3FFF
3801
10FD
3301
6401
E47F
E4FC
E402
E402
E7F2
E402
E4FC
E4F8
E407
E201
F1FD
F001
FC01
7FFE
3FFC
0FF8
ENDCHAR
STARTCHAR Ebreve.salt
ENCODING 57616
SWIDTH 743 0
DWIDTH 18 0
BBX 16 27 1 -3
BITMAP
079F
0871
1905
398D
3C72
3F04
3FFF
1801
10FD
3301
6401
E47F
E4FC
E402
E402
E7F2
E402
E4FC
E4F8
E407
E201
F1FD
F001
FC01
7FFE
3FFC
0FF8
ENDCHAR
STARTCHAR Edotaccent.salt
ENCODING 57617
SWIDTH 743 0
DWIDTH 18 0
BBX 16 26 1 -3
BITMAP
01FC
0304
0724
0F04
0F08
0FFF
0801
10FD
3301
6401
E47F
E4FC
E402
E402
E7F2
E402
E4FC
E4F8
E407
E201
F1FD
F001
FC01
7FFE
3FFC
0FF8
ENDCHAR
STARTCHAR Eogonek.salt
ENCODING 57618
SWIDTH 743 0
DWIDTH 18 0
BBX 16 25 1 -7
BITMAP
02FF
0C01
10FD
2301
6401
E47F
E4FC
E402
E402
E7F2
E402
E4FC
E4F8
E407
E201
F1F5
F009
FC09
7FCA
3FC9
1FCD
01C1
01FF
01FE
01FC
ENDCHAR
STARTCHAR Ecaron.salt
ENCODING 57619
SWIDTH 743 0
DWIDTH 18 0
BBX 16 27 1 -3
BITMAP
070F
08F1
1901
38F9
3C02
3F9C
3FFF
1801
10FD
3301
6401
E47F
E4FC
E402
E402
E7F2
E402
E4FC
E4F8
E407
E201
F1FD
F001
FC01
7FFE
3FFC
0FF8
ENDCHAR
STARTCHAR I.salt
ENCODING 57620
SWIDTH 471 0
DWIDTH 11 0
BBX 9 21 1 -3
BITMAP
1F80
2080
6080
E280
E280
E280
E280
E280
E280
E280
E280
E280
E280
E280
E280
E280
E080
E080
FF00
FE00
FC00
ENDCHAR
STARTCHAR Igrave.salt
ENCODING 57621
SWIDTH 471 0
DWIDTH 11 0
BBX 12 26 0 -3
BITMAP
1FE0
3010
77D0
F010
FF90
FFE0
7020
3020
7120
7120
7120
7120
7120
7120
7120
7120
7120
7120
7120
7120
7120
7020
7020
7FC0
7F00
7E00
ENDCHAR
STARTCHAR Iacute.salt
ENCODING 57622
SWIDTH 471 0
DWIDTH 11 0
BBX 12 27 0 -3
BITMAP
0060
0F90
1010
33D0
7010
F3E0
FFC0
F020
7020
7120
7120
7120
7120
7120
7120
7120
7120
7120
7120
7120
7120
7120
7020
7020
7FC0
7F00
7E00
ENDCHAR
STARTCHAR Icircumflex.salt
ENCODING 57623
SWIDTH 471 0
DWIDTH 11 0
BBX 12 27 0 -3
BITMAP
07C0
1820
2790
6010
E010
EFF0
FFE0
F020
3020
7120
7120
7120
7120
7120
7120
7120
7120
7120
7120
7120
7120
7120
7020
7020
7FC0
7F00
7E00
ENDCHAR
STARTCHAR Idieresis.salt
ENCODING 57624
SWIDTH 471 0
DWIDTH 11 0
BBX 13 26 0 -3
BITMAP
3FF8
6108
E928
E108
E188
FFF0
F020
3020
7120
7120
7120
7120
7120
7120
7120
7120
7120
7120
7120
7120
7120
7020
7020
7FC0
7F00
7E00
ENDCHAR
STARTCHAR Itilde.salt
ENCODING 57625
SWIDTH 471 0
DWIDTH 11 0
BBX 12 26 0 -3
BITMAP
1FF0
2010
6FD0
E010
EE30
FFC0
D020
3020
7120
7120
7120
7120
7120
7120
7120
7120
7120
7120
7120
7120
7120
7020
7020
7FC0
7F00
7E00
ENDCHAR
STARTCHAR Imacron.salt
ENCODING 57626
SWIDTH 471 0
DWIDTH 11 0
BBX 11 26 0 -3
BITMAP
1FC0
2020
63A0
E020
F020
FFC0
F020
7020
7120
7120
7120
7120
7120
7120
7120
7120
7120
7120
7120
7120
7120
7020
7020
7FC0
7F00
7E00
ENDCHAR
STARTCHAR Ibreve.salt
ENCODING 57627
SWIDTH 471 0
DWIDTH 11 0
BBX 13 27 -1 -3
BITMAP
1FF8
3088
7428
F268
F188
FC30
7FE0
7810
1810
3890
3890
3890
3890
3890
3890
3890
3890
3890
3890
3890
3890
3890
3810
3810
3FE0
3F80
3F00
ENDCHAR
STARTCHAR Iogonek.salt
ENCODING 57628
SWIDTH 471 0
DWIDTH 11 0
BBX 9 25 1 -7
BITMAP
0F80
1080
7080
F280
F280
F280
F280
F280
F280
F280
F280
F280
F280
F280
F280
F280
F480
F480
E580
E480
E680
E080
FF80
FF00
FE00
ENDCHAR
STARTCHAR Idotaccent.salt
ENCODING 57629
SWIDTH 471 0
DWIDTH 11 0
BBX 9 26 1 -3
BITMAP
1F80
2080
E280
E080
F080
FF80
E080
6080
E280
E280
E280
E280
E280
E280
E280
E280
E280
E280
E280
E280
E280
E080
E080
FF00
FE00
FC00
ENDCHAR
STARTCHAR L.salt
ENCODING 57630
SWIDTH 715 0
DWIDTH 17 0
BBX 16 21 1 -3
BITMAP
1F00
2080
6080
E280
E280
E280
E280
E280
E280
E280
E280
E280
E280
E27F
E201
E3FD
E001
E001
FFFE
FFFC
FFF8
ENDCHAR
STARTCHAR Lacute.salt
ENCODING 57631
SWIDTH 715 0
DWIDTH 17 0
BBX 16 27 1 -3
BITMAP
0038
0FC4
1004
23E4
E004
F1F8
FFE0
E040
E080
E280
E280
E280
E280
E280
E280
E280
E280
E280
E280
E27F
E201
E3FD
E001
E001
FFFE
FFFC
FFF8
ENDCHAR
STARTCHAR Lcommaaccent.salt
ENCODING 57632
SWIDTH 715 0
DWIDTH 17 0
BBX 16 30 1 -12
BITMAP
1F00
2080
6080
E280
E280
E280
E280
E280
E280
E280
E280
E280
E280
E27F
E201
E3FD
E001
E001
FFFE
FE0C
FE08
0EF8
0E18
0FD8
0F28
0EC8
0610
0FE0
0F80
0E00
ENDCHAR
STARTCHAR Lcaron.salt
ENCODING 57633
SWIDTH 715 0
DWIDTH 17 0
BBX 17 21 1 -3
BITMAP
1F1F00
20A080
606080
E26480
E26500
E26100
E26100
E27E00
E27C00
E27000
E28000
E28000
E28000
E27F00
E20100
E3FD00
E00100
E00100
FFFE00
FFFC00
FFF800
ENDCHAR
STARTCHAR Ldot.salt
ENCODING 57634
SWIDTH 715 0
DWIDTH 17 0
BBX 17 21 1 -3
BITMAP
1F0000
208000
608000
E28000
E28000
E2BF80
E26080
E26480
E26080
E26080
E27F00
E27E00
E27800
E20700
E20100
E3FD00
E00100
E00100
FFFE00
FFFC00
FFF800
ENDCHAR
STARTCHAR Lslash.salt
ENCODING 57635
SWIDTH 725 0
DWIDTH 17 0
BBX 17 21 0 -3
BITMAP
07C000
082000
382000
792000
792000
793000
790800
610800
67C800
E10800
E13000
F92000
F92000
F91F80
790080
79FE80
780080
780080
7FFF00
7FFE00
3FFC00
ENDCHAR
STARTCHAR M.salt
ENCODING 57636
SWIDTH 1170 0
DWIDTH 28 0
BBX 26 21 1 -3
BITMAP
07FDFF00
08020080
10F8F840
23050640
62020240
E4727140
E4727940
E4727940
E4727940
E4727940
E4727940
E4727940
E4727940
E4727940
E4727940
E4727940
E0707840
E0F07840
FF7FFF80
FE7E7F00
FC7C7E00
ENDCHAR
STARTCHAR N.salt
ENCODING 57637
SWIDTH 846 0
DWIDTH 20 0
BBX 18 21 1 -3
BITMAP
03FF00
0C0080
10F840
330640
620140
E47140
E47940
E47940
E47940
E47940
E47940
E47940
E47940
E47940
E47940
E47940
E07840
E0F840
FF7F80
FE7F00
FC7E00
ENDCHAR
STARTCHAR Ntilde.salt
ENCODING 57638
SWIDTH 846 0
DWIDTH 20 0
BBX 18 26 1 -3
BITMAP
03FF00
040100
0CFD00
1C0100
3DF100
3F0F00
380080
10F840
330640
620140
E47140
E47940
E47940
E47940
E47940
E47940
E47940
E47940
E47940
E47940
E47940
E07840
E0F840
FF7F80
FE7F00
FC7E00
ENDCHAR
STARTCHAR Nacute.salt
ENCODING 57639
SWIDTH 846 0
DWIDTH 20 0
BBX 18 27 1 -3
BITMAP
000F00
03F080
040480
0CF880
1C0100
1CFE00
1F0700
180080
10F840
330640
620140
E47140
E47940
E47940
E47940
E47940
E47940
E47940
E47940
E47940
E47940
E47940
E07840
E0F840
FF7F80
FE7F00
FC7E00
ENDCHAR
STARTCHAR Ncommaaccent.salt
ENCODING 57640
SWIDTH 846 0
DWIDTH 20 0
BBX 18 30 1 -12
BITMAP
03FF00
0C0080
10F840
330640
620140
E47140
E47940
E47940
E47940
E47940
E47940
E47940
E47940
E47940
E47940
E47940
E07840
E07840
FFFF80
FF0700
FF0600
077C00
070C00
07EC00
079400
074400
031800
07E000
07C000
078000
ENDCHAR
STARTCHAR Ncaron.salt
ENCODING 57641
SWIDTH 846 0
DWIDTH 20 0
BBX 18 27 1 -3
BITMAP
078700
0C7900
1C0500
3CF900
3E0300
3FDC00
3F2700
080080
10F840
330640
620140
E47140
E47940
E47940
E47940
E47940
E47940
E47940
E47940
E47940
E47940
E47940
E07840
E0F840
FF7F80
FE7F00
FC7E00
ENDCHAR
STARTCHAR W.salt
ENCODING 57642
SWIDTH 1170 0
DWIDTH 28 0
BBX 26 21 1 -3
BITMAP
1F0F8780
20904840
60B07840
E4727940
E4727940
E4727940
E4727940
E4727940
E4727940
E4727940
E4727940
E4727940
E4727940
E4222140
E2020140
F19DCE40
F0603040
F8020080
7FFFFF00
7FFFFC00
1FEFF800
ENDCHAR
STARTCHAR Wcircumflex.salt
ENCODING 57643
SWIDTH 1170 0
DWIDTH 28 0
BBX 26 27 1 -3
BITMAP
000F8000
00306000
00471000
00C89000
01C01000
03DFD000
1FFFE780
20704840
60B07840
E4727940
E4727940
E4727940
E4727940
E4727940
E4727940
E4727940
E4727940
E4727940
E4727940
E4222140
E2020140
F19DCE40
F0603040
F8020180
7FFFFE00
7FFFFC00
1FEFF800
ENDCHAR
STARTCHAR Wgrave.salt
ENCODING 57644
SWIDTH 1170 0
DWIDTH 28 0
BBX 26 26 1 -3
BITMAP
00FFE000
01901000
038F9000
03801000
03FF1000
1FFFE780
20704840
60B07840
E4727940
E4727940
E4727940
E4727940
E4727940
E4727940
E4727940
E4727940
E4727940
E4727940
E4222140
E2020140
F19DCE40
F0603040
F8020180
7FFFFE00
7FFFFC00
1FEFF800
ENDCHAR
STARTCHAR Wacute.salt
ENCODING 57645
SWIDTH 1170 0
DWIDTH 28 0
BBX 26 27 1 -3
BITMAP
0000E000
003F1000
00405000
00CF9000
01C01000
03C7E000
1FFFC780
20704840
60B07840
E4727940
E4727940
E4727940
E4727940
E4727940
E4727940
E4727940
E4727940
E4727940
E4727940
E4222140
E2020140
F19DCE40
F0603040
F8020180
7FFFFE00
7FFFFC00
1FEFF800
ENDCHAR
STARTCHAR Wdieresis.salt
ENCODING 57646
SWIDTH 1170 0
DWIDTH 28 0
BBX 26 26 1 -3
BITMAP
00FDF800
01820800
03924800
03820800
03831000
1FFFE780
20704840
60707840
E4727940
E4727940
E4727940
E4727940
E4727940
E4727940
E4727940
E4727940
E4727940
E4727940
E4222140
E2020140
F19DCE40
F0603040
F8020180
7FFFFE00
7FFFFC00
1FEFF800
ENDCHAR
STARTCHAR X.salt
ENCODING 57647
SWIDTH 837 0
DWIDTH 20 0
BBX 18 21 1 -3
BITMAP
0F0F80
105040
707040
F23240
793280
792480
792480
790480
308840
217640
620140
E40140
E47940
E47940
E47940
E47940
E07840
E0F840
FF7F80
FE7F00
FC7E00
ENDCHAR
STARTCHAR Y.salt
ENCODING 57648
SWIDTH 806 0
DWIDTH 19 0
BBX 18 21 1 -3
BITMAP
1F0F80
209040
60B040
E4F240
E4F240
E4F240
E4F240
E4F240
E40240
E20240
E1DC40
F02080
F82100
FE2600
7E2400
1E2400
0E0400
0E0400
0FF800
0FE000
0FC000
ENDCHAR
STARTCHAR Yacute.salt
ENCODING 57649
SWIDTH 806 0
DWIDTH 19 0
BBX 18 27 1 -3
BITMAP
000E00
03F100
040100
08F900
380100
3C7E00
3FFF80
20F040
60B040
E4F240
E4F240
E4F240
E4F240
E4F240
E40240
E20240
E1DC40
F02080
F82100
FE2600
7E2400
1E2400
0E0400
0E0400
0FF800
0FE000
0FC000
ENDCHAR
STARTCHAR Ycircumflex.salt
ENCODING 57650
SWIDTH 806 0
DWIDTH 19 0
BBX 18 27 1 -3
BITMAP
00F800
070600
08F100
190900
380100
39FD00
3FFF80
20F040
60B040
E4F240
E4F240
E4F240
E4F240
E4F240
E40240
E20240
E1DC40
F02080
F82100
FE2600
7E2400
1E2400
0E0400
0E0400
0FF800
0FE000
0FC000
ENDCHAR
STARTCHAR Ydieresis.salt
ENCODING 57651
SWIDTH 806 0
DWIDTH 19 0
BBX 18 26 1 -3
BITMAP
0FFF00
182100
392500
782100
786100
7FFF80
60F040
60F040
E4F240
E4F240
E4F240
E4F240
E4F240
E40240
E20240
E1DC40
F02080
F82100
FE2600
7E2400
1E2400
0E0400
0E0400
0FF800
0FE000
0FC000
ENDCHAR
STARTCHAR Ygrave.salt
ENCODING 57652
SWIDTH 806 0
DWIDTH 19 0
BBX 18 26 1 -3
BITMAP
0FFE00
190100
38F900
380100
3FF100
3FFF80
20F040
60B040
E4F240
E4F240
E4F240
E4F240
E4F240
E40240
E20240
E1DC40
F02080
F82100
FE2600
7E2400
1E2400
0E0400
0E0400
0FF800
0FE000
0FC000
ENDCHAR
STARTCHAR AE.salt
ENCODING 57653
SWIDTH 1113 0
DWIDTH 27 0
BBX 25 21 1 -3
BITMAP
037FFF00
0C000080
107EFE80
11810080
62010080
64793F00
E4793E00
E4790100
E4790100
E401F900
E4010100
E7FF3E00
E4013C00
E4010380
E4790080
E479FE80
E0780080
E0F80080
FF7FFF00
FE7FFE00
FC7FFC00
ENDCHAR
STARTCHAR IJ.salt
ENCODING 57654
SWIDTH 1133 0
DWIDTH 27 0
BBX 25 21 1 -3
BITMAP
1F800F80
20401080
60407080
E240F280
E240F280
E240F280
E240F280
E240F280
E25FF280
E260F280
E260F280
E264F280
E264F280
E2644280
E2640480
E2639880
E0706080
E0780300
FFFFFC00
FE7FF800
FC3FF000
ENDCHAR
STARTCHAR IJ.stack
ENCODING 57655
SWIDTH 1363 0
DWIDTH 33 0
BBX 31 21 1 -3
BITMAP
1FFE007C
20010082
67B90182
E0410392
E0410392
FC4E0392
FC480392
FC480392
1C507F92
1C508392
1C538392
1C579392
1C579392
104B9112
20419012
67F98EE2
E0018104
E001E008
FFFFFFF0
FFFBFFE0
FFF0FF80
ENDCHAR
STARTCHAR quoteleft.salt
ENCODING 57656
SWIDTH 407 0
DWIDTH 10 0
BBX 8 10 1 8
BITMAP
0E
17
2F
69
E9
E7
E1
FE
FC
F8
ENDCHAR
STARTCHAR quoteright.salt
ENCODING 57657
SWIDTH 407 0
DWIDTH 10 0
BBX 8 10 1 8
BITMAP
1F
21
6F
E3
FF
E3
ED
7E
F8
F0
ENDCHAR
STARTCHAR ampersand.salt
ENCODING 57658
SWIDTH 732 0
DWIDTH 18 0
BBX 17 25 0 -5
BITMAP
007C00
008200
038380
021080
043E80
08C080
190080
391F00
391E00
3D0200
3A8200
317A00
320200
727E00
727800
F20780
F20080
F1EE80
F01080
FC1080
7F8300
7F8200
1FFC00
07F000
03E000
ENDCHAR
STARTCHAR caron.2
ENCODING 57659
SWIDTH 600 0
DWIDTH 14 0
BBX 10 10 2 8
BITMAP
0780
0840
3040
7240
7280
7080
7080
7F00
FE00
F800
ENDCHAR
STARTCHAR indexup
ENCODING 57660
SWIDTH 1100 0
DWIDTH 26 0
BBX 16 21 5 -3
BITMAP
0600
0900
1900
3900
3900
39F0
394E
794A
780A
7802
7802
7802
7802
7802
3FFE
3001
7001
F001
FFFE
FFFC
FFF8
ENDCHAR
STARTCHAR indexdown
ENCODING 57661
SWIDTH 1100 0
DWIDTH 26 0
BBX 16 21 5 -3
BITMAP
0FFF
3001
7001
F7FD
F802
F802
F802
3802
3802
3802
784A
794A
794C
79F8
79F0
7980
7900
3900
3E00
3C00
3000
ENDCHAR
STARTCHAR indexupleft
ENCODING 57662
SWIDTH 1100 0
DWIDTH 26 0
BBX 19 23 4 -4
BITMAP
040000
1A0000
318000
784000
7C2000
7F1000
3C8800
1C0400
1B0400
380380
240240
700420
F80840
F81080
FC1100
7E2200
3FC400
1F0800
0F1000
07A000
07C000
078000
030000
ENDCHAR
STARTCHAR indexupright
ENCODING 57663
SWIDTH 1100 0
DWIDTH 26 0
BBX 19 23 4 -4
BITMAP
000180
000240
000440
000880
001100
002200
004500
008180
030240
0E00C0
120120
210020
708040
F84080
FC2100
7E1200
3F0C00
1F8400
0FC400
07E800
03F000
01C000
008000
ENDCHAR
STARTCHAR indexdownleft
ENCODING 57664
SWIDTH 1100 0
DWIDTH 26 0
BBX 23 19 2 -2
BITMAP
000600
000900
001080
003840
007C20
006210
004108
008084
010042
060022
044014
089038
112070
23CCC0
77F100
FFFA00
E1FC00
40F000
002000
ENDCHAR
STARTCHAR indexdownright
ENCODING 57665
SWIDTH 1100 0
DWIDTH 26 0
BBX 23 19 2 -2
BITMAP
001000
002800
004400
008400
010C00
021200
042180
084040
108020
210010
720088
FE0048
FF0244
6F89E2
0FC5F2
07F7FC
03F8F0
01E060
00C000
ENDCHAR
STARTCHAR indexdownleft.outline
ENCODING 57666
SWIDTH 1100 0
DWIDTH 26 0
BBX 20 16 5 1
BITMAP
001000
003000
005800
004C00
006600
019300
020980
0404C0
080260
100130
2201A0
448140
8D0200
926400
A18800
407000
ENDCHAR
STARTCHAR indexdownright.outline
ENCODING 57667
SWIDTH 1100 0
DWIDTH 26 0
BBX 20 16 5 1
BITMAP
008000
01C000
032000
064000
0CA000
191000
320C00
640200
C80100
880100
700480
081240
040B20
024C90
013060
00C000
ENDCHAR
STARTCHAR indexupleft.outline
ENCODING 57668
SWIDTH 1100 0
DWIDTH 26 0
BBX 16 20 7 -1
BITMAP
2000
5000
4800
2600
1100
1880
2440
3040
4820
4014
A01A
8013
4026
204C
1098
0930
0660
04C0
0580
0300
ENDCHAR
STARTCHAR indexupright.outline
ENCODING 57669
SWIDTH 1100 0
DWIDTH 26 0
BBX 16 20 7 -1
BITMAP
000C
0012
0022
0044
0088
0110
0268
0408
0414
2806
5009
C802
6402
3204
1908
0C90
0660
0320
01A0
00C0
ENDCHAR
STARTCHAR uni261A.salt
ENCODING 57670
SWIDTH 1100 0
DWIDTH 26 0
BBX 20 16 3 -1
BITMAP
01FCF0
1E0390
200090
600090
FFF090
FF9090
FF9090
038890
03D090
03F190
03E390
01E7E0
00FBC0
00F380
01E000
004000
ENDCHAR
STARTCHAR uni261B.salt
ENCODING 57671
SWIDTH 1100 0
DWIDTH 26 0
BBX 21 16 3 -1
BITMAP
1E3F00
23C0F0
620008
E20008
E20FF0
E211E0
E211C0
E21200
E11400
E18800
F3C800
FFC800
FBF800
63E000
01C000
008000
ENDCHAR
STARTCHAR indexdown.salt
ENCODING 57672
SWIDTH 1100 0
DWIDTH 26 0
BBX 16 21 5 -3
BITMAP
03FF
0C01
1C01
3CFD
3F02
3E02
3C01
0801
10C1
3371
7F09
FF09
6FF1
07F1
03F1
0071
0072
0072
007C
0078
0070
ENDCHAR
STARTCHAR indexdownleft.salt
ENCODING 57673
SWIDTH 1100 0
DWIDTH 26 0
BBX 22 17 2 -1
BITMAP
000700
000880
001840
003C20
007210
004108
008084
010044
020068
043870
0C4E60
18E240
11F240
33FF20
7CFF40
F04F80
600E00
ENDCHAR
STARTCHAR indexdownright.salt
ENCODING 57674
SWIDTH 1100 0
DWIDTH 26 0
BBX 22 17 2 -1
BITMAP
007000
008800
010800
021800
042600
084180
108040
310040
790020
FF0610
7F1908
372188
0733C4
073FE4
07F3F8
0FC1F0
0E00E0
ENDCHAR
STARTCHAR indexup.salt
ENCODING 57675
SWIDTH 1100 0
DWIDTH 26 0
BBX 16 21 5 -3
BITMAP
0600
0900
1900
3900
7100
7100
71E0
7110
710E
70D9
7021
7002
F804
7808
7FFC
3002
3002
F002
FFFC
FFF0
FFE0
ENDCHAR
STARTCHAR indexupleft.salt
ENCODING 57676
SWIDTH 1100 0
DWIDTH 26 0
BBX 18 21 4 -3
BITMAP
0E0000
110000
388000
784000
FC3000
7E0800
3F0400
1C8400
088400
188380
3D0240
3E0440
300840
301080
7FE100
FFC200
FF8400
01C800
03F000
03C000
018000
ENDCHAR
STARTCHAR indexupright.salt
ENCODING 57677
SWIDTH 1100 0
DWIDTH 26 0
BBX 18 21 4 -3
BITMAP
0001C0
000240
000C40
001080
002100
004200
008600
010900
030880
070480
190700
308180
784040
FC2040
FE1FC0
7E0F80
3F0E00
1F9000
0FE000
07C000
038000
ENDCHAR
STARTCHAR uni261C.salt
ENCODING 57678
SWIDTH 1100 0
DWIDTH 26 0
BBX 17 13 6 2
BITMAP
07E380
F81C80
800480
F80480
078480
048480
048480
024480
018C80
009480
009380
012000
00C000
ENDCHAR
STARTCHAR uni261D.salt
ENCODING 57679
SWIDTH 1100 0
DWIDTH 26 0
BBX 13 18 8 0
BITMAP
3000
4800
4800
4800
4800
4800
4F00
4880
8890
86E8
8108
4010
4060
2080
7FC0
8020
8020
FFE0
ENDCHAR
STARTCHAR uni261E.salt
ENCODING 57680
SWIDTH 1100 0
DWIDTH 26 0
BBX 18 13 6 2
BITMAP
F1F000
D60F80
D80040
D007C0
D07800
D09000
D09000
D09000
D8E000
D48000
F24000
014000
008000
ENDCHAR
STARTCHAR uni261F.salt
ENCODING 57681
SWIDTH 1100 0
DWIDTH 26 0
BBX 13 18 8 0
BITMAP
1FF8
3FF8
2008
3BE8
0410
0810
3008
4008
8708
7A88
0848
07C8
0048
0048
0048
0050
0050
0070
ENDCHAR
STARTCHAR indexdownleft.salt_outline
ENCODING 57682
SWIDTH 1100 0
DWIDTH 26 0
BBX 18 15 6 1
BITMAP
003000
005800
004C00
006600
039300
040980
0804C0
100440
110780
22C400
44A400
8A2400
91F400
A01200
400C00
ENDCHAR
STARTCHAR indexdownright.salt_outline
ENCODING 57683
SWIDTH 1100 0
DWIDTH 26 0
BBX 19 15 5 1
BITMAP
018000
034000
064000
0CC000
193000
320C00
640200
C80200
580100
247880
08CC40
091240
09E120
0A00A0
060040
ENDCHAR
STARTCHAR indexupleft.salt_outline
ENCODING 57684
SWIDTH 1100 0
DWIDTH 26 0
BBX 15 19 7 -1
BITMAP
6000
9800
4400
2200
1180
0840
0C40
1220
2220
241C
2C12
3026
404C
8098
7F30
0260
02E0
01C0
0080
ENDCHAR
STARTCHAR indexupright.salt_outline
ENCODING 57685
SWIDTH 1100 0
DWIDTH 26 0
BBX 15 19 7 -1
BITMAP
000C
0012
0024
00C4
0108
0210
0430
0448
0844
2864
5028
C818
6406
3202
19FE
0C80
0640
0380
0100
ENDCHAR
STARTCHAR block.v
ENCODING 57687
SWIDTH 1000 0
DWIDTH 24 0
BBX 26 26 -1 -4
BITMAP
FFFFFFC0
FFFFFFC0
FFFFFFC0
FFFFFFC0
FFFFFFC0
FFFFFFC0
FFFFFFC0
FFFFFFC0
FFFFFFC0
FFFFFFC0
FFFFFFC0
FFFFFFC0
FFFFFFC0
FFFFFFC0
FFFFFFC0
FFFFFFC0
FFFFFFC0
FFFFFFC0
FFFFFFC0
FFFFFFC0
FFFFFFC0
FFFFFFC0
FFFFFFC0
FFFFFFC0
FFFFFFC0
FFFFFFC0
ENDCHAR
STARTCHAR uni25D6.v
ENCODING 57688
SWIDTH 1335 0
DWIDTH 32 0
BBX 26 14 3 2
BITMAP
003F0000
01FFE000
07FFF800
0FFFFC00
1FFFFE00
3FFFFF00
3FFFFE80
7FFFFF80
7FFFFF80
7FFFFFC0
FFFFFFC0
FFFFFFC0
FFFFFFC0
FFFFFFC0
ENDCHAR
STARTCHAR uni25D7.v
ENCODING 57689
SWIDTH 1335 0
DWIDTH 32 0
BBX 26 14 3 2
BITMAP
FFFFFFC0
FFFFFFC0
FFFFFFC0
FFFFFFC0
FFFFFFC0
7FFFFF80
7FFFFF80
7FFFFF80
3FFFFF00
2FFFFD00
17FFFE00
0FFFFC00
03FFD000
00FFE000
ENDCHAR
STARTCHAR uni27A1.w
ENCODING 57690
SWIDTH 650 0
DWIDTH 16 0
BBX 17 36 0 -9
BITMAP
000400
001E00
001E00
003E00
007E00
00BF80
00FF80
01FF80
03FF80
05FF80
07FF80
0FFF80
1FFF80
2FFF80
3FFF80
7FFF80
7FFF80
FFFF80
FFFF80
FFFF80
7FFF80
3FFF80
3FFF80
1FFF80
0FFF80
0FFF80
07FF80
03FF80
01FF80
01FF80
00FF80
007E00
003E00
003E00
001E00
000E00
ENDCHAR
STARTCHAR uni27A1.n
ENCODING 57691
SWIDTH 1000 0
DWIDTH 24 0
BBX 36 17 -6 0
BITMAP
07FFFFFE00
7FFFFFFFE0
FFFFFFFFF0
FFFFFFFFF0
7FFFFFFFE0
3FFFFFFFC0
17FFFFFE80
0FFFFFFF00
03FFFFFC00
01FFFFF800
007FFFE000
003FFFC000
001FFF8000
000FFF0000
0003FC0000
0001680000
0000B00000
ENDCHAR
STARTCHAR uni27A1.s
ENCODING 57692
SWIDTH 1000 0
DWIDTH 24 0
BBX 36 17 -6 0
BITMAP
0000F00000
0003FC0000
0005FA0000
000FFF0000
003FFFC000
005FFFA000
00FFFFF000
01FFFFF800
07FFFFFE00
0FFFFFFF00
1FFFFFFF80
7FFFFFFFE0
7FFFFFFFE0
FFFFFFFFF0
FFFFFFFFF0
07FFFFFE00
07FFFFFE00
ENDCHAR
STARTCHAR uni2B24.salt
ENCODING 57693
SWIDTH 1280 0
DWIDTH 31 0
BBX 26 27 2 -5
BITMAP
00FFE000
07FFFC00
1FFFFE00
3FFFFF80
7FFFFFC0
FFFFFFC0
FFFFFFC0
FFFFFFC0
FFFFFFC0
FFFFFFC0
FFFFFFC0
FFFFFFC0
FFFFFFC0
FFFFFFC0
FFFFFFC0
FFFFFFC0
FFFFFFC0
FFFFFFC0
FFFFFFC0
FFFFFFC0
FFFFFFC0
BFFFFFC0
5FFFFF80
3FFFFF00
0BFFFE00
07FFF800
007FC000
ENDCHAR
STARTCHAR uni25DD.curve
ENCODING 57694
SWIDTH 1280 0
DWIDTH 31 0
BBX 26 26 2 -4
BITMAP
7FFFC000
FFFFF800
FFFFFE00
FFFFFD00
FFFFFF00
FFFFFF80
FFFFFF80
FFFFFFC0
FFFFFFC0
FFFFFFC0
FFFFFFC0
FFFFFFC0
FFFFFFC0
FFFFFFC0
FFFFFFC0
FFFFFFC0
FFFFFFC0
FFFFFFC0
FFFFFFC0
FFFFFFC0
FFFFFFC0
FFFFFFC0
FFFFFFC0
FFFFFFC0
FFFFFFC0
FFFFFFC0
ENDCHAR
STARTCHAR uni2B1B.trapezoid_e
ENCODING 57695
SWIDTH 1280 0
DWIDTH 31 0
BBX 29 26 2 -4
BITMAP
7FFFFFF8
FFFFFFF8
FFFFFFF0
FFFFFFF0
FFFFFFF0
FFFFFFF0
FFFFFFF0
FFFFFFE0
FFFFFFE0
FFFFFFE0
FFFFFFE0
FFFFFFE0
FFFFFFC0
FFFFFFC0
FFFFFFC0
FFFFFFC0
FFFFFFC0
FFFFFF80
FFFFFF80
FFFFFF80
FFFFFF80
FFFFFF80
FFFFFF80
FFFFFF00
FFFFFF00
FFFFFF00
ENDCHAR
STARTCHAR uni2B1B.trapezoid_w
ENCODING 57696
SWIDTH 1280 0
DWIDTH 31 0
BBX 28 26 0 -4
BITMAP
FFFFFFF0
FFFFFFF0
FFFFFFF0
7FFFFFF0
7FFFFFF0
7FFFFFF0
7FFFFFF0
7FFFFFF0
3FFFFFF0
3FFFFFF0
3FFFFFF0
3FFFFFF0
3FFFFFF0
1FFFFFF0
3FFFFFF0
1FFFFFF0
1FFFFFF0
1FFFFFF0
0FFFFFF0
0FFFFFF0
0FFFFFF0
0FFFFFF0
0FFFFFF0
07FFFFF0
07FFFFF0
07FFFFF0
ENDCHAR
STARTCHAR arrowleft.chevron
ENCODING 57697
SWIDTH 1330 0
DWIDTH 32 0
BBX 32 34 0 -8
BITMAP
00060000
000E0000
00160000
001E0000
003DFFFF
007FFFFF
00FFFFFE
017FFFFE
01FFFFFE
03FFFFFC
07FFFFFC
0FFFFFF8
0FFFFFF8
1FFFFFF8
3FFFFFF0
7FFFFFF0
FFFFFFE0
FFFFFFE0
BFFFFFF0
7FFFFFF0
3FFFFFF0
1FFFFFF8
0FFFFFF8
07FFFFFC
03FFFFFC
03FFFFFC
01FFFFFE
00FFFFFE
007FFFFE
005FFFFF
003E0000
001E0000
000E0000
00060000
ENDCHAR
STARTCHAR arrowup.chevron
ENCODING 57698
SWIDTH 1280 0
DWIDTH 31 0
BBX 35 35 -2 -9
BITMAP
0000400000
0001F00000
0003F80000
0007FC0000
000FFE0000
003FFF8000
005FFF4000
00FFFFE000
01FFFFF000
03FFFFF800
0FFFFFFE00
17FFFFFF00
3FFFFFFF80
7FFFFFFFC0
FFFFFFFFE0
07FFFFFC00
07FFFFFC00
07FFFFFC00
07FFFFFC00
07FFFFFC00
07FFFFFC00
07FFFFFC00
07FFFFFC00
07FFFFFC00
07FFFFFC00
07FFFFFC00
07FFFFFC00
07FFFFFC00
07FFFFFC00
07FFFFFC00
07FE0FFC00
07F803FC00
07C0007C00
0700001C00
0400000400
ENDCHAR
STARTCHAR arrowright.chevron
ENCODING 57699
SWIDTH 1330 0
DWIDTH 32 0
BBX 32 34 0 -8
BITMAP
00006000
00007000
00006800
00007800
FFFFBC00
FFFFFE00
7FFFFF00
7FFFFE80
7FFFFF80
3FFFFFC0
3FFFFFE0
1FFFFFF0
1FFFFFF0
1FFFFFF8
0FFFFFFC
0FFFFFFE
07FFFFFF
07FFFFFF
0FFFFFFD
0FFFFFFE
0FFFFFFC
1FFFFFF8
1FFFFFF0
3FFFFFE0
3FFFFFC0
3FFFFFC0
7FFFFF80
7FFFFF00
7FFFFE00
FFFFFA00
00007C00
00007800
00007000
00006000
ENDCHAR
STARTCHAR arrowdown.chevron
ENCODING 57700
SWIDTH 1280 0
DWIDTH 31 0
BBX 35 34 -2 -8
BITMAP
0400000400
0700001C00
07E000FC00
07F803FC00
07FF1FFC00
07FFFFFC00
07FFFFFC00
07FFFFFC00
07FFFFFC00
07FFFFFC00
07FFFFFC00
07FFFFFC00
07FFFFFC00
07FFFFFC00
07FFFFFC00
07FFFFFC00
07FFFFFC00
07FFFFFC00
07FFFFFC00
7FFFFFFFC0
FFFFFFFFE0
7FFFFFFFC0
3FFFFFFE80
1FFFFFFF00
07FFFFFC00
03FFFFF800
01FFFFF000
00BFFFA000
007FFFC000
001FFF0000
000FFE0000
0007FC0000
0002E80000
0001F00000
ENDCHAR
STARTCHAR uni25D6.deco
ENCODING 57701
SWIDTH 560 0
DWIDTH 13 0
BBX 13 31 1 -7
BITMAP
00F0
00F0
03F8
07F8
07F8
1FF8
3FF8
7FF8
7FF8
7FF8
7FF8
FFF8
FFF8
FFF8
FFF8
FFF8
FFF8
FFF8
FFF8
FFF8
7FF8
7FF8
7FF8
5FF8
3FF8
0FF8
07F8
07F8
0370
00F0
0060
ENDCHAR
STARTCHAR uni25D7.deco
ENCODING 57702
SWIDTH 560 0
DWIDTH 13 0
BBX 13 31 -1 -7
BITMAP
3800
3800
FF00
FF00
FF80
FF40
FFE0
FFF0
FFF0
FFF8
FFF8
FFF8
FFF8
FFF8
FFF8
FFF8
FFF8
FFF8
FFF8
FFF8
FFF8
FFF8
FFF0
FFF0
FFE0
FF80
FF80
FF00
3E00
3800
1800
ENDCHAR
STARTCHAR uni25D6.v_deco
ENCODING 57703
SWIDTH 1280 0
DWIDTH 31 0
BBX 30 14 0 1
BITMAP
00010000
00FFFC00
03FFFF00
05FFFF80
07FFFFC0
1BFFFFF0
3FFFFFE8
3FFFFFF8
7FFFFFF4
FFFFFFFC
FFFFFFFC
DFFFFFFC
3FFFFFF0
3FFFFFF0
ENDCHAR
STARTCHAR uni25D7.v_deco
ENCODING 57704
SWIDTH 1280 0
DWIDTH 31 0
BBX 30 13 0 3
BITMAP
3FFFFFF0
7FFFFFFC
FFFFFFFC
FFFFFFFC
FFFFFFF4
3FFFFFF8
3FFFFFF8
1FFFFFF0
07FFFFC0
07FFFF80
03FFFF80
01FFFF00
003FF800
ENDCHAR
STARTCHAR uni25D6.bevel
ENCODING 57705
SWIDTH 350 0
DWIDTH 8 0
BBX 7 26 2 -4
BITMAP
06
0E
3E
3E
7E
FE
FE
FE
FE
FE
FE
FE
FE
FE
FE
FE
FE
FE
FE
FE
FE
FE
7E
3E
1E
0E
ENDCHAR
STARTCHAR uni25D7.bevel
ENCODING 57706
SWIDTH 350 0
DWIDTH 8 0
BBX 8 26 -1 -4
BITMAP
E0
E0
F8
FC
FC
FF
FF
FF
FF
FF
FF
FF
FF
FF
FF
FF
FF
FF
FF
FF
FF
FE
FC
FC
F0
E0
ENDCHAR
STARTCHAR uni25D6.v_bevel
ENCODING 57707
SWIDTH 1280 0
DWIDTH 31 0
BBX 26 8 2 5
BITMAP
03FFF800
07FFFC00
1BFFFB00
3FFFFE80
3FFFFF80
5FFFFFC0
FFFFFFC0
FFFFFFC0
ENDCHAR
STARTCHAR uni25D7.v_bevel
ENCODING 57708
SWIDTH 1280 0
DWIDTH 31 0
BBX 26 8 2 5
BITMAP
FFFFFFC0
FFFFFFC0
FFFFFFC0
3FFFFF80
3FFFFF80
3FFFFF00
0FFFFE00
07FFFC00
ENDCHAR
STARTCHAR uni25D6.spike
ENCODING 57709
SWIDTH 350 0
DWIDTH 8 0
BBX 8 27 1 -5
BITMAP
7F
3F
3F
3F
1F
1F
0F
0F
1F
2F
3F
7F
FF
FF
FF
7F
3F
1F
0F
0F
1F
1F
1F
3F
3F
7F
78
ENDCHAR
STARTCHAR uni25D7.spike
ENCODING 57710
SWIDTH 350 0
DWIDTH 8 0
BBX 9 27 -1 -5
BITMAP
FE00
FE00
FC00
FC00
FC00
F800
F800
F000
F800
FC00
FE00
FD00
FF00
FF80
FF00
FE00
FC00
F800
F800
F800
F800
F800
FC00
FC00
FE00
FE00
1E00
ENDCHAR
STARTCHAR uni25D6.v_spike
ENCODING 57711
SWIDTH 1280 0
DWIDTH 31 0
BBX 27 9 2 4
BITMAP
000E0000
801D0020
E03F81E0
FE7FC7E0
FDFFDFE0
FFFFFFE0
FFFFFFC0
FFFFFFC0
FFFFFFC0
ENDCHAR
STARTCHAR uni25D7.v_spike
ENCODING 57712
SWIDTH 1280 0
DWIDTH 31 0
BBX 27 9 2 4
BITMAP
FFFFFFC0
FFFFFFC0
FFFFFFC0
FFFFFFE0
FBFFFFE0
FC7F43E0
C02F80E0
001E0000
00040000
ENDCHAR
STARTCHAR uni25D6.square
ENCODING 57713
SWIDTH 350 0
DWIDTH 8 0
BBX 7 26 2 -4
BITMAP
7E
FE
FE
FE
FE
FE
FE
FE
FE
FE
FE
FE
FE
FE
FE
FE
FE
FE
FE
FE
FE
FE
FE
FE
FE
FE
ENDCHAR
STARTCHAR uni25D7.square
ENCODING 57714
SWIDTH 350 0
DWIDTH 8 0
BBX 7 26 -1 -4
BITMAP
FC
FE
FE
FE
FE
FE
FE
FE
FE
FE
FE
FE
FE
FE
FE
FE
FE
FE
FE
FE
FE
FE
FE
FE
FE
FE
ENDCHAR
STARTCHAR uni25D6.v_square
ENCODING 57715
SWIDTH 1280 0
DWIDTH 31 0
BBX 26 7 2 5
BITMAP
FFFFFFC0
FFFFFFC0
FFFFFFC0
FFFFFFC0
FFFFFFC0
FFFFFFC0
FFFFFFC0
ENDCHAR
STARTCHAR uni25D7.v_square
ENCODING 57716
SWIDTH 1280 0
DWIDTH 31 0
BBX 26 7 2 5
BITMAP
FFFFFFC0
FFFFFFC0
FFFFFFC0
FFFFFFC0
FFFFFFC0
FFFFFFC0
7FFFFFC0
ENDCHAR
STARTCHAR uni25D6.rounded
ENCODING 57717
SWIDTH 350 0
DWIDTH 8 0
BBX 7 26 2 -4
BITMAP
0E
3E
3E
7E
7E
FE
FE
FE
FE
FE
FE
FE
FE
FE
FE
FE
FE
FE
FE
FE
FE
FE
7E
7E
3E
1E
ENDCHAR
STARTCHAR uni25D7.rounded
ENCODING 57718
SWIDTH 350 0
DWIDTH 8 0
BBX 8 26 -1 -4
BITMAP
E0
F8
FC
FC
FE
FE
FE
FE
FE
FF
FF
FF
FF
FF
FF
FF
FF
FF
FE
FE
FE
FE
FE
FC
FC
F8
ENDCHAR
STARTCHAR uni25D6.v_rounded
ENCODING 57719
SWIDTH 1280 0
DWIDTH 31 0
BBX 26 8 2 5
BITMAP
000C0000
0FFFFC00
3FFFFF80
7FFFFF40
7FFFFFC0
FFFFFFC0
FFFFFFC0
FFFFFFC0
ENDCHAR
STARTCHAR uni25D7.v_rounded
ENCODING 57720
SWIDTH 1280 0
DWIDTH 31 0
BBX 26 8 2 5
BITMAP
FFFFFFC0
FFFFFFC0
FFFFFFC0
7FFFFFC0
7FFFFFC0
3FFFFF80
1FFFFF00
03FFF800
ENDCHAR
STARTCHAR uni21AB.arrow
ENCODING 57721
SWIDTH 1000 0
DWIDTH 24 0
BBX 31 44 -2 -22
BITMAP
7FE00000
7FFF0000
7FFFC000
7FFFF000
7FFFF800
7FFFFC00
7FFFFA00
7FFFFE00
7FFFFF00
7FFFFF00
7FFFFF80
7FFFFF80
7FFFFF80
7FFFFF80
7FFFFFC0
7FFFFFC0
7FFFFFC0
7FFFFFC0
7FFFFFC0
7FFFFFC0
7FFFFFC0
7FFFFFC0
7FFFFFC0
7FFFFFC0
7FFFFFC0
7FFFFFC0
17FFFFC0
0FFFFFC0
0FFFFFC0
F7FFFFBE
FFFFFFFC
7FFFFFF8
2FFFFFF0
17FFFFE0
0BFFFFC0
05FFFF80
03FFFF00
00FFFE00
007FFC00
003FF800
001FF000
000FE000
0007C000
00038000
ENDCHAR
STARTCHAR uni21AC.arrow
ENCODING 57722
SWIDTH 1000 0
DWIDTH 24 0
BBX 30 43 -2 -4
BITMAP
00078000
000BC000
001FE000
003FF000
007FF800
00FFFC00
01FFFE00
03FFFF80
07FFFF40
0FFFFFA0
1FFFFFF0
3FFFFFF8
7FFFFFFC
FFFFFFFC
FFFFFFFC
0FFFFFC0
0FFFFFC0
6FFFFFC0
7FFFFFC0
7FFFFFC0
7FFFFFC0
7FFFFFC0
7FFFFFC0
7FFFFFC0
7FFFFFC0
7FFFFFC0
7FFFFFC0
7FFFFFC0
7FFFFFC0
7FFFFF80
7FFFFF80
7FFFFF80
7FFFFF80
7FFFFF00
7FFFFF00
7FFFFE00
7FFFFE00
7FFFFC00
7FFFF800
7FFFF000
7FFFE000
7FFF8000
7FFC0000
ENDCHAR
STARTCHAR uni21AB.v_arrow
ENCODING 57723
SWIDTH 1335 0
DWIDTH 32 0
BBX 44 31 -15 -8
BITMAP
000200000000
00073FFFFFF0
000F3FFFFFF0
001F3FFFFFF0
003FFFFFFFF0
007FFFFFFFF0
00FFFFFFFFF0
01FFFFFFFFF0
03FFFFFFFFF0
07FFFFFFFFF0
0BFFFFFFFFF0
17FFFFFFFFF0
2FFFFFFFFFF0
3FFFFFFFFFF0
7FFFFFFFFFE0
FFFFFFFFFFE0
7FFFFFFFFFE0
3FFFFFFFFFC0
1FFFFFFFFFC0
17FFFFFFFF80
0BFFFFFFFF00
07FFFFFFFE00
03FFFFFFFC00
01FFFFFFF800
00FFFFFFE000
007EFFFF0000
003F00000000
001F00000000
000F00000000
000700000000
000200000000
ENDCHAR
STARTCHAR uni21AC.v_arrow
ENCODING 57724
SWIDTH 1335 0
DWIDTH 32 0
BBX 44 31 3 -8
BITMAP
000000040000
FFFFFFC60000
FFFFFFC70000
FFFFFFC78000
FFFFFFFFC000
FFFFFFFFE000
FFFFFFFFF000
FFFFFFFFF800
FFFFFFFFFC00
FFFFFFFFFE00
FFFFFFFFFF00
FFFFFFFFFF80
FFFFFFFFFFC0
7FFFFFFFFFA0
7FFFFFFFFFE0
7FFFFFFFFFF0
7FFFFFFFFFE0
3FFFFFFFFFC0
3FFFFFFFFF40
1FFFFFFFFE80
0FFFFFFFFF00
07FFFFFFFE00
03FFFFFFFC00
00FFFFFFF800
003FFFFFF000
0007FFFFE000
00000007C000
000000078000
000000070000
000000060000
000000040000
ENDCHAR
STARTCHAR uni25D6.wings
ENCODING 57725
SWIDTH 900 0
DWIDTH 22 0
BBX 23 35 0 -9
BITMAP
07FFC0
07FFC0
07FFC0
07FFE0
7FFFFE
FFFFFE
FFFFFE
FFFFFE
FFFFFE
FFFFFE
FFFFFE
FFFFFE
FFFFFE
FFFFFE
FFFFFE
FFFFFE
FFFFFE
FFFFFE
FFFFFE
FFFFFE
FFFFFE
FFFFFE
FFFFFE
FFFFFE
FFFFFE
FFFFFE
FFFFFE
FFFFFE
FFFFFE
FFFFFE
07FFF0
07FFE0
07FFC0
07FFC0
07FFC0
ENDCHAR
STARTCHAR uni25D7.wings
ENCODING 57726
SWIDTH 900 0
DWIDTH 22 0
BBX 22 35 -1 -9
BITMAP
07FFC0
07FFC0
0FFFC0
17FFC0
FFFFFC
FFFFFC
FFFFFC
FFFFFC
FFFFFC
FFFFFC
FFFFFC
FFFFFC
FFFFFC
FFFFFC
FFFFFC
FFFFFC
FFFFFC
FFFFFC
FFFFFC
FFFFFC
FFFFFC
FFFFFC
FFFFFC
FFFFFC
FFFFFC
FFFFFC
FFFFFC
FFFFFC
FFFFFC
FFFFFC
3FFFC0
0FFFC0
07FFC0
07FFC0
07FFC0
ENDCHAR
STARTCHAR uni25D6.v_wings
ENCODING 57727
SWIDTH 1280 0
DWIDTH 31 0
BBX 35 22 -2 -2
BITMAP
07FFFFFC00
0FFFFFFC00
0FFFFFFC00
0FFFFFFC00
7FFFFFFFC0
FFFFFFFFE0
FFFFFFFFE0
FFFFFFFFE0
FFFFFFFFE0
FFFFFFFFE0
FFFFFFFFE0
FFFFFFFFE0
FFFFFFFFE0
FFFFFFFFE0
FFFFFFFFE0
FFFFFFFFE0
FFFFFFFFE0
FFFFFFFFE0
1FFFFFFD00
0FFFFFFE00
0FFFFFFC00
0FFFFFFC00
ENDCHAR
STARTCHAR uni25D7.v_wings
ENCODING 57728
SWIDTH 1280 0
DWIDTH 31 0
BBX 35 22 -2 -2
BITMAP
0FFFFFFC00
0FFFFFFC00
0FFFFFFC00
0FFFFFFE00
1FFFFFFF00
FFFFFFFFE0
FFFFFFFFE0
FFFFFFFFE0
FFFFFFFFE0
FFFFFFFFE0
FFFFFFFFE0
FFFFFFFFE0
FFFFFFFFE0
FFFFFFFFE0
FFFFFFFFE0
FFFFFFFFE0
FFFFFFFFE0
F7FFFFFFE0
0FFFFFFC00
0FFFFFFC00
0FFFFFFC00
0FFFFFFC00
ENDCHAR
STARTCHAR uni2B1B.chevron_e
ENCODING 57729
SWIDTH 1280 0
DWIDTH 31 0
BBX 31 26 0 -4
BITMAP
FFFFFFC0
FFFFFFC0
7FFFFFE0
7FFFFFE0
7FFFFFE0
3FFFFFF0
3FFFFFF0
1FFFFFF8
1FFFFFF8
1FFFFFF8
0FFFFFFC
0FFFFFFC
07FFFFFE
07FFFFFE
0FFFFFFC
0FFFFFFC
0FFFFFFC
1FFFFFF8
1FFFFFF8
3FFFFFF0
3FFFFFF0
3FFFFFF0
7FFFFFE0
7FFFFFE0
7FFFFFC0
FFFFFFC0
ENDCHAR
STARTCHAR uni2B1B.chevron_n
ENCODING 57730
SWIDTH 1280 0
DWIDTH 31 0
BBX 26 31 2 -7
BITMAP
001E0000
007FC000
01FFF000
0FFFFE00
3FFFFF80
FFFFFFC0
FFFFFFC0
FFFFFFC0
FFFFFFC0
FFFFFFC0
FFFFFFC0
FFFFFFC0
FFFFFFC0
FFFFFFC0
FFFFFFC0
FFFFFFC0
FFFFFFC0
FFFFFFC0
FFFFFFC0
FFFFFFC0
FFFFFFC0
FFFFFFC0
FFFFFFC0
FFFFFFC0
FFFFFFC0
FFFFFFC0
FFF1FFC0
FF807FC0
FE000FC0
F00003C0
40000040
ENDCHAR
STARTCHAR uni2B1B.chevron_s
ENCODING 57731
SWIDTH 1280 0
DWIDTH 31 0
BBX 26 31 2 -7
BITMAP
E00000C0
FC0007C0
FF001FC0
FFE0FFC0
FFFBFFC0
FFFFFFC0
FFFFFFC0
FFFFFFC0
FFFFFFC0
FFFFFFC0
FFFFFFC0
FFFFFFC0
FFFFFFC0
FFFFFFC0
FFFFFFC0
FFFFFFC0
FFFFFFC0
FFFFFFC0
FFFFFFC0
FFFFFFC0
FFFFFFC0
FFFFFFC0
FFFFFFC0
FFFFFFC0
FFFFFFC0
7FFFFFC0
1FFFFF00
07FFF800
00FFE000
003F0000
00040000
ENDCHAR
STARTCHAR uni2B1B.chevron_w
ENCODING 57732
SWIDTH 1280 0
DWIDTH 31 0
BBX 31 26 0 -4
BITMAP
07FFFFFE
07FFFFFE
0FFFFFFC
0FFFFFFC
1FFFFFF8
1FFFFFF8
2FFFFFF8
3FFFFFF0
3FFFFFF0
7FFFFFE0
7FFFFFE0
BFFFFFE0
FFFFFFC0
FFFFFFC0
FFFFFFC0
7FFFFFE0
7FFFFFE0
3FFFFFF0
3FFFFFF0
3FFFFFF0
1FFFFFF8
1FFFFFF8
0FFFFFFC
0FFFFFFC
0FFFFFFC
07FFFFFE
ENDCHAR
STARTCHAR uni2B1B.semichevron_e
ENCODING 57733
SWIDTH 650 0
DWIDTH 16 0
BBX 17 26 0 -4
BITMAP
FFFF80
FFFF80
7FFF80
7FFF80
7FFF80
3FFF80
3FFF80
1FFF80
1FFF80
1FFF80
0FFF80
0FFF80
07FF80
07FF80
0FFF80
0FFF80
0FFF80
1FFF80
1FFF80
3FFF80
3FFF80
3FFF80
7FFF80
7FFF80
FFFF80
FFFF80
ENDCHAR
STARTCHAR uni2B1B.semichevron_w
ENCODING 57734
SWIDTH 650 0
DWIDTH 16 0
BBX 17 26 -1 -4
BITMAP
FFFF00
FFFF80
FFFF00
FFFF00
FFFE00
FFFE00
FFFE00
FFFC00
FFFC00
FFF800
FFF800
FFF800
FFF000
FFF000
FFF000
FFF800
FFF800
FFF800
FFFC00
FFFC00
FFFE00
FFFE00
FFFE00
FFFF00
FFFF00
FFFF80
ENDCHAR
STARTCHAR uni2B1B.semichevron_n
ENCODING 57735
SWIDTH 1000 0
DWIDTH 24 0
BBX 26 17 -1 0
BITMAP
C00000C0
F80007C0
FE001FC0
FFC0FFC0
FFF3FFC0
FFFFFFC0
FFFFFFC0
FFFFFFC0
FFFFFFC0
FFFFFFC0
FFFFFFC0
FFFFFFC0
FFFFFFC0
FFFFFFC0
FFFFFFC0
FFFFFFC0
FFFFFFC0
ENDCHAR
STARTCHAR uni2B1B.semichevron_s
ENCODING 57736
SWIDTH 1000 0
DWIDTH 24 0
BBX 26 17 -1 0
BITMAP
FFFFFFC0
FFFFFFC0
FFFFFFC0
FFFFFFC0
FFFFFFC0
FFFFFFC0
FFFFFFC0
FFFFFFC0
FFFFFFC0
FFFFFFC0
FFFFFFC0
FFFFFFC0
FFE1FFC0
FF807FC0
FC000FC0
F00003C0
80000040
ENDCHAR
STARTCHAR space.v
ENCODING 57737
SWIDTH 1000 0
DWIDTH 24 0
BBX 1 1 0 0
BITMAP
00
ENDCHAR
STARTCHAR Agrave.v
ENCODING 57738
SWIDTH 1000 0
DWIDTH 24 0
BBX 18 26 3 -3
BITMAP
038000
047E00
1C0100
3CF900
3C0100
3FF900
3FFE00
1C0200
0C7100
188900
190480
392480
322240
327240
727240
640140
E40140
E7FF40
E40140
E47140
E47140
E07040
E0F040
FF7F80
FE7F00
FC7E00
ENDCHAR
STARTCHAR Aacute.v
ENCODING 57739
SWIDTH 1000 0
DWIDTH 24 0
BBX 18 26 3 -3
BITMAP
000E00
03F100
040100
0CF900
3C0100
3C7E00
3FFC00
3C0200
1C7100
188900
190480
392480
322240
327240
727240
640140
E40140
E7FF40
E40140
E47140
E47140
E07040
E0F040
FF7F80
FE7F00
FC7E00
ENDCHAR
STARTCHAR Acircumflex.v
ENCODING 57740
SWIDTH 1000 0
DWIDTH 24 0
BBX 18 26 3 -3
BITMAP
00F800
030600
047100
0C8900
1C0100
3DFD00
3FFE00
3C0200
3C7100
188900
190480
392480
322240
327240
727240
640140
E40140
E7FF40
E40140
E47140
E47140
E07040
E0F040
FF7F80
FE7F00
FC7E00
ENDCHAR
STARTCHAR Atilde.v
ENCODING 57741
SWIDTH 1000 0
DWIDTH 24 0
BBX 18 25 3 -3
BITMAP
03FF00
040100
1CF900
3C0100
3DE200
3FFC00
3C0200
1C7100
188900
190480
392480
322240
327240
727240
640140
E40140
E7FF40
E40140
E47140
E47140
E07040
E0F040
FF7F80
FE7F00
FC7E00
ENDCHAR
STARTCHAR Adieresis.v
ENCODING 57742
SWIDTH 1000 0
DWIDTH 24 0
BBX 18 25 3 -3
BITMAP
0FFF80
182080
392480
382080
387100
3FFE00
3C0200
0C7100
188900
190480
392480
322240
327240
727240
640140
E40140
E7FF40
E40140
E47140
E47140
E07040
E0F040
FF7F80
FE7F00
FC7E00
ENDCHAR
STARTCHAR Aring.v
ENCODING 57743
SWIDTH 1000 0
DWIDTH 24 0
BBX 18 26 3 -3
BITMAP
01FC00
020200
04F900
090500
197500
397500
3D2500
3C5900
3C7100
388880
190480
392480
322240
727240
727240
640140
E3FE40
E40140
E40140
E47140
E47140
E07040
E0F040
FF7F80
FE7F00
FC7E00
ENDCHAR
STARTCHAR Amacron.v
ENCODING 57744
SWIDTH 1000 0
DWIDTH 24 0
BBX 18 25 3 -3
BITMAP
03FE00
040100
1CF900
3C0100
3C0100
3FFE00
3C0200
0C7100
188900
190480
392480
322240
327240
727240
640140
E40140
E7FF40
E40140
E47140
E47140
E07040
E0F040
FF7F80
FE7F00
FC7E00
ENDCHAR
STARTCHAR Abreve.v
ENCODING 57745
SWIDTH 1000 0
DWIDTH 24 0
BBX 18 26 3 -3
BITMAP
07CF00
085100
192500
3D8D00
3C7100
3F0600
3FFC00
1C0200
0C7100
188900
190480
392480
322240
327240
727240
640140
E40140
E7FF40
E40140
E47140
E47140
E07040
E0F040
FF7F80
FE7F00
FC7E00
ENDCHAR
STARTCHAR Aogonek.v
ENCODING 57746
SWIDTH 1000 0
DWIDTH 24 0
BBX 18 24 3 -6
BITMAP
03FC00
040200
0C7100
188900
190480
392480
322240
327240
727240
640140
E40140
E7FF40
E40140
E47140
E47140
E07240
E0F240
FF7280
FE7440
FC7340
007040
00FC40
007F80
007E00
ENDCHAR
STARTCHAR Ccedilla.v
ENCODING 57747
SWIDTH 1000 0
DWIDTH 24 0
BBX 18 23 3 -5
BITMAP
03FF80
0C0040
10FE40
330040
620040
E27F80
E47F00
E47E00
E48000
E48000
E48000
E48000
E27FC0
E20040
F1EE40
F01040
FC1040
7F2780
3F0700
1F0E00
07F000
0FE000
0F8000
ENDCHAR
STARTCHAR Cacute.v
ENCODING 57748
SWIDTH 1000 0
DWIDTH 24 0
BBX 18 26 3 -3
BITMAP
000F00
03F100
040500
0CF900
1C0100
3C7E00
3FFF80
380040
10FE40
330040
620040
E27F80
E47F00
E47E00
E48000
E48000
E48000
E48000
E27FC0
E20040
F1FE40
F00040
FC0040
7FFF80
3FFF00
0FFE00
ENDCHAR
STARTCHAR Ccircumflex.v
ENCODING 57749
SWIDTH 1000 0
DWIDTH 24 0
BBX 18 26 3 -3
BITMAP
00F800
030600
047900
0C8500
1C0100
3DFD00
3FFF80
380040
10FE40
330040
620040
E27F80
E47F00
E47E00
E48000
E48000
E48000
E48000
E27FC0
E20040
F1FE40
F00040
FC0040
7FFF80
3FFF00
0FFE00
ENDCHAR
STARTCHAR Cdotaccent.v
ENCODING 57750
SWIDTH 1000 0
DWIDTH 24 0
BBX 18 25 3 -3
BITMAP
01FC00
032400
072400
070400
078400
07FF80
080040
10FE40
330040
620040
E27F80
E47F00
E47E00
E48000
E48000
E48000
E48000
E27FC0
E20040
F1FE40
F00040
FC0040
7FFF80
3FFF00
0FFE00
ENDCHAR
STARTCHAR Ccaron.v
ENCODING 57751
SWIDTH 1000 0
DWIDTH 24 0
BBX 18 26 3 -3
BITMAP
078700
0C7900
1C0500
3CF900
3E0300
3FCC00
3FFF80
080040
10FE40
330040
620040
E27F80
E47F00
E47E00
E48000
E48000
E48000
E48000
E27FC0
E20040
F1FE40
F00040
FC0040
7FFF80
3FFF00
0FFE00
ENDCHAR
STARTCHAR Dcaron.v
ENCODING 57752
SWIDTH 1000 0
DWIDTH 24 0
BBX 18 26 3 -3
BITMAP
078F00
0C7100
1C0100
3CF900
3E0200
3F8C00
3FFE00
200180
61F840
E20640
E20240
E27140
E27140
E27140
E27140
E27140
E27140
E27140
E20140
E20240
E3FC40
E00080
E00100
FFFE00
FFFC00
FFF000
ENDCHAR
STARTCHAR Egrave.v
ENCODING 57753
SWIDTH 1000 0
DWIDTH 24 0
BBX 18 26 3 -3
BITMAP
038000
047E00
1C0100
3CF900
3C0100
3FF900
3FFF80
200040
61FE40
E20040
E20040
E27F80
E27F00
E20100
E3F900
E20100
E20100
E27E00
E27F80
E20040
E3FE40
E00040
E00040
FFFF80
FFFF00
FFFC00
ENDCHAR
STARTCHAR Eacute.v
ENCODING 57754
SWIDTH 1000 0
DWIDTH 24 0
BBX 18 26 3 -3
BITMAP
000E00
03F100
040100
0CF900
3C0100
3C7E00
3FFF80
200040
61FE40
E20040
E20040
E27F80
E27F00
E20100
E3F900
E20100
E20100
E27E00
E27F80
E20040
E3FE40
E00040
E00040
FFFF80
FFFF00
FFFC00
ENDCHAR
STARTCHAR Ecircumflex.v
ENCODING 57755
SWIDTH 1000 0
DWIDTH 24 0
BBX 18 26 3 -3
BITMAP
00F800
030600
047100
0C8900
3C0100
3DFD00
3FFF80
200040
61FE40
E20040
E20040
E27F80
E27F00
E20100
E3F900
E20100
E20100
E27E00
E27F80
E20040
E3FE40
E00040
E00040
FFFF80
FFFF00
FFFC00
ENDCHAR
STARTCHAR Edieresis.v
ENCODING 57756
SWIDTH 1000 0
DWIDTH 24 0
BBX 18 25 3 -3
BITMAP
0FFF80
182080
392480
382080
387100
3FFF80
200040
61FE40
E20040
E20040
E27F80
E27F00
E20100
E3F900
E20100
E20100
E27E00
E27F80
E20040
E3FE40
E00040
E00040
FFFF80
FFFF00
FFFC00
ENDCHAR
STARTCHAR Emacron.v
ENCODING 57757
SWIDTH 1000 0
DWIDTH 24 0
BBX 18 25 3 -3
BITMAP
03FE00
040100
1CF900
3C0100
3C0100
3FFF80
200040
61FE40
E20040
E20040
E27F80
E27F00
E20100
E3F900
E20100
E20100
E27E00
E27F80
E20040
E3FE40
E00040
E00040
FFFF80
FFFF00
FFFC00
ENDCHAR
STARTCHAR Ebreve.v
ENCODING 57758
SWIDTH 1000 0
DWIDTH 24 0
BBX 18 26 3 -3
BITMAP
07DF00
085100
192500
3D8D00
3C7100
3F0600
3FFF80
200040
61FE40
E20040
E20040
E27F80
E27F00
E20100
E3F900
E20100
E20100
E27E00
E27F80
E20040
E3FE40
E00040
E00040
FFFF80
FFFF00
FFFC00
ENDCHAR
STARTCHAR Edotaccent.v
ENCODING 57759
SWIDTH 1000 0
DWIDTH 24 0
BBX 18 25 3 -3
BITMAP
01FC00
032400
072400
0F0400
0F0400
1FFF80
200040
61FE40
E20040
E20040
E27F80
E27F00
E20100
E3F900
E20100
E20100
E27E00
E27F80
E20040
E3FE40
E00040
E00040
FFFF80
FFFF00
FFFC00
ENDCHAR
STARTCHAR Eogonek.v
ENCODING 57760
SWIDTH 1000 0
DWIDTH 24 0
BBX 18 24 3 -6
BITMAP
1FFF80
200040
61FE40
E20040
E20040
E27F80
E27F00
E20100
E3F900
E20100
E20100
E27E00
E27F80
E20040
E3FC40
E00240
E00440
FFF480
FFF440
FFF240
00F040
00FCC0
00FF00
007E00
ENDCHAR
STARTCHAR Ecaron.v
ENCODING 57761
SWIDTH 1000 0
DWIDTH 24 0
BBX 18 26 3 -3
BITMAP
078F00
0C7100
1C0100
3CF900
3E0200
3F8C00
3FFF80
200040
61FE40
E20040
E20040
E27F80
E27F00
E20100
E3F900
E20100
E20100
E27E00
E27F80
E20040
E3FE40
E00040
E00040
FFFF80
FFFF00
FFFC00
ENDCHAR
STARTCHAR Gcircumflex.v
ENCODING 57762
SWIDTH 1000 0
DWIDTH 24 0
BBX 18 26 3 -3
BITMAP
00F800
030600
047100
0C8900
3C0100
3DFD00
3FFF00
380080
30FC80
330080
620080
E47F00
E47E00
E47800
E48FC0
E49040
E4B140
E47140
E20140
E20140
F1FF40
F00040
FC0040
7FFF80
3FFF00
0FFE00
ENDCHAR
ENDFONT
